<svg width="48" height="48" viewBox="0 0 48 48" fill="none" xmlns="http://www.w3.org/2000/svg">
<rect width="48" height="48" fill="#AD2430"/>
<path d="M31.0612 25.0612L21.0612 35.0612C20.7794 35.343 20.3972 35.5013 19.9987 35.5013C19.6002 35.5013 19.218 35.343 18.9362 35.0612C18.6544 34.7794 18.4961 34.3972 18.4961 33.9987C18.4961 33.6002 18.6544 33.218 18.9362 32.9362L27.8749 23.9999L18.9387 15.0612C18.7992 14.9217 18.6885 14.756 18.613 14.5737C18.5375 14.3914 18.4986 14.196 18.4986 13.9987C18.4986 13.8014 18.5375 13.606 18.613 13.4237C18.6885 13.2414 18.7992 13.0757 18.9387 12.9362C19.0782 12.7967 19.2439 12.686 19.4262 12.6105C19.6085 12.535 19.8039 12.4961 20.0012 12.4961C20.1985 12.4961 20.3939 12.535 20.5762 12.6105C20.7585 12.686 20.9242 12.7967 21.0637 12.9362L31.0637 22.9362C31.2034 23.0757 31.3141 23.2414 31.3896 23.4239C31.4651 23.6063 31.5039 23.8018 31.5036 23.9992C31.5034 24.1966 31.4642 24.3921 31.3883 24.5743C31.3123 24.7565 31.2012 24.922 31.0612 25.0612Z" fill="white"/>
</svg>
