<svg width="145" height="26" viewBox="0 0 145 26" fill="none" xmlns="http://www.w3.org/2000/svg">
<g clip-path="url(#clip0_2153_89)">
<path d="M13.1821 26C20.4624 26 26.3639 20.1799 26.3639 13V3.9C26.3639 2.86566 25.9473 1.87368 25.2057 1.14228C24.4641 0.410892 23.4582 0 22.4094 0L13.8412 0V5.7031C13.8412 7.0044 13.9216 8.3525 14.6137 9.4601C15.1091 10.2539 15.7719 10.9333 16.557 11.4522C17.3421 11.9711 18.2312 12.3175 19.164 12.4676L19.4165 12.5079C19.5205 12.543 19.6109 12.6093 19.6748 12.6976C19.7388 12.7858 19.7732 12.8915 19.7732 13C19.7732 13.1085 19.7388 13.2142 19.6748 13.3024C19.6109 13.3907 19.5205 13.457 19.4165 13.492L19.164 13.5323C17.8011 13.7519 16.5426 14.3881 15.5661 15.3511C14.5896 16.3141 13.9445 17.5553 13.7219 18.8994L13.681 19.1483C13.6455 19.251 13.5783 19.3401 13.4888 19.4032C13.3993 19.4662 13.2921 19.5002 13.1821 19.5002C13.0721 19.5002 12.9649 19.4662 12.8754 19.4032C12.786 19.3401 12.7188 19.251 12.6832 19.1483L12.6423 18.8994C12.49 17.9795 12.1388 17.1026 11.6126 16.3284C11.0864 15.5541 10.3976 14.9004 9.5927 14.4118C8.46961 13.7293 7.10266 13.65 5.78316 13.65H0.0161133C0.360818 20.5276 6.12325 26 13.1821 26Z" fill="#0E1534"/>
<path d="M0 12.35H5.78286C7.10236 12.35 8.46932 12.2707 9.59241 11.5882C10.4703 11.0547 11.2094 10.3259 11.7503 9.4601C12.4423 8.3525 12.5227 7.0044 12.5227 5.7031V0H3.95455C2.90574 0 1.89988 0.410892 1.15826 1.14228C0.416638 1.87368 0 2.86566 0 3.9L0 12.35ZM30.6181 1.3C30.6181 1.64478 30.4792 1.97544 30.232 2.21924C29.9848 2.46304 29.6495 2.6 29.2999 2.6C28.9503 2.6 28.615 2.46304 28.3678 2.21924C28.1206 1.97544 27.9817 1.64478 27.9817 1.3C27.9817 0.955218 28.1206 0.624558 28.3678 0.380761C28.615 0.136964 28.9503 0 29.2999 0C29.6495 0 29.9848 0.136964 30.232 0.380761C30.4792 0.624558 30.6181 0.955218 30.6181 1.3ZM139.537 7.8676C143.222 7.8676 145 10.4058 145 13.3458V18.8675H141.144V14.001C141.144 12.6685 140.651 11.5687 139.237 11.5687C137.823 11.5687 137.352 12.6685 137.352 14.001V18.8669H133.496V14.001C133.496 12.6685 133.024 11.5687 131.61 11.5687C130.196 11.5687 129.703 12.6685 129.703 14.001V18.8669H125.847V13.3451C125.847 10.4052 127.625 7.86695 131.31 7.86695C133.324 7.86695 134.781 8.64955 135.445 9.9398C136.152 8.64955 137.695 7.8663 139.537 7.8663V7.8676ZM118.918 15.483C120.16 15.483 120.696 14.3617 120.696 13.0286V8.2901H124.552V13.494C124.552 16.6036 122.71 19.1847 118.918 19.1847C115.125 19.1847 113.283 16.6042 113.283 13.494V8.2901H117.14V13.0286C117.14 14.3611 117.675 15.483 118.918 15.483ZM107.613 19.2055C105.192 19.2055 103.628 18.3807 102.707 16.7732L105.492 15.2289C105.878 15.9055 106.456 16.2441 107.42 16.2441C108.213 16.2441 108.577 15.9692 108.577 15.6306C108.577 14.3403 102.921 15.652 102.921 11.5485C102.921 9.55955 104.635 7.9521 107.548 7.9521C110.098 7.9521 111.491 9.17865 112.112 10.3636L109.327 11.9288C109.091 11.2944 108.362 10.9135 107.634 10.9135C107.077 10.9135 106.777 11.1462 106.777 11.4634C106.777 12.7751 112.433 11.5693 112.433 15.546C112.433 17.7671 110.226 19.2055 107.613 19.2055ZM94.1399 23.7328H90.2836V13.5577C90.2836 10.3207 92.7473 7.9729 96.1752 7.9729C99.5175 7.9729 102.067 10.4903 102.067 13.5577C102.067 16.9422 99.7956 19.1847 96.3894 19.1847C95.5965 19.1847 94.8043 18.952 94.1399 18.5919V23.7328ZM96.1752 15.6097C97.3965 15.6097 98.2105 14.6789 98.2105 13.5785C98.2105 12.4579 97.3965 11.5479 96.1752 11.5479C94.9539 11.5479 94.1399 12.4579 94.1399 13.5792C94.1399 14.679 94.9539 15.6097 96.1752 15.6097ZM86.4207 7.1695C85.1565 7.1695 84.1073 6.13275 84.1073 4.88475C84.1073 3.63675 85.1565 2.6 86.4207 2.6C87.6848 2.6 88.7347 3.63675 88.7347 4.88475C88.7347 6.13275 87.6848 7.1695 86.4207 7.1695ZM84.4928 8.2901H88.3492V18.8675H84.4928V8.2901ZM77.0939 19.1847C73.7516 19.1847 71.2023 16.6465 71.2023 13.5577C71.2023 10.4903 73.7516 7.9521 77.0939 7.9521C80.4361 7.9521 82.9855 10.4903 82.9855 13.5577C82.9855 16.6465 80.4361 19.1847 77.0939 19.1847ZM77.0939 15.6097C78.3152 15.6097 79.1291 14.6789 79.1291 13.5785C79.1291 12.4579 78.3152 11.5271 77.0939 11.5271C75.8726 11.5271 75.0586 12.4579 75.0586 13.5785C75.0586 14.6789 75.8726 15.6097 77.0939 15.6097ZM63.9206 24.05C61.2645 24.05 59.336 22.8865 58.3506 20.813L61.5426 19.121C61.8853 19.8406 62.528 20.5809 63.856 20.5809C65.2493 20.5809 66.1701 19.7132 66.2775 18.1903C65.7634 18.6348 64.9488 18.9728 63.7282 18.9728C60.7497 18.9728 58.35 16.7095 58.35 13.5363C58.35 10.4696 60.9 7.9729 64.2423 7.9729C67.6702 7.9729 70.1339 10.3213 70.1339 13.5577V17.7463C70.1339 21.554 67.4553 24.05 63.9206 24.05ZM64.1777 15.3985C65.3344 15.3985 66.2129 14.6152 66.2129 13.4517C66.2129 12.3097 65.335 11.5479 64.1777 11.5479C63.042 11.5479 62.1424 12.3097 62.1424 13.4524C62.1424 14.6159 63.042 15.3978 64.1777 15.3978V15.3985ZM51.8092 19.1847C48.4669 19.1847 45.9169 16.6465 45.9169 13.5577C45.9169 10.4903 48.4669 7.9521 51.8092 7.9521C55.1508 7.9521 57.7008 10.4903 57.7008 13.5577C57.7008 16.6465 55.1514 19.1847 51.8092 19.1847ZM51.8092 15.6097C53.0305 15.6097 53.8444 14.6789 53.8444 13.5785C53.8444 12.4579 53.0305 11.5271 51.8092 11.5271C50.5879 11.5271 49.7739 12.4579 49.7739 13.5785C49.7739 14.6789 50.5879 15.6097 51.8092 15.6097ZM38.8949 4.589V15.2711H45.2795V18.8675H38.3591C35.9172 18.8675 34.9318 17.5981 34.9318 15.5883V4.589H38.8949Z" fill="#0E1534"/>
</g>
<defs>
<clipPath id="clip0_2153_89">
<rect width="145" height="26" fill="white"/>
</clipPath>
</defs>
</svg>
