<svg width="128" height="30" viewBox="0 0 128 30" fill="none" xmlns="http://www.w3.org/2000/svg">
<g clip-path="url(#clip0_2153_92)">
<path d="M36.9309 15.5815C36.9564 15.0861 36.9564 14.5897 36.9309 14.0943H9.01444C9.00855 14.2177 9.0034 14.3419 9.00046 14.4661H3.15218L3.14924 14.652H0V15.0238H3.14851L3.15292 15.2097H9.00046C9.0034 15.3346 9.00782 15.4581 9.01517 15.5815H17.0299C16.9995 15.3348 16.9842 15.0865 16.9843 14.8379H28.7544C28.7544 15.09 28.7397 15.3383 28.7088 15.5815H36.9309ZM36.8728 13.3507H28.5697C28.5052 13.0977 28.4241 12.8493 28.327 12.6071H17.4139C17.3175 12.8481 17.2359 13.0957 17.1711 13.3507H9.07182C9.08506 13.2265 9.09977 13.1024 9.11595 12.9789H3.26768L3.29269 12.7975H0V12.4257H3.3508L3.38464 12.2353H9.23292C9.25499 12.1112 9.28 11.987 9.30648 11.8635H36.6396C36.7426 12.3506 36.8213 12.8466 36.8728 13.3507ZM36.4609 11.1199H27.4641C27.2519 10.8522 27.0174 10.6035 26.763 10.3764H18.9771C18.7233 10.6039 18.4879 10.8523 18.276 11.1199H9.48524C9.51834 10.9958 9.55365 10.8716 9.59044 10.7482H3.74216L3.8069 10.5392H0V10.1667H3.92975L3.98713 10.0038H9.8354C9.87954 9.8789 9.92662 9.75546 9.97517 9.63203H35.9702C36.16 10.1154 36.324 10.6128 36.4609 11.1199ZM35.6539 8.88918H10.2915C10.3489 8.76426 10.4077 8.64082 10.4688 8.51738H4.62124L4.72497 8.31215H0V7.94036H4.92432L5.01775 7.77379H10.866C10.9374 7.64887 11.0109 7.52469 11.086 7.402H34.8594C35.1522 7.87938 35.4185 8.3761 35.6539 8.88918ZM9.07182 16.3251H36.8736C36.8213 16.8292 36.7426 17.3259 36.6396 17.8123H27.968C28.1041 17.5743 28.2247 17.3259 28.3277 17.0687H17.4124C17.5154 17.3259 17.6353 17.5743 17.7714 17.8123H9.30575C9.27956 17.6887 9.25504 17.5647 9.23218 17.4405H3.38464C3.37266 17.3751 3.36114 17.3097 3.35007 17.2442H0V16.8724H3.29195C3.28351 16.8139 3.27542 16.7554 3.26768 16.6969H9.11595C9.09963 16.5731 9.08491 16.4492 9.07182 16.3251ZM9.48451 18.5558H36.4601C36.324 19.0637 36.16 19.5597 35.9702 20.043H25.7214C26.0941 19.8339 26.4434 19.5846 26.763 19.2994H18.9771C19.2968 19.5846 19.646 19.8339 20.0188 20.043H9.97517C9.92688 19.9198 9.88029 19.7958 9.8354 19.6712H3.98713L3.92386 19.492H0V19.1202H3.80175C3.78168 19.0562 3.76206 18.992 3.7429 18.9276H9.59044C9.55365 18.8042 9.51834 18.6808 9.48451 18.5558ZM10.2915 20.7866H35.6539C35.4187 21.2979 35.1534 21.7946 34.8594 22.2738H11.086C11.0105 22.151 10.937 22.0271 10.8653 21.902H5.01775C4.98097 21.8381 4.94492 21.7741 4.90961 21.7094H0V21.3376H4.71172L4.62124 21.1592H10.4695C10.4084 21.0361 10.349 20.9122 10.2915 20.7874V20.7866ZM12.4469 24.1328C12.555 24.2592 12.6661 24.3826 12.7794 24.5046H33.166C33.6002 24.0369 34.0025 23.54 34.3702 23.0174H11.5752C11.6634 23.1431 11.7532 23.2672 11.8459 23.3892H5.99761L6.14326 23.5788H0V23.9506H6.44414C6.4949 24.0123 6.54639 24.0725 6.59862 24.1328H12.4469ZM14.887 26.3635C15.0657 26.4922 15.2474 26.6164 15.4314 26.7353H30.514C31.1911 26.2958 31.8295 25.7983 32.4223 25.2482H13.5239C13.66 25.3746 13.799 25.4987 13.9402 25.62H8.09195C8.1714 25.6884 8.25159 25.7553 8.33251 25.8207H0V26.1925H8.80699C8.88349 26.2505 8.96147 26.3078 9.03945 26.3635H14.8877H14.887ZM20.0489 28.6568C20.992 28.8598 21.9697 28.9661 22.9723 28.9661C25.2189 28.9661 27.3412 28.4307 29.2215 27.4789H16.7231C16.985 27.6113 17.2506 27.7355 17.5206 27.8507H11.6723C11.7767 27.8953 11.8819 27.9392 11.9871 27.9816H0V28.3534H13.0391C14.3316 28.7519 15.7035 28.9661 17.1248 28.9661C18.1274 28.9661 19.1058 28.8598 20.0489 28.6568ZM11.5752 6.65841H34.3702C34.0025 6.13575 33.6002 5.63889 33.166 5.17123H12.7794C12.6661 5.29318 12.555 5.41662 12.4462 5.54303H6.59862L6.46915 5.69621H0V6.068H6.16607C6.10943 6.14013 6.05352 6.213 5.99834 6.28662H11.8459C11.7532 6.40931 11.6634 6.53349 11.5752 6.65841ZM13.5231 4.42764H32.4215C31.829 3.87757 31.1908 3.38001 30.514 2.94046H15.4314C15.2474 3.06018 15.0657 3.18436 14.887 3.31226H9.03945C8.95853 3.371 8.87761 3.42974 8.79816 3.48997H0V3.86177H8.32441C8.24644 3.92572 8.1692 3.99041 8.09269 4.05585H13.9402C13.799 4.17705 13.66 4.30123 13.5231 4.42764ZM16.7239 2.19687H29.2223C27.2823 1.21566 25.1423 0.706383 22.9731 0.709692C21.9697 0.709692 20.992 0.816769 20.0489 1.01977C19.0876 0.8132 18.1075 0.709271 17.1248 0.709692C15.5549 0.709692 14.0462 0.971436 12.6374 1.45328H0V1.82508H17.5206C17.2512 1.9405 16.9855 2.06449 16.7239 2.19687ZM81.8376 0.5C82.3209 0.5 82.7005 0.621949 82.9764 0.865846C83.264 1.09859 83.4074 1.42354 83.4074 1.84292C83.4074 2.26156 83.264 2.59246 82.9764 2.83636C82.7005 3.0691 82.3209 3.18585 81.8376 3.18585C81.355 3.18585 80.9696 3.0691 80.6819 2.83636C80.4061 2.59246 80.2678 2.26156 80.2678 1.84292C80.2678 1.42428 80.4061 1.09933 80.6819 0.865846C80.9696 0.621949 81.355 0.5 81.8376 0.5ZM83.1831 4.80687V12.3922C83.1831 12.8808 83.264 13.2124 83.4251 13.3864C83.5972 13.5612 83.8849 13.6482 84.2873 13.6482V14.014C83.9655 13.9981 83.6435 13.9865 83.3214 13.9791C82.8789 13.9557 82.4359 13.944 81.9928 13.9441C81.5448 13.9441 81.0902 13.956 80.6304 13.9791C80.2853 13.9867 79.9403 13.9984 79.5954 14.014V13.6482C79.9978 13.6482 80.2795 13.5612 80.4406 13.3864C80.6128 13.2124 80.6996 12.8808 80.6996 12.3922V6.89933C80.6996 6.37659 80.6187 5.99215 80.4576 5.749C80.3082 5.49321 80.0206 5.36531 79.5954 5.36531V4.99872C79.9632 5.03367 80.32 5.05077 80.665 5.05077C81.1476 5.05077 81.5963 5.03367 82.0105 4.99872C82.4357 4.95262 82.827 4.88867 83.1831 4.80687Z" fill="#2F2352"/>
<path fill-rule="evenodd" clip-rule="evenodd" d="M88.0382 6.4071V4.80689C87.6822 4.88869 87.2908 4.95264 86.8656 4.99874C86.4397 5.03369 85.991 5.05079 85.5194 5.05079C85.1744 5.05079 84.8184 5.03369 84.4498 4.99874V5.36533C84.864 5.36533 85.1516 5.49323 85.3127 5.74902C85.4738 5.99292 85.554 6.37661 85.554 6.89935V15.6187C85.554 16.0834 85.4738 16.3972 85.3127 16.5601C85.1634 16.7229 84.8986 16.804 84.519 16.804V17.1706L85.4334 17.1185C85.8531 17.1067 86.2729 17.1007 86.6928 17.1007C87.2791 17.1007 87.8315 17.1066 88.3487 17.1178C88.8776 17.1416 89.2918 17.1587 89.5912 17.1698V16.804C89.1079 16.804 88.7283 16.711 88.4524 16.5251C88.1765 16.3511 88.0382 15.9905 88.0382 15.4439V13.6965C88.1898 13.8244 88.3678 13.93 88.573 14.014C88.9409 14.1776 89.3491 14.2587 89.7979 14.2587C90.4077 14.2587 90.9535 14.1479 91.4369 13.927C91.9282 13.7086 92.3602 13.3737 92.6963 12.9507C93.0523 12.509 93.323 11.9684 93.5069 11.3289C93.7026 10.6894 93.8004 9.94584 93.8004 9.09666C93.8004 8.13223 93.6621 7.32989 93.3863 6.6904C93.1104 6.03902 92.7419 5.55717 92.2821 5.24338C91.8226 4.91786 91.2733 4.74692 90.7123 4.75484C90.045 4.75484 89.4587 4.92884 88.9526 5.27758C88.5547 5.54899 88.2501 5.92525 88.0382 6.40784V6.4071ZM88.0382 7.00643V13.3277C88.1339 13.4422 88.2494 13.5374 88.3833 13.6132C88.6017 13.7292 88.8489 13.7872 89.1255 13.7872C89.6427 13.7872 90.0509 13.6132 90.3503 13.2645C90.649 12.9038 90.8616 12.4041 90.9881 11.7647C91.1264 11.114 91.1956 10.3407 91.1956 9.4454C91.1956 8.44602 91.1323 7.66079 91.0058 7.0912C90.8793 6.52161 90.7064 6.11487 90.4879 5.87097C90.2694 5.62633 90.0053 5.50438 89.6941 5.50438C89.2807 5.50438 88.9011 5.66797 88.5561 5.99292C88.2964 6.24574 88.1236 6.58407 88.0382 7.00643Z" fill="#2F2352"/>
<path d="M97.7611 4.75481C98.2444 4.75481 98.6637 4.81876 99.0205 4.94665C99.3883 5.06265 99.6531 5.1794 99.8142 5.2954C100.205 5.56309 100.447 5.38835 100.539 4.77191H100.901C100.878 5.0976 100.86 5.49914 100.849 5.97504C100.837 6.44052 100.832 7.06217 100.832 7.84145H100.47C100.411 7.40545 100.301 6.9781 100.142 6.56842C99.9951 6.17083 99.752 5.8169 99.4346 5.53929C99.1352 5.2716 98.7446 5.13776 98.2613 5.13776C97.928 5.13776 97.6463 5.2374 97.416 5.43519C97.1858 5.62109 97.071 5.89399 97.071 6.25463C97.071 6.60337 97.1748 6.91122 97.3815 7.17891C97.5889 7.4347 97.853 7.68455 98.1752 7.92845C98.5085 8.16119 98.8535 8.41104 99.2102 8.67799C99.5898 8.96873 99.9348 9.25947 100.245 9.55022C100.543 9.8132 100.794 10.1258 100.987 10.4745C101.171 10.8113 101.263 11.2121 101.263 11.6776C101.263 12.2004 101.113 12.6592 100.815 13.0548C100.515 13.4384 100.119 13.7351 99.6244 13.9441C99.1411 14.1538 98.6004 14.2586 98.0031 14.2586C97.6893 14.2622 97.3763 14.227 97.071 14.1538C96.8319 14.0936 96.6003 14.0057 96.381 13.892C96.2317 13.8221 96.0875 13.7582 95.9499 13.7002C95.8326 13.6349 95.7115 13.5768 95.5873 13.5262C95.4725 13.4912 95.3688 13.5314 95.2768 13.6481C95.1966 13.7641 95.1334 13.927 95.087 14.1359H94.7251C94.7479 13.7641 94.7656 13.3106 94.7766 12.7759C94.7884 12.2413 94.7942 11.5319 94.7942 10.6492H95.1562C95.2253 11.2768 95.3519 11.8345 95.5358 12.3223C95.7197 12.7997 95.9668 13.1774 96.2773 13.4563C96.5995 13.724 97.0019 13.8578 97.4852 13.8578C97.6809 13.8578 97.8707 13.8169 98.0546 13.7351C98.2385 13.6533 98.3878 13.5195 98.5033 13.3336C98.6298 13.1477 98.6931 12.9098 98.6931 12.6198C98.6931 12.1074 98.5261 11.6828 98.1921 11.346C97.8707 11.0091 97.4565 10.6426 96.9504 10.2477C96.5826 9.94506 96.2317 9.64912 95.8984 9.35837C95.5894 9.07258 95.3222 8.74385 95.1047 8.38204C94.8946 8.01062 94.7874 7.58885 94.7942 7.16106C94.7942 6.63832 94.9318 6.19663 95.2077 5.83599C95.4893 5.47159 95.8658 5.19374 96.2949 5.03365C96.7614 4.84647 97.2592 4.7518 97.7611 4.75481ZM119.176 4.94665C118.877 4.81876 118.486 4.75481 118.003 4.75481C117.462 4.74925 116.928 4.88119 116.451 5.1385C115.979 5.3824 115.605 5.79509 115.329 6.37658V4.8076C114.973 4.88865 114.581 4.9526 114.156 4.9987C113.742 5.03365 113.293 5.05076 112.811 5.05076C112.466 5.05076 112.109 5.03365 111.741 4.9987V5.36529C112.166 5.36529 112.454 5.49319 112.603 5.74899C112.764 5.99288 112.844 6.37658 112.844 6.89932V12.3922C112.844 12.8808 112.758 13.2124 112.586 13.3864C112.425 13.5611 112.143 13.6481 111.741 13.6481V14.014C112.086 13.9984 112.431 13.9867 112.776 13.979C113.224 13.9561 113.673 13.9444 114.122 13.9441C114.524 13.9441 114.915 13.956 115.294 13.979C115.685 13.9909 115.973 14.0028 116.157 14.014V13.6481C115.858 13.6481 115.645 13.5611 115.518 13.3864C115.392 13.2124 115.329 12.8808 115.329 12.3922V7.54476C115.329 7.16106 115.404 6.81827 115.553 6.51563C115.714 6.20183 115.921 5.95794 116.174 5.78394C116.417 5.61277 116.706 5.52138 117.002 5.52219C117.267 5.52219 117.462 5.58614 117.589 5.71404C117.727 5.83004 117.819 5.99883 117.865 6.21968C117.911 6.42863 117.934 6.67847 117.934 6.96922V12.3922C117.934 12.8808 117.87 13.2124 117.744 13.3864C117.629 13.5611 117.416 13.6481 117.106 13.6481V14.014C117.313 14.0028 117.617 13.9909 118.02 13.979C118.836 13.932 119.654 13.932 120.47 13.979C120.895 13.9909 121.212 14.0028 121.418 14.014V13.6481C121.05 13.6481 120.791 13.5611 120.642 13.3864C120.493 13.2124 120.418 12.8808 120.418 12.3922V7.62209L120.417 7.56781L120.414 7.39158C120.441 7.1001 120.518 6.81563 120.642 6.55132C120.803 6.23678 121.01 5.98694 121.263 5.80104C121.516 5.61514 121.793 5.52219 122.091 5.52219C122.39 5.52219 122.609 5.58614 122.747 5.71404C122.896 5.83004 122.994 5.99883 123.04 6.21968C123.098 6.42863 123.126 6.67847 123.126 6.96922V12.3922C123.126 12.8808 123.063 13.2124 122.937 13.3864C122.822 13.5611 122.609 13.6481 122.298 13.6481V14.014C122.506 14.0028 122.81 13.9909 123.212 13.979C123.62 13.9556 124.029 13.944 124.437 13.9441C124.863 13.9441 125.294 13.956 125.731 13.979C126.168 13.9909 126.496 14.0028 126.715 14.014V13.6481C126.312 13.6481 126.025 13.5611 125.852 13.3864C125.691 13.2124 125.611 12.8808 125.611 12.3922V7.70165C125.611 7.12017 125.57 6.65542 125.49 6.30668C125.409 5.94604 125.277 5.65604 125.093 5.43519C124.909 5.2255 124.668 5.0634 124.368 4.94665C124.069 4.81876 123.678 4.75481 123.196 4.75481C122.609 4.75481 122.057 4.87676 121.54 5.12065C121.044 5.36009 120.642 5.81665 120.334 6.49035C120.323 6.42879 120.311 6.36754 120.297 6.30668C120.217 5.94604 120.085 5.65604 119.901 5.43519C119.717 5.2255 119.475 5.0634 119.176 4.94665ZM110.387 12.1134V4.80686C110.031 4.88865 109.64 4.9526 109.214 4.9987C108.801 5.03365 108.352 5.05076 107.869 5.05076C107.524 5.05076 107.168 5.03365 106.799 4.9987V5.36529C107.225 5.36529 107.513 5.49319 107.662 5.74899C107.823 5.99288 107.903 6.37658 107.903 6.89932V11.4679C107.903 11.8516 107.823 12.2004 107.662 12.5142C107.525 12.8015 107.317 13.048 107.058 13.2295C106.817 13.404 106.526 13.4958 106.23 13.4912C105.943 13.4912 105.724 13.4325 105.574 13.3165C105.419 13.1794 105.311 12.9965 105.264 12.7938C105.215 12.541 105.192 12.2839 105.195 12.0264V4.80686C104.839 4.88865 104.447 4.9526 104.022 4.9987C103.608 5.03365 103.159 5.05076 102.677 5.05076C102.332 5.05076 101.975 5.03365 101.607 4.9987V5.36529C102.032 5.36529 102.32 5.49319 102.469 5.74899C102.63 5.99288 102.71 6.37658 102.71 6.89932V11.311C102.71 11.8806 102.751 12.3461 102.832 12.706C102.912 13.0667 103.05 13.3574 103.245 13.5782C103.418 13.776 103.653 13.9389 103.953 14.0668C104.252 14.1939 104.643 14.2586 105.126 14.2586C105.724 14.2586 106.264 14.1359 106.748 13.892C107.242 13.6362 107.627 13.2176 107.903 12.6369V14.2058C108.289 14.1099 108.681 14.0458 109.077 14.014C109.491 13.979 109.939 13.9619 110.422 13.9619C110.779 13.9619 111.135 13.979 111.492 14.014V13.6481C111.077 13.6481 110.79 13.5262 110.629 13.2815C110.468 13.0258 110.387 12.6369 110.387 12.1141V12.1134Z" fill="#2F2352"/>
<path fill-rule="evenodd" clip-rule="evenodd" d="M77.0177 5.22549C76.3851 4.91169 75.6487 4.7548 74.8093 4.7548C73.9928 4.7548 73.2623 4.91169 72.6186 5.22549C71.986 5.53928 71.4858 6.04493 71.1179 6.74241C70.7612 7.4399 70.5824 8.36418 70.5824 9.51526C70.5824 10.6663 70.7612 11.5899 71.1172 12.2881C71.485 12.9737 71.9852 13.4734 72.6179 13.7872C73.2623 14.101 73.9928 14.2586 74.8093 14.2586C75.6487 14.2586 76.3851 14.101 77.0177 13.7872C77.6496 13.4734 78.1447 12.9737 78.5007 12.2881C78.8575 11.5906 79.0355 10.6663 79.0355 9.51526C79.0355 8.36418 78.8575 7.44064 78.5007 6.74241C78.1447 6.04493 77.6496 5.53928 77.0177 5.22549ZM73.6537 6.14977C73.9641 5.45228 74.3496 5.10354 74.8093 5.10354C75.2809 5.10354 75.6663 5.45228 75.965 6.14977C76.2754 6.83536 76.4307 7.95744 76.4307 9.51526C76.4307 11.0731 76.2754 12.1952 75.965 12.8807C75.6663 13.5663 75.2809 13.9099 74.8093 13.9099C74.3496 13.9099 73.9641 13.5663 73.6537 12.8807C73.3432 12.1952 73.188 11.0731 73.188 9.51526C73.188 7.95744 73.3425 6.83536 73.6537 6.14977ZM64.957 17.2925C64.2435 17.2925 63.6057 17.2285 63.0422 17.1006C62.4904 16.9846 62.0535 16.7987 61.7313 16.5429C61.4208 16.2983 61.2656 15.9964 61.2656 15.6357C61.2656 15.2751 61.426 14.9502 61.7482 14.6594C62.0704 14.3806 62.5478 14.1597 63.1805 13.9969L63.3349 14.2757C63.1374 14.4256 62.9731 14.6156 62.8524 14.8334C62.7604 15.0431 62.7141 15.258 62.7141 15.4788C62.7141 15.9674 62.9326 16.3392 63.3703 16.5942C63.819 16.8619 64.4222 16.9958 65.1814 16.9958C65.6985 16.9958 66.159 16.9259 66.5614 16.7868C66.9756 16.647 67.2971 16.4373 67.5273 16.1592C67.7693 15.8796 67.89 15.5368 67.89 15.1301C67.89 14.7814 67.7635 14.4847 67.5104 14.2408C67.2573 14.008 66.7512 13.892 65.992 13.892H64.9224C64.4516 13.892 64.0367 13.84 63.6807 13.7351C63.3349 13.631 63.065 13.4674 62.8693 13.2466C62.6743 13.0146 62.5765 12.7238 62.5765 12.3751C62.5765 11.8866 62.7663 11.4568 63.1459 11.0842C63.4431 10.7927 63.8536 10.5154 64.3773 10.2529C64.033 10.2096 63.6948 10.126 63.3695 10.0038C62.8524 9.806 62.4441 9.50336 62.1454 9.09662C61.846 8.68987 61.6967 8.16713 61.6967 7.52764C61.6967 6.88816 61.846 6.36467 62.1454 5.95793C62.4441 5.53928 62.8524 5.23664 63.3703 5.05075C63.8874 4.85369 64.4737 4.7548 65.1292 4.7548C65.7853 4.7548 66.3716 4.85369 66.8888 5.05149C67.2301 5.17344 67.5229 5.34669 67.7693 5.56977C67.9157 5.35636 68.0937 5.166 68.3034 4.99869C68.6948 4.6968 69.1148 4.5451 69.5628 4.5451C69.9306 4.5451 70.2072 4.64995 70.3911 4.85964C70.5868 5.05669 70.6846 5.31844 70.6846 5.64413C70.6846 5.99287 70.592 6.25387 70.408 6.42862C70.2241 6.59221 70.0174 6.67326 69.7872 6.67326C69.5847 6.67055 69.3895 6.59637 69.2354 6.46357C69.0736 6.32377 68.9824 6.11482 68.9596 5.83598C68.9397 5.58613 69.0089 5.2768 69.167 4.90649C68.8316 5.05075 68.5726 5.21508 68.3902 5.40023C68.2527 5.53427 68.1325 5.68544 68.0327 5.85011C68.0606 5.88505 68.0879 5.92149 68.1136 5.95793C68.413 6.36467 68.5623 6.88741 68.5623 7.5269C68.5623 8.16639 68.413 8.68987 68.1136 9.09662C67.8149 9.50336 67.4067 9.806 66.8888 10.0038C66.3716 10.2008 65.7853 10.2997 65.1292 10.2997C65.031 10.2998 64.9329 10.2976 64.8349 10.2931C64.6797 10.3994 64.5303 10.5124 64.3876 10.6314C64.299 10.7015 64.2279 10.7916 64.18 10.8945C64.1321 10.9975 64.1087 11.1103 64.1118 11.224C64.1118 11.5958 64.342 11.7817 64.8018 11.7817H66.6821C67.3147 11.7817 67.8782 11.8576 68.3726 12.0085C68.8787 12.1602 69.2752 12.4101 69.5628 12.7588C69.8622 13.0956 70.0115 13.5373 70.0115 14.0839C70.0115 14.6535 69.8276 15.1822 69.4598 15.6707C69.103 16.1592 68.5513 16.5481 67.8032 16.8389C67.0558 17.1415 66.1068 17.2925 64.957 17.2925ZM65.1292 9.98595C65.4403 9.98595 65.6809 9.81195 65.8537 9.46321C66.0266 9.10257 66.1127 8.45713 66.1127 7.52764C66.1127 6.59741 66.0266 5.95793 65.8537 5.60918C65.6816 5.24854 65.4403 5.06859 65.1299 5.06859C64.8305 5.06859 64.5892 5.24854 64.4053 5.60918C64.2324 5.95793 64.1463 6.59741 64.1463 7.52764C64.1463 8.45713 64.2324 9.10257 64.4053 9.46321C64.5892 9.81195 64.8305 9.98595 65.1292 9.98595ZM59.0322 5.22549C58.3996 4.91169 57.664 4.7548 56.8246 4.7548C56.008 4.7548 55.2776 4.91169 54.6339 5.22549C54.0012 5.53928 53.501 6.04493 53.1332 6.74241C52.7764 7.4399 52.5977 8.36418 52.5977 9.51526C52.5977 10.6663 52.7764 11.5899 53.1325 12.2881C53.5003 12.9737 54.0005 13.4734 54.6331 13.7872C55.2776 14.101 56.008 14.2586 56.8246 14.2586C57.664 14.2586 58.4003 14.101 59.0322 13.7872C59.6649 13.4734 60.1592 12.9737 60.516 12.2881C60.8728 11.5906 61.0508 10.6663 61.0508 9.51526C61.0508 8.36418 60.8728 7.44064 60.516 6.74241C60.16 6.04493 59.6649 5.53928 59.0322 5.22549ZM55.6682 6.14977C55.9794 5.45228 56.3641 5.10354 56.8246 5.10354C57.2954 5.10354 57.6809 5.45228 57.9795 6.14977C58.2907 6.83536 58.4459 7.95744 58.4459 9.51526C58.4459 11.0731 58.2907 12.1952 57.9803 12.8807C57.6809 13.5663 57.2961 13.9099 56.8246 13.9099C56.3641 13.9099 55.9786 13.5663 55.6682 12.8807C55.3578 12.1952 55.2025 11.0731 55.2025 9.51526C55.2025 7.95744 55.3578 6.83536 55.6682 6.14977Z" fill="#2F2352"/>
<path d="M47.9514 1.66815V2.01764C47.5608 2.02879 47.2614 2.0749 47.0547 2.15669C46.9601 2.18907 46.8746 2.24403 46.8054 2.3169C46.7363 2.38977 46.6855 2.47842 46.6575 2.57533C46.5891 2.77238 46.5545 3.08692 46.5545 3.51672V12.3751C46.5545 12.735 46.5773 13.0027 46.6236 13.1774C46.681 13.3514 46.7847 13.4674 46.9341 13.5262C47.0952 13.5842 47.3313 13.6132 47.641 13.6132H48.487C48.8769 13.6132 49.2454 13.5202 49.5904 13.3343C49.9362 13.1484 50.2459 12.8867 50.5217 12.5491C50.8127 12.1742 51.0456 11.7567 51.2125 11.311C51.3964 10.8351 51.534 10.3057 51.6259 9.7242H52.0232C51.9886 10.1198 51.9717 10.6314 51.9717 11.259C51.9717 11.5267 51.9768 11.9156 51.9886 12.4272C52.0004 12.9387 52.0342 13.4682 52.0916 14.014C51.4308 13.9893 50.7696 13.9777 50.1083 13.979C49.3727 13.9679 48.7165 13.9619 48.1412 13.9619H47.0378C46.5891 13.9619 46.1057 13.9679 45.5886 13.979C45.0707 13.979 44.5477 13.985 44.0188 13.9969C43.4891 13.9969 42.9889 14.0028 42.5181 14.014V13.6652C42.8859 13.6422 43.1617 13.5953 43.3457 13.5262C43.5296 13.4563 43.6502 13.3165 43.7083 13.1075C43.7767 12.8978 43.8113 12.584 43.8113 12.1654V3.51672C43.8113 3.08618 43.7767 2.77313 43.7083 2.57533C43.6857 2.4786 43.6389 2.38934 43.5724 2.31606C43.506 2.24278 43.4221 2.18791 43.3287 2.15669C43.1448 2.0749 42.8741 2.02879 42.5181 2.0169V1.66815C43.4262 1.70216 44.3348 1.71952 45.2436 1.7202C45.7497 1.7202 46.244 1.715 46.7266 1.7031C47.2217 1.6912 47.63 1.68005 47.9514 1.66815Z" fill="#2F2352"/>
<path fill-rule="evenodd" clip-rule="evenodd" d="M124.963 28.424C124.938 28.2991 124.955 28.1362 125.013 27.9355L127.442 19.0369C127.053 19.1982 126.651 19.3239 126.24 19.4124C125.818 19.4965 125.335 19.5418 124.789 19.5507L124.702 19.814C125.108 19.814 125.36 19.8809 125.459 20.0147C125.558 20.1486 125.57 20.3568 125.496 20.6408L124.921 22.8337C124.885 22.7279 124.822 22.6332 124.74 22.5586C124.599 22.4247 124.405 22.3578 124.157 22.3578C123.661 22.3578 123.202 22.4708 122.781 22.6961C122.357 22.9303 121.975 23.2355 121.652 23.5988C121.313 23.967 121.025 24.3803 120.797 24.8273C120.572 25.2622 120.393 25.7201 120.263 26.1932C120.146 26.6008 120.083 27.0225 120.077 27.4469C120.077 27.8477 120.14 28.1779 120.263 28.4366C120.388 28.6872 120.557 28.8754 120.772 29.0003C120.987 29.1178 121.226 29.1758 121.491 29.1758C121.896 29.1758 122.26 29.0553 122.582 28.8129C122.904 28.5623 123.206 28.1779 123.488 27.6596C123.605 27.4484 123.724 27.2112 123.842 26.948L123.76 27.2588C123.685 27.5036 123.635 27.7555 123.611 28.0106C123.595 28.2277 123.611 28.4121 123.661 28.5623C123.76 28.9713 124.066 29.1765 124.579 29.1765C124.768 29.1765 124.963 29.1386 125.161 29.0635C125.36 28.9884 125.545 28.859 125.719 28.6746C125.901 28.4909 126.045 28.2284 126.153 27.8849L126.451 26.9703H126.215L126.017 27.5339C125.868 27.9607 125.728 28.2485 125.595 28.3987C125.471 28.5415 125.343 28.6121 125.211 28.6121C125.07 28.6121 124.988 28.5497 124.963 28.424ZM124.301 25.1968C124.208 25.5024 124.106 25.7932 123.996 26.0676C123.789 26.603 123.57 27.0625 123.338 27.4469C123.115 27.8224 122.896 28.1147 122.681 28.3244C122.467 28.5244 122.276 28.6248 122.111 28.6248C121.954 28.6248 121.838 28.5497 121.764 28.3995C121.698 28.2403 121.665 28.0024 121.665 27.6849C121.665 27.2335 121.714 26.774 121.813 26.3063C121.913 25.8304 122.049 25.3745 122.222 24.9403C122.382 24.5327 122.582 24.1422 122.818 23.7743C123.041 23.4234 123.277 23.1475 123.524 22.9467C123.78 22.746 124.033 22.6463 124.281 22.6463C124.446 22.6463 124.579 22.7051 124.678 22.8218C124.747 22.8976 124.8 23.0077 124.837 23.1534L124.301 25.1968Z" fill="#2F2352"/>
<path d="M116.712 29.0003H115.187L116.674 23.5989C116.749 23.3483 116.774 23.1728 116.749 23.0724C116.724 22.972 116.65 22.9222 116.526 22.9222C116.369 22.9222 116.224 23.0018 116.092 23.1601C115.959 23.3185 115.823 23.5989 115.683 24.0004L115.471 24.5886H115.236L115.558 23.6487C115.674 23.3141 115.819 23.056 115.992 22.8716C116.166 22.6798 116.356 22.5459 116.563 22.4708C116.77 22.3957 116.98 22.3578 117.195 22.3578C117.46 22.3578 117.654 22.4121 117.778 22.5214C117.91 22.63 117.993 22.772 118.026 22.9475C118.068 23.1366 118.076 23.3317 118.051 23.5238C118.034 23.7245 118.001 23.9208 117.951 24.1127L117.752 24.8987L117.803 24.7648C118.034 24.1714 118.257 23.6992 118.472 23.3483C118.696 22.9891 118.931 22.7341 119.179 22.5839C119.422 22.4346 119.701 22.3564 119.985 22.3578C120.282 22.3578 120.51 22.4456 120.667 22.621C120.833 22.7965 120.915 23.0137 120.915 23.2732C120.915 23.4814 120.865 23.6784 120.767 23.8621C120.67 24.0344 120.534 24.1806 120.369 24.2882C120.213 24.3886 120.031 24.4384 119.824 24.4384C119.617 24.4384 119.452 24.3841 119.328 24.2755C119.212 24.167 119.154 24.0078 119.154 23.7996C119.154 23.6152 119.196 23.4487 119.278 23.2977C119.358 23.1507 119.468 23.0227 119.601 22.9222C119.733 22.8136 119.878 22.7385 120.035 22.6961C120.017 22.6789 119.996 22.6662 119.973 22.659C119.945 22.6501 119.915 22.6458 119.886 22.6463C119.704 22.6463 119.518 22.7132 119.328 22.8471C119.138 22.972 118.939 23.1772 118.733 23.4613C118.526 23.7453 118.315 24.1209 118.101 24.5886C117.858 25.1417 117.643 25.7065 117.455 26.281C117.362 26.5591 117.268 26.858 117.174 27.1785L116.712 29.0003Z" fill="#2F2352"/>
<path fill-rule="evenodd" clip-rule="evenodd" d="M112.079 27.064L112.026 27.2588C111.948 27.5418 111.894 27.8312 111.865 28.1236C111.84 28.3913 111.882 28.6166 111.989 28.8003C112.154 29.0508 112.435 29.1765 112.832 29.1765C113.022 29.1765 113.212 29.1386 113.403 29.0635C113.601 28.9884 113.787 28.859 113.96 28.6746C114.134 28.4827 114.279 28.2151 114.394 27.873L114.705 26.9584H114.469L114.283 27.522C114.134 27.9563 113.99 28.2448 113.849 28.3868C113.709 28.5281 113.572 28.5995 113.44 28.5995C113.332 28.5995 113.262 28.566 113.229 28.4991C113.203 28.414 113.195 28.3244 113.204 28.2359C113.22 28.1296 113.245 28.0249 113.278 27.9228L114.878 22.3578C114.629 22.418 114.376 22.4599 114.122 22.4835C113.866 22.5087 113.589 22.5251 113.291 22.5333L113.111 23.204C113.104 23.0337 113.055 22.8679 112.969 22.7214C112.904 22.6072 112.81 22.513 112.696 22.4489C112.583 22.3848 112.454 22.3533 112.324 22.3578C111.96 22.3578 111.597 22.4708 111.233 22.6961C110.846 22.942 110.499 23.2464 110.204 23.5988C109.87 23.9832 109.579 24.4034 109.335 24.8518C109.092 25.3015 108.896 25.7764 108.753 26.2683C108.618 26.7109 108.547 27.1711 108.542 27.6343C108.542 28.1028 108.65 28.4783 108.865 28.7623C109.079 29.0382 109.41 29.1758 109.856 29.1758C110.17 29.1758 110.472 29.0843 110.762 28.9006C111.059 28.7162 111.34 28.4114 111.605 27.986C111.769 27.7295 111.926 27.4224 112.079 27.064ZM111.01 28.3363C110.819 28.5117 110.65 28.5995 110.501 28.5995C110.377 28.5995 110.282 28.537 110.216 28.4114C110.158 28.2775 110.129 28.0567 110.129 27.7473C110.129 27.3042 110.179 26.8491 110.278 26.3814C110.377 25.9129 110.51 25.4623 110.675 25.028C110.849 24.593 111.038 24.2049 111.245 23.8621C111.452 23.52 111.659 23.2479 111.865 23.0471C112.08 22.8463 112.282 22.7467 112.473 22.7467C112.671 22.7467 112.811 22.8471 112.894 23.0471C112.977 23.2285 112.998 23.4717 112.958 23.7758L112.592 25.1455L112.634 24.9276C112.502 25.4623 112.344 25.9553 112.163 26.4066C112.004 26.8102 111.814 27.1999 111.592 27.5718C111.394 27.8975 111.2 28.1526 111.01 28.3363ZM106.876 27.9355C106.817 28.1362 106.801 28.2991 106.826 28.424C106.851 28.5497 106.934 28.6121 107.074 28.6121C107.207 28.6121 107.335 28.5415 107.458 28.3995C107.591 28.2485 107.731 27.9607 107.88 27.5339L108.078 26.9703H108.314L108.017 27.8849C107.909 28.2277 107.764 28.4909 107.582 28.6746C107.428 28.8454 107.237 28.9784 107.024 29.0635C106.838 29.1365 106.641 29.1747 106.442 29.1765C105.93 29.1765 105.623 28.9713 105.524 28.5623C105.472 28.3835 105.455 28.196 105.475 28.0106C105.491 27.7934 105.54 27.5421 105.623 27.2588L105.705 26.948C105.587 27.2112 105.468 27.4484 105.351 27.6596C105.07 28.1779 104.768 28.5623 104.446 28.8122C104.132 29.052 103.748 29.1801 103.354 29.1765C103.09 29.1765 102.85 29.117 102.635 29.001C102.414 28.8686 102.237 28.672 102.127 28.4366C102.003 28.1779 101.941 27.8477 101.941 27.4469C101.941 27.0625 102.003 26.6438 102.127 26.1932C102.251 25.7337 102.429 25.2786 102.66 24.8273C102.888 24.3805 103.176 23.9672 103.515 23.5988C103.854 23.2226 104.23 22.9222 104.644 22.6961C105.068 22.47 105.541 22.3537 106.02 22.3578C106.268 22.3578 106.462 22.4247 106.603 22.5586C106.684 22.6307 106.745 22.7222 106.784 22.8337L107.359 20.6408C107.434 20.3568 107.421 20.1478 107.322 20.014C107.223 19.8802 106.97 19.8132 106.566 19.8132L106.653 19.5507C107.139 19.5479 107.625 19.5016 108.103 19.4124C108.515 19.3239 108.917 19.1982 109.306 19.0369L106.876 27.9355ZM105.859 26.0676C105.969 25.7924 106.071 25.5024 106.164 25.1968L106.7 23.1534C106.675 23.0314 106.62 22.9176 106.541 22.8218C106.492 22.7642 106.431 22.7185 106.362 22.6881C106.294 22.6577 106.219 22.6434 106.144 22.6463C105.896 22.6463 105.644 22.7467 105.388 22.9467C105.139 23.1475 104.904 23.4234 104.681 23.7743C104.445 24.1418 104.246 24.5321 104.086 24.9395C103.91 25.3819 103.773 25.8393 103.677 26.3063C103.579 26.7592 103.529 27.2213 103.528 27.6849C103.528 28.0024 103.561 28.2403 103.627 28.3987C103.701 28.5497 103.818 28.6248 103.974 28.6248C104.14 28.6248 104.33 28.5244 104.544 28.3236C104.76 28.1154 104.978 27.8224 105.202 27.4462C105.46 27.0065 105.679 26.5453 105.859 26.0676Z" fill="#2F2352"/>
<path d="M95.1128 29.0003H96.6378L96.7812 28.4337L96.7738 28.4746C96.9313 27.8894 97.1086 27.3258 97.3072 26.7822C97.5001 26.2635 97.7151 25.7534 97.9516 25.2534C98.1752 24.7849 98.3981 24.376 98.6218 24.025C98.8446 23.674 99.0595 23.4026 99.2662 23.21C99.4729 23.0092 99.6627 22.9096 99.8363 22.9096C99.9768 22.9096 100.064 22.9594 100.097 23.0598C100.131 23.1737 100.135 23.2947 100.109 23.4108C100.084 23.5466 100.051 23.6807 100.01 23.8123L98.8822 27.2588C98.7659 27.6098 98.6997 27.9102 98.6835 28.1608C98.6666 28.4114 98.7122 28.6166 98.8196 28.775C98.9028 28.9007 99.0183 28.9966 99.1669 29.0635C99.3243 29.1379 99.5104 29.1766 99.7252 29.1766C99.9231 29.1766 100.122 29.1386 100.32 29.0635C100.527 28.9966 100.717 28.871 100.89 28.6873C101.072 28.5036 101.221 28.2359 101.337 27.885L101.647 26.9703H101.411L101.213 27.534C101.056 27.969 100.907 28.2567 100.767 28.3988C100.634 28.5415 100.506 28.6122 100.382 28.6122C100.25 28.6122 100.167 28.5579 100.134 28.4486C100.101 28.3326 100.122 28.1608 100.196 27.9355L101.411 24.2503C101.519 23.9246 101.572 23.6197 101.572 23.3357C101.58 23.0434 101.502 22.8092 101.337 22.6337C101.18 22.4501 100.899 22.3586 100.494 22.3586C100.188 22.3586 99.8944 22.4255 99.6134 22.5586C99.3324 22.6925 99.0595 22.926 98.7954 23.2606C98.5305 23.5863 98.2576 24.0294 97.9766 24.5886C97.7902 24.9658 97.6191 25.3506 97.4639 25.7419L97.8773 24.1127C97.9273 23.912 97.9641 23.7112 97.9891 23.5112C98.0141 23.303 98.0053 23.1141 97.9641 22.9468C97.9247 22.774 97.8232 22.6222 97.6794 22.5207C97.5389 22.4121 97.3322 22.3578 97.0593 22.3578C96.7282 22.3578 96.4266 22.4501 96.1537 22.6337C95.8815 22.8174 95.6579 23.1557 95.4843 23.6487L95.1621 24.5886H95.3975L95.6086 23.9997C95.7572 23.5907 95.8933 23.3104 96.0176 23.1602C96.15 23.0018 96.2942 22.9222 96.4516 22.9222C96.5671 22.9222 96.6378 22.9557 96.6628 23.0226C96.6951 23.0895 96.704 23.1728 96.687 23.2732C96.6685 23.3831 96.6437 23.4919 96.6127 23.5989L95.1128 29.0003Z" fill="#2F2352"/>
<path fill-rule="evenodd" clip-rule="evenodd" d="M91.9526 27.2588L92.0048 27.064C91.8724 27.3841 91.7139 27.6925 91.5311 27.9861C91.2662 28.4114 90.9852 28.717 90.6873 28.9007C90.3982 29.0844 90.0966 29.1758 89.7825 29.1758C89.3359 29.1758 89.0056 29.0383 88.7908 28.7624C88.5753 28.4783 88.4679 28.1028 88.4679 27.6344C88.4679 27.2001 88.5385 26.745 88.679 26.2684C88.8225 25.7765 89.0178 25.3016 89.2616 24.8518C89.5046 24.4032 89.7957 23.9831 90.1297 23.5989C90.4249 23.2465 90.772 22.942 91.1588 22.6962C91.5222 22.4709 91.8864 22.3578 92.2498 22.3578C92.5308 22.3578 92.7456 22.4791 92.8949 22.7222C92.9744 22.8464 93.0222 23.007 93.0376 23.2041L93.2171 22.5333C93.5143 22.5252 93.7917 22.5088 94.0477 22.4835C94.3125 22.4582 94.5641 22.4166 94.8039 22.3578L93.2046 27.9236C93.171 28.0256 93.1461 28.1303 93.1303 28.2367C93.1209 28.3252 93.1294 28.4148 93.1553 28.4999C93.1884 28.5668 93.2583 28.6003 93.3657 28.6003C93.4981 28.6003 93.6342 28.5296 93.7747 28.3876C93.9152 28.2456 94.0602 27.9563 94.2088 27.5228L94.3949 26.9584H94.6303L94.3206 27.8731C94.2051 28.2158 94.0602 28.4828 93.8866 28.6761C93.7321 28.8465 93.5415 28.9792 93.329 29.0643C93.1474 29.1379 92.9537 29.1762 92.7581 29.1773C92.3616 29.1773 92.0806 29.0516 91.9151 28.8011C91.8077 28.6174 91.7665 28.3921 91.7915 28.1244C91.8204 27.832 91.8743 27.5419 91.9526 27.2588ZM90.4269 28.5995C90.5762 28.5995 90.7454 28.5118 90.9359 28.3363C91.1257 28.1526 91.3199 27.8976 91.5186 27.5719C91.7164 27.2462 91.907 26.8581 92.0887 26.4067C92.2704 25.9553 92.4278 25.4623 92.5602 24.927L92.5183 25.1456L92.8846 23.7766C92.9236 23.4717 92.9023 23.2286 92.8206 23.0479C92.7375 22.8471 92.597 22.7467 92.3984 22.7467C92.2086 22.7467 92.0063 22.8471 91.7915 23.0472C91.5848 23.2479 91.3781 23.5193 91.1713 23.8621C90.9646 24.2042 90.7741 24.5931 90.6005 25.0273C90.4339 25.4674 90.3014 25.9199 90.204 26.3807C90.1068 26.8297 90.057 27.2878 90.0554 27.7474C90.0554 28.0567 90.0841 28.2783 90.1422 28.4114C90.2084 28.5371 90.3033 28.5995 90.4269 28.5995Z" fill="#2F2352"/>
<path d="M89.3278 22.7839L89.3653 22.5333H87.8881L88.4722 20.478C88.2278 20.5388 87.9792 20.5808 87.7285 20.6037C87.4725 20.6282 87.1952 20.6453 86.898 20.6535L86.3646 22.5333H85.2362L85.1744 22.7839H86.294L85.0251 27.2588C84.9177 27.6261 84.8809 27.9563 84.914 28.2485C84.9552 28.5326 85.0707 28.7586 85.2612 28.9252C85.4591 29.0925 85.7445 29.1765 86.1167 29.1765C86.5383 29.1765 86.9017 29.0635 87.2077 28.8374C87.5137 28.6121 87.7535 28.2403 87.9271 27.7221L88.175 26.9703H87.9389L87.7535 27.4841C87.6042 27.902 87.4394 28.1942 87.257 28.3615C87.0834 28.5288 86.9097 28.6121 86.7361 28.6121C86.6679 28.6144 86.6001 28.6009 86.5378 28.5725C86.4756 28.5441 86.4206 28.5017 86.3771 28.4485C86.294 28.3407 86.2859 28.1697 86.3521 27.9355L87.8168 22.7839H89.3278ZM85.2215 20.0393C85.1391 20.2564 85.0273 20.5747 84.8868 20.9918C84.7543 21.4008 84.6227 21.9362 84.4902 22.5957H84.2423C84.2666 22.479 84.2835 22.3578 84.2916 22.2329C84.3075 22.1208 84.3158 22.0078 84.3166 21.8945C84.3166 21.5681 84.2504 21.2848 84.118 21.0424C83.9908 20.7882 83.7867 20.5816 83.5354 20.4527C83.2794 20.3025 82.9484 20.2274 82.5438 20.2274C82.1053 20.2274 81.7331 20.3442 81.4278 20.5784C81.1218 20.8037 80.9688 21.1673 80.9688 21.6685C80.9688 21.9778 81.0387 22.2708 81.1792 22.5459C81.3285 22.8136 81.5146 23.0768 81.7375 23.3356C81.9692 23.5862 82.2127 23.8413 82.4687 24.1C82.7255 24.3506 82.9653 24.6101 83.1882 24.8771C83.4111 25.1448 83.5935 25.4288 83.734 25.7292C83.8826 26.0222 83.9569 26.3434 83.9569 26.6944C83.9569 27.1376 83.8495 27.5176 83.6347 27.8351C83.4252 28.147 83.1498 28.4081 82.8285 28.5995C82.4916 28.7942 82.1282 28.9377 81.75 29.0256C81.3859 29.1239 81.0109 29.1746 80.6341 29.1765C80.2618 29.1765 79.9521 29.1468 79.7042 29.0888C79.4923 29.0484 79.2876 28.9765 79.0966 28.8754C78.9343 28.7854 78.7729 28.6937 78.6126 28.6002C78.5396 28.5383 78.4554 28.4913 78.3646 28.4619C78.3069 28.4326 78.2438 28.4154 78.1793 28.4114C78.0711 28.4114 77.9806 28.4656 77.9063 28.5749C77.8088 28.7382 77.7258 28.9099 77.6584 29.088H77.4098C77.6146 28.5784 77.7847 28.0551 77.9188 27.522C78.0174 27.1376 78.1292 26.6572 78.2536 26.0802H78.5015C78.4669 26.2462 78.4379 26.4134 78.4147 26.5814C78.3897 26.7487 78.3816 26.916 78.3897 27.0833C78.4147 27.6678 78.592 28.1191 78.923 28.4366C79.2621 28.7542 79.7579 28.9125 80.4104 28.9125C80.9644 28.9125 81.3822 28.7958 81.6632 28.5623C81.9442 28.3199 82.0847 27.9689 82.0847 27.5094C82.0847 27.1584 82.0185 26.8402 81.8861 26.5568C81.7611 26.2622 81.5941 25.9876 81.3903 25.7419C81.1802 25.4876 80.961 25.2411 80.7334 25.0027C80.5052 24.7644 80.2859 24.5176 80.0757 24.2629C79.8728 24.0098 79.702 23.732 79.5674 23.436C79.432 23.1195 79.3646 22.7776 79.3695 22.4329C79.3695 22.0157 79.4563 21.6521 79.6299 21.3428C79.8048 21.0411 80.0413 20.7805 80.3236 20.5784C80.6132 20.3694 80.9362 20.2125 81.2785 20.1144C81.6115 20.0081 81.9584 19.9532 82.3076 19.9515C82.7542 19.9515 83.122 20.0058 83.4111 20.1151C83.7009 20.2229 83.9488 20.3531 84.1555 20.5033L84.3909 20.6535C84.4652 20.6869 84.5234 20.7033 84.5646 20.7033C84.68 20.7033 84.8169 20.4825 84.9736 20.0393H85.2215Z" fill="#2F2352"/>
<path fill-rule="evenodd" clip-rule="evenodd" d="M73.2528 28.424C73.2278 28.2991 73.2447 28.1362 73.3028 27.9355L75.7326 19.0369C75.3436 19.1982 74.941 19.3239 74.5298 19.4124C74.1083 19.4965 73.625 19.5418 73.0792 19.5507L72.9924 19.814C73.397 19.814 73.65 19.8809 73.7486 20.0147C73.8479 20.1486 73.8604 20.3568 73.7861 20.6408L73.2108 22.8337C73.1747 22.7279 73.1124 22.6332 73.0299 22.5586C72.8894 22.4247 72.6952 22.3578 72.4473 22.3578C71.9507 22.3578 71.4924 22.4708 71.0709 22.6961C70.6469 22.9303 70.2653 23.2355 69.9424 23.5988C69.6032 23.967 69.3154 24.3803 69.0869 24.8273C68.8617 25.2622 68.6829 25.7201 68.5536 26.1932C68.4358 26.6007 68.3732 27.0225 68.3674 27.4469C68.3674 27.8477 68.43 28.1779 68.5536 28.4366C68.6779 28.6872 68.8471 28.8754 69.0619 29.0003C69.2767 29.1178 69.5165 29.1758 69.7813 29.1758C70.1859 29.1758 70.5501 29.0553 70.8723 28.8129C71.1945 28.5623 71.4961 28.1779 71.7771 27.6596C71.8948 27.4484 72.0132 27.2112 72.1317 26.948L72.0507 27.2588C71.9755 27.5035 71.9255 27.7555 71.9014 28.0106C71.8817 28.196 71.8984 28.3835 71.9507 28.5623C72.05 28.9713 72.3553 29.1765 72.8688 29.1765C73.0586 29.1765 73.2528 29.1386 73.4514 29.0635C73.65 28.9884 73.8354 28.859 74.009 28.6746C74.1914 28.4909 74.3356 28.2284 74.443 27.8849L74.741 26.9703H74.5055L74.3069 27.5339C74.1583 27.9607 74.0178 28.2485 73.8854 28.3987C73.7611 28.5415 73.6331 28.6121 73.5007 28.6121C73.3609 28.6121 73.2778 28.5497 73.2528 28.424ZM72.5907 25.1968C72.498 25.5024 72.3965 25.7932 72.2854 26.0676C72.0794 26.603 71.8602 27.0625 71.6285 27.4469C71.4056 27.8224 71.1864 28.1147 70.9716 28.3244C70.7568 28.5244 70.567 28.6248 70.4007 28.6248C70.244 28.6248 70.1285 28.5497 70.0542 28.3995C69.988 28.2403 69.9549 28.0024 69.9549 27.6849C69.9549 27.2335 70.0042 26.774 70.1035 26.3063C70.2028 25.8304 70.3389 25.3745 70.5125 24.9403C70.6725 24.5327 70.8721 24.1421 71.1084 23.7743C71.3313 23.4234 71.5667 23.1475 71.8146 22.9467C72.0706 22.746 72.3229 22.6463 72.5708 22.6463C72.7364 22.6463 72.8688 22.7051 72.9681 22.8218C73.0372 22.8976 73.0902 23.0077 73.127 23.1534L72.5907 25.1968Z" fill="#2F2352"/>
<path d="M63.0643 29.0003H61.5393L63.04 23.5989C63.0731 23.4822 63.0974 23.3736 63.1136 23.2732C63.132 23.1892 63.1235 23.1014 63.0893 23.0226C63.0643 22.9557 62.9937 22.9222 62.8782 22.9222C62.7215 22.9222 62.5766 23.0018 62.4441 23.1602C62.3206 23.3104 62.1837 23.5907 62.0351 24.0004L61.8247 24.5886H61.5893L61.9115 23.6487C62.0851 23.1557 62.3088 22.8174 62.581 22.6337C62.8531 22.4501 63.1548 22.3586 63.4858 22.3586C63.7587 22.3586 63.9654 22.4121 64.1059 22.5207C64.25 22.6221 64.3517 22.7739 64.3914 22.9468C64.4325 23.1141 64.4406 23.3022 64.4164 23.5112C64.3911 23.7138 64.3537 23.9146 64.3045 24.1127L63.8911 25.7427C64.0662 25.3047 64.2369 24.921 64.4039 24.5886C64.6849 24.0294 64.9571 23.5863 65.2219 23.2606C65.4867 22.926 65.7589 22.6925 66.0399 22.5586C66.3217 22.4248 66.6144 22.3578 66.9205 22.3578C67.3251 22.3578 67.6068 22.4501 67.7635 22.6337C67.929 22.8092 68.0077 23.0427 67.9989 23.3357C67.9989 23.6197 67.9459 23.9246 67.8378 24.2503L66.6233 27.9355C66.5482 28.1608 66.5276 28.3326 66.5607 28.4486C66.5938 28.5579 66.677 28.6122 66.8094 28.6122C66.933 28.6122 67.061 28.5415 67.1934 28.3995C67.3339 28.2567 67.4825 27.9682 67.6399 27.534L67.8385 26.9703H68.0739L67.7635 27.885C67.648 28.2359 67.4987 28.5036 67.3177 28.688C67.1619 28.86 66.9655 28.9892 66.7468 29.0635C66.5569 29.1372 66.3552 29.1755 66.1517 29.1766C65.9369 29.1766 65.7508 29.1386 65.5941 29.0635C65.4448 28.9966 65.3293 28.9 65.2469 28.775C65.1395 28.6166 65.0939 28.4114 65.1101 28.1608C65.127 27.9102 65.1932 27.6098 65.3087 27.2588L66.4371 23.8123C66.4783 23.6785 66.5114 23.5446 66.5365 23.4108C66.5625 23.2947 66.5582 23.1737 66.524 23.0598C66.4908 22.9594 66.404 22.9096 66.2635 22.9096C66.0899 22.9096 65.8994 23.01 65.6934 23.21C65.4867 23.4026 65.2712 23.674 65.0483 24.025C64.8008 24.4204 64.5773 24.8307 64.3788 25.2534C64.156 25.7218 63.9404 26.2305 63.7337 26.7822C63.5351 27.325 63.3585 27.8894 63.2011 28.4746L63.2085 28.4337L63.0643 29.0003Z" fill="#2F2352"/>
<path fill-rule="evenodd" clip-rule="evenodd" d="M58.4312 27.064L58.3797 27.2588C58.3016 27.5419 58.2475 27.8312 58.2179 28.1236C58.1929 28.3913 58.2341 28.6166 58.3415 28.8003C58.507 29.0509 58.788 29.1765 59.1852 29.1765C59.3972 29.175 59.6067 29.1297 59.8007 29.0434C59.9948 28.9571 60.1693 28.8316 60.3137 28.6746C60.4873 28.4828 60.6315 28.2151 60.7477 27.873L61.0567 26.9584H60.8213L60.6359 27.522C60.4866 27.9563 60.3416 28.2448 60.2019 28.3868C60.0614 28.5281 59.9245 28.5995 59.7929 28.5995C59.6847 28.5995 59.6148 28.566 59.5817 28.4991C59.5559 28.414 59.5473 28.3244 59.5567 28.2359C59.5736 28.1273 59.5979 28.0232 59.6318 27.9228L61.231 22.3578C60.9822 22.4179 60.7295 22.4599 60.4748 22.4835C60.2181 22.5088 59.9415 22.5251 59.6435 22.5333L59.464 23.204C59.4564 23.0338 59.4074 22.868 59.3213 22.7214C59.2568 22.6073 59.1627 22.5132 59.0491 22.4491C58.9356 22.385 58.8069 22.3535 58.6769 22.3578C58.3128 22.3578 57.9486 22.4708 57.5852 22.6962C57.2218 22.9222 56.879 23.2226 56.5561 23.5989C56.2221 23.983 55.931 24.4032 55.688 24.8518C55.4442 25.3015 55.2489 25.7764 55.1054 26.2684C54.9702 26.711 54.8993 27.1711 54.895 27.6343C54.895 28.1028 55.0024 28.4783 55.2172 28.7624C55.432 29.0382 55.7631 29.1758 56.2089 29.1758C56.523 29.1758 56.8253 29.0843 57.1137 28.9007C57.4116 28.7163 57.6934 28.4114 57.9575 27.986C58.1215 27.7295 58.2789 27.4224 58.4312 27.064ZM57.3623 28.3363C57.1725 28.5118 57.0026 28.5995 56.854 28.5995C56.7297 28.5995 56.6348 28.537 56.5686 28.4114C56.5112 28.2775 56.4818 28.0567 56.4818 27.7474C56.4818 27.3042 56.5318 26.8491 56.6311 26.3814C56.7297 25.9129 56.8621 25.4623 57.0276 25.028C57.2012 24.593 57.391 24.2049 57.5977 23.8621C57.8044 23.52 58.0112 23.2479 58.2179 23.0471C58.4327 22.8464 58.635 22.7467 58.8255 22.7467C59.0241 22.7467 59.1639 22.8471 59.247 23.0471C59.3294 23.2286 59.35 23.4717 59.311 23.7758L58.9447 25.1455L58.9866 24.9277C58.8542 25.4623 58.6975 25.9553 58.5158 26.4067C58.3334 26.8573 58.1436 27.2462 57.9449 27.5719C57.7463 27.8976 57.5521 28.1526 57.3623 28.3363Z" fill="#2F2352"/>
<path d="M51.5788 29.0003H50.0538L51.5413 23.5989C51.6156 23.3483 51.6406 23.1728 51.6156 23.0724C51.5913 22.972 51.517 22.9222 51.3927 22.9222C51.236 22.9222 51.0911 23.0018 50.9587 23.1601C50.8262 23.3185 50.6902 23.5989 50.5497 24.0004L50.3385 24.5886H50.1031L50.4253 23.6487C50.5416 23.3141 50.6857 23.056 50.8594 22.8716C51.033 22.6798 51.2235 22.5459 51.4302 22.4708C51.6362 22.3957 51.8473 22.3578 52.0628 22.3578C52.3269 22.3578 52.5211 22.4121 52.6447 22.5214C52.7762 22.628 52.8646 22.7796 52.8934 22.9475C52.9346 23.123 52.9427 23.3148 52.9176 23.5238C52.9015 23.7245 52.8684 23.9208 52.8183 24.1127L52.6197 24.8987L52.6396 24.8444L52.6697 24.7648C52.9015 24.1714 53.1244 23.6992 53.3392 23.3483C53.5628 22.9891 53.7982 22.7341 54.0461 22.5839C54.289 22.4346 54.5681 22.3564 54.8524 22.3578C55.1496 22.3578 55.3769 22.4456 55.5343 22.621C55.6991 22.7965 55.7822 23.0137 55.7822 23.2732C55.7822 23.4814 55.7322 23.6784 55.6329 23.8621C55.5367 24.0344 55.4006 24.1806 55.2364 24.2882C55.0725 24.3903 54.883 24.4424 54.6905 24.4384C54.4845 24.4384 54.319 24.3841 54.1947 24.2755C54.0792 24.167 54.0211 24.0078 54.0211 23.7996C54.0211 23.6152 54.0623 23.4487 54.1454 23.2977C54.2278 23.1475 54.3352 23.0226 54.4676 22.9222C54.6 22.8136 54.7442 22.7385 54.9017 22.6961C54.8842 22.679 54.863 22.6663 54.8399 22.659C54.8234 22.6533 54.8064 22.6496 54.7891 22.6478C54.7769 22.6466 54.7646 22.6461 54.7523 22.6463C54.5714 22.6463 54.3845 22.7132 54.1947 22.8471C54.0049 22.972 53.8063 23.1772 53.5996 23.4613C53.3936 23.7453 53.1825 24.1209 52.9669 24.5886C52.7246 25.1416 52.5095 25.7064 52.3225 26.281C52.2291 26.5583 52.1349 26.858 52.0408 27.1785L51.5788 29.0003Z" fill="#2F2352"/>
<path fill-rule="evenodd" clip-rule="evenodd" d="M49.2594 20.5911C48.846 20.2899 48.1847 20.1397 47.2754 20.1397C46.9944 20.1397 46.7134 20.1442 46.4317 20.1524C46.1595 20.1605 45.8454 20.165 45.4901 20.165H44.8699C44.6463 20.1561 44.4359 20.1524 44.2373 20.1524C44.0719 20.145 43.9067 20.1366 43.7415 20.1271L43.6797 20.3777C44.0019 20.3777 44.2211 20.4193 44.3366 20.5033C44.4609 20.5777 44.5183 20.6952 44.5102 20.8543C44.4935 21.0572 44.4603 21.2584 44.4109 21.4559L42.7741 27.6723C42.7005 27.9727 42.6174 28.1987 42.5262 28.3489C42.4438 28.4926 42.3113 28.6 42.1547 28.6501C41.9973 28.6999 41.7781 28.7334 41.497 28.7497L41.4478 29.0003C41.5875 28.9929 41.7575 28.9884 41.9553 28.9884C42.154 28.9795 42.3651 28.9758 42.588 28.9758C43.212 28.9566 43.8365 28.9608 44.4602 28.9884C44.7993 28.9959 45.1097 29.0011 45.3907 29.0011C45.9278 29.0011 46.4361 28.9461 46.9157 28.8375C47.3578 28.7361 47.7806 28.5628 48.1678 28.3244C48.5141 28.1159 48.8071 27.8281 49.0233 27.4842C49.2381 27.1495 49.3455 26.7577 49.3455 26.3063C49.3455 25.7962 49.1395 25.3575 48.7261 24.9902C48.3215 24.6221 47.68 24.4049 46.8039 24.338C47.3505 24.2587 47.8816 24.0939 48.3781 23.8495C48.8416 23.6071 49.205 23.3104 49.4698 22.9594C49.7364 22.6262 49.8809 22.2101 49.8788 21.7816C49.8788 21.2804 49.6736 20.8833 49.2594 20.5911ZM45.3017 24.5016L44.4727 27.6723C44.4234 27.8805 44.3903 28.0649 44.3741 28.2233C44.3653 28.3824 44.4065 28.5036 44.4977 28.5876C44.5889 28.6709 44.7581 28.7126 45.006 28.7126C45.593 28.7126 46.0727 28.5995 46.4442 28.3742C46.8082 28.1579 47.0982 27.8344 47.2754 27.447C47.4571 27.0454 47.5476 26.5941 47.5476 26.0936C47.5476 25.7836 47.4939 25.5122 47.3865 25.2787C47.292 25.0415 47.1219 24.8429 46.9032 24.7143C46.6803 24.5723 46.3824 24.5016 46.0101 24.5016H45.3017ZM45.3576 24.2882H45.9241C46.3949 24.2882 46.7958 24.167 47.1261 23.9246C47.4652 23.674 47.722 23.3483 47.8956 22.9475C48.0764 22.5504 48.1692 22.1183 48.1678 21.6812C48.1678 21.2633 48.0854 20.942 47.9198 20.716C47.7632 20.4907 47.4858 20.3777 47.0886 20.3777C46.8002 20.3777 46.5935 20.4364 46.4692 20.5532C46.3456 20.6617 46.2382 20.8997 46.147 21.267L45.3576 24.2882Z" fill="#2F2352"/>
</g>
<defs>
<clipPath id="clip0_2153_92">
<rect width="128" height="29" fill="white" transform="translate(0 0.5)"/>
</clipPath>
</defs>
</svg>
