<svg width="140" height="30" viewBox="0 0 140 30" fill="none" xmlns="http://www.w3.org/2000/svg">
<g clip-path="url(#clip0_2153_83)">
<path fill-rule="evenodd" clip-rule="evenodd" d="M14.8759 3.42525L16.8501 0L22.4471 3.23775L20.4737 6.66225C20.127 7.263 20.6459 7.9935 21.3256 7.86225L25.1079 7.131L26.332 13.4888L22.5497 14.2192C16.4316 15.4012 11.7607 8.83125 14.8759 3.42525Z" fill="#3A724F"/>
<path fill-rule="evenodd" clip-rule="evenodd" d="M11.456 26.5748L9.48182 30L3.88406 26.763L5.85829 23.3378C6.20492 22.737 5.6861 22.0065 5.00556 22.1378L1.22406 22.8683L0 16.5113L3.78225 15.7808C9.90032 14.5988 14.5705 21.1688 11.456 26.5748Z" fill="#DC8E43"/>
<path fill-rule="evenodd" clip-rule="evenodd" d="M11.6268 3.42525L9.65331 0L4.05556 3.23775L6.02978 6.66225C6.37566 7.263 5.85759 7.9935 5.17705 7.86225L1.39481 7.131L0.172241 13.4888L3.95374 14.2192C10.0726 15.4012 14.7435 8.83125 11.6275 3.42525H11.6268Z" fill="#14424C"/>
<path fill-rule="evenodd" clip-rule="evenodd" d="M14.7112 26.5748L16.6839 30L22.2817 26.763L20.3075 23.3378C19.9616 22.737 20.4797 22.0065 21.1602 22.1378L24.9417 22.8683L26.1658 16.5113L22.3835 15.7808C16.2654 14.5988 11.5953 21.1688 14.7097 26.5748H14.7112Z" fill="#C85D1B"/>
<path d="M122.117 22.6147V16.2397C122.117 15.3562 122.32 14.5635 122.726 13.8622C123.146 13.1467 123.741 12.5858 124.512 12.1785C125.282 11.772 126.199 11.5687 127.263 11.5687C127.759 11.5639 128.254 11.6275 128.733 11.7577C129.182 11.8702 129.588 12.0315 129.951 12.2415C130.329 12.438 130.651 12.6765 130.918 12.957H130.96C131.245 12.6725 131.571 12.4314 131.926 12.2415C132.316 12.0264 132.733 11.8637 133.165 11.7577C133.652 11.6284 134.153 11.5649 134.657 11.5687C135.721 11.5687 136.638 11.7713 137.408 12.1785C138.178 12.5858 138.773 13.146 139.193 13.8622C139.614 14.5635 139.823 15.3555 139.823 16.2397V22.6147H136.546V16.3447C136.546 15.9945 136.456 15.6787 136.274 15.3982C136.107 15.1049 135.868 14.8587 135.581 14.6827C135.277 14.4978 134.927 14.4028 134.572 14.409C134.194 14.409 133.851 14.5005 133.544 14.6827C133.256 14.8585 133.017 15.1047 132.85 15.3982C132.68 15.6843 132.593 16.0119 132.598 16.3447V22.6147H129.343V16.3447C129.343 15.9945 129.251 15.6787 129.069 15.3982C128.899 15.1006 128.652 14.8537 128.355 14.6827C128.052 14.4978 127.702 14.4028 127.347 14.409C126.969 14.409 126.626 14.5005 126.318 14.6827C126.03 14.8585 125.792 15.1047 125.625 15.3982C125.455 15.6845 125.368 16.012 125.373 16.3447V22.6147H122.117ZM114.997 22.8675C113.891 22.8675 112.931 22.6575 112.12 22.236C111.322 21.801 110.706 21.219 110.271 20.49C109.837 19.7467 109.62 18.9255 109.62 18.0278V11.8207H112.876V17.9437C112.876 18.3225 112.966 18.6735 113.148 18.996C113.33 19.3042 113.576 19.557 113.884 19.7535C114.206 19.9357 114.57 20.0272 114.976 20.0272C115.368 20.0272 115.718 19.9357 116.026 19.7535C116.348 19.557 116.601 19.3042 116.782 18.996C116.964 18.6735 117.056 18.3225 117.056 17.9437V11.8207H120.311V18.0278C120.311 18.9255 120.101 19.7467 119.681 20.49C119.261 21.219 118.652 21.8017 117.854 22.236C117.069 22.6567 116.117 22.8675 114.997 22.8675ZM99.1335 22.6147V20.0272H104.322C104.462 20.0272 104.587 19.9987 104.7 19.9425C104.811 19.8727 104.903 19.7812 104.972 19.6695C105.041 19.559 105.077 19.4314 105.077 19.3012C105.077 19.1711 105.041 19.0435 104.972 18.933C104.907 18.8248 104.812 18.7373 104.7 18.6802C104.586 18.6098 104.455 18.5734 104.322 18.5752H102.431C101.731 18.5752 101.093 18.4627 100.52 18.2385C99.9751 18.0124 99.5079 17.6322 99.1754 17.1442C98.8534 16.6395 98.6925 15.987 98.6925 15.1875C98.6925 14.5702 98.8392 14.0092 99.1335 13.5045C99.4395 13.0013 99.8652 12.5818 100.372 12.2835C100.902 11.9757 101.504 11.8159 102.116 11.8207H107.304V14.43H102.62C102.434 14.4263 102.254 14.4942 102.116 14.6197C102.055 14.6799 102.006 14.7519 101.974 14.8315C101.941 14.9111 101.925 14.9965 101.927 15.0825C101.927 15.279 101.99 15.447 102.116 15.5872C102.254 15.7128 102.434 15.7807 102.62 15.777H104.468C105.252 15.777 105.925 15.8962 106.485 16.134C107.059 16.359 107.5 16.7235 107.808 17.229C108.13 17.7337 108.291 18.3855 108.291 19.185C108.291 19.8165 108.13 20.3917 107.808 20.91C107.503 21.4266 107.068 21.8546 106.547 22.152C106.029 22.461 105.442 22.6147 104.784 22.6147H99.1335ZM92.0406 11.5687C92.951 11.5687 93.7558 11.7157 94.4558 12.0105C95.1434 12.2731 95.7615 12.6906 96.2623 13.2308C96.7728 13.76 97.1664 14.3909 97.4175 15.0825C97.6833 15.7837 97.8166 16.5623 97.8166 17.418C97.8166 18.4837 97.5927 19.431 97.1443 20.2582C96.73 21.0511 96.1051 21.7137 95.3385 22.173C94.5681 22.6357 93.672 22.8675 92.65 22.8675C92.2158 22.8675 91.8025 22.8112 91.4102 22.6995C91.0387 22.5901 90.6851 22.4268 90.3606 22.215C90.0547 22.0071 89.791 21.7429 89.5835 21.4365H89.5199V27.1815H86.2647V17.4172C86.2647 16.2247 86.5028 15.1935 86.9789 14.3243C87.4405 13.4686 88.1411 12.7665 88.9951 12.3038C89.8635 11.8133 90.8787 11.568 92.0406 11.568V11.5687ZM92.0406 14.388C91.5368 14.388 91.0958 14.514 90.7177 14.7667C90.3531 15.0052 90.0731 15.342 89.877 15.777C89.6816 16.197 89.5835 16.6747 89.5835 17.2072C89.5835 17.7405 89.6816 18.2175 89.877 18.6382C90.0731 19.059 90.3531 19.3957 90.7177 19.6485C91.0958 19.887 91.5368 20.0062 92.0406 20.0062C92.5445 20.0062 92.9787 19.8862 93.3425 19.6485C93.7087 19.394 93.9992 19.0449 94.1833 18.6382C94.3929 18.2175 94.4977 17.7405 94.4977 17.2072C94.4977 16.6747 94.3929 16.1977 94.1833 15.777C93.9871 15.342 93.7071 15.0045 93.3425 14.7667C92.9787 14.514 92.5445 14.388 92.0406 14.388ZM81.3175 22.6147V11.8207H84.5944V22.6147H81.3175ZM82.9556 10.6005C82.4375 10.6005 81.9898 10.4115 81.6117 10.0327C81.2337 9.654 81.0443 9.20475 81.0443 8.68575C81.0443 8.16675 81.2337 7.71825 81.6117 7.3395C81.9898 6.9465 82.4375 6.75 82.9556 6.75C83.4737 6.75 83.9221 6.9465 84.3002 7.3395C84.6783 7.71825 84.8669 8.16675 84.8669 8.68575C84.8669 9.20475 84.6783 9.65325 84.3002 10.0327C83.9221 10.4115 83.4737 10.6005 82.9556 10.6005ZM74.1962 22.8675C73.0905 22.8675 72.0962 22.6222 71.2136 22.131C70.3477 21.6555 69.6231 20.9586 69.1136 20.1112C68.6097 19.2555 68.3574 18.2947 68.3574 17.2282C68.3574 16.1482 68.6097 15.1875 69.1136 14.346C69.6231 13.4987 70.3477 12.8017 71.2136 12.3262C72.0962 11.8207 73.0905 11.5687 74.1962 11.5687C75.3028 11.5687 76.2895 11.8207 77.1579 12.3262C78.0208 12.7984 78.7394 13.4965 79.237 14.346C79.7551 15.1875 80.0141 16.1482 80.0141 17.2282C80.0141 18.2947 79.7551 19.2555 79.237 20.1112C78.7394 20.9607 78.0208 21.6588 77.1579 22.131C76.276 22.6222 75.2885 22.8675 74.1962 22.8675ZM74.1962 20.0272C74.7143 20.0272 75.1628 19.9005 75.5408 19.6485C75.919 19.396 76.2234 19.0474 76.4228 18.6382C76.6331 18.2175 76.7379 17.7405 76.7379 17.2072C76.7379 16.6882 76.6331 16.2187 76.4228 15.7972C76.2233 15.3884 75.9189 15.04 75.5408 14.7877C75.1628 14.535 74.7143 14.409 74.1962 14.409C73.6782 14.409 73.223 14.535 72.8314 14.7877C72.4531 15.0402 72.1485 15.3889 71.9487 15.798C71.7348 16.2367 71.6271 16.7198 71.6343 17.208C71.6343 17.7405 71.7391 18.2175 71.9487 18.6382C72.1485 19.0473 72.4531 19.396 72.8314 19.6485C73.223 19.9005 73.6782 20.0272 74.1962 20.0272ZM57.7773 26.8867V24.0877H63.1535C63.3638 24.0877 63.539 24.018 63.679 23.8777C63.7473 23.8173 63.8014 23.7426 63.8376 23.6589C63.8739 23.5751 63.8913 23.4845 63.8886 23.3932V21.0157H63.8257C63.5598 21.3256 63.2565 21.6012 62.9229 21.8362C62.6144 22.0612 62.264 22.2292 61.8725 22.3417C61.4558 22.4591 61.0243 22.5156 60.5915 22.5097C59.6392 22.5097 58.785 22.2847 58.0289 21.8362C57.2869 21.3735 56.6985 20.7352 56.2642 19.9215C55.845 19.1085 55.6346 18.1822 55.6346 17.1442C55.6346 16.1205 55.8517 15.1875 56.286 14.346C56.7337 13.5045 57.385 12.831 58.2392 12.3262C59.0927 11.8207 60.1363 11.5687 61.3686 11.5687C62.5448 11.5687 63.56 11.814 64.4142 12.3052C65.272 12.7717 65.9733 13.4813 66.4303 14.3453C66.9065 15.2153 67.1446 16.2397 67.1446 17.418V23.73C67.1446 24.6975 66.8578 25.4625 66.2836 26.0235C65.7236 26.5987 64.9465 26.886 63.9523 26.886L57.7773 26.8867ZM61.3896 19.7745C61.8934 19.7745 62.3277 19.662 62.6923 19.4377C63.052 19.2037 63.342 18.8767 63.5315 18.4913C63.7307 18.0855 63.8315 17.6384 63.8257 17.1862C63.8257 16.6815 63.7284 16.2187 63.5323 15.798C63.3361 15.3772 63.0561 15.0472 62.6915 14.8088C62.3277 14.556 61.8934 14.43 61.3889 14.43C60.8992 14.43 60.465 14.5492 60.0869 14.7877C59.7231 15.0262 59.4431 15.3487 59.2469 15.7552C59.0515 16.1625 58.9535 16.6177 58.9535 17.1232C58.9535 17.6145 59.0508 18.063 59.2469 18.4703C59.4431 18.8625 59.7231 19.1782 60.0877 19.4167C60.465 19.6552 60.8992 19.7745 61.3896 19.7745ZM49.0172 22.8675C47.9114 22.8675 46.9172 22.6222 46.0353 22.131C45.1691 21.6557 44.4442 20.9587 43.9345 20.1112C43.4307 19.2555 43.1784 18.2947 43.1784 17.2282C43.1784 16.1482 43.4307 15.1875 43.9345 14.346C44.4442 13.4985 45.1691 12.8016 46.0353 12.3262C46.9172 11.8207 47.9114 11.5687 49.0172 11.5687C50.1237 11.5687 51.1105 11.8207 51.9789 12.3262C52.8417 12.7985 53.5603 13.4966 54.0579 14.346C54.576 15.1875 54.8351 16.1482 54.8351 17.2282C54.8351 18.2947 54.576 19.2555 54.0579 20.1112C53.5603 20.9607 52.8417 21.6587 51.9789 22.131C51.097 22.6222 50.1095 22.8675 49.0172 22.8675ZM49.0172 20.0272C49.5353 20.0272 49.983 19.9005 50.3618 19.6485C50.7398 19.3959 51.0441 19.0472 51.2437 18.6382C51.4533 18.2175 51.5582 17.7405 51.5582 17.2072C51.5582 16.6882 51.4533 16.2187 51.2437 15.7972C51.0441 15.3885 50.7397 15.0402 50.3618 14.7877C49.9837 14.535 49.5353 14.409 49.0172 14.409C48.4991 14.409 48.0439 14.535 47.6524 14.7877C47.274 15.0402 46.9694 15.3889 46.7697 15.798C46.5558 16.2367 46.4481 16.7198 46.4553 17.208C46.4553 17.7405 46.5601 18.2175 46.7697 18.6382C46.9695 19.0473 47.2741 19.396 47.6524 19.6485C48.0439 19.9005 48.4991 20.0272 49.0172 20.0272ZM38.5913 22.6147C37.6809 22.6147 36.8829 22.4122 36.1971 22.005C35.5301 21.6176 34.9789 21.0582 34.6009 20.385C34.2229 19.7115 34.0334 18.9675 34.0334 18.1545V7.88625H37.5619V18.4065C37.5619 18.744 37.6817 19.038 37.919 19.2907C38.1571 19.5427 38.4506 19.6695 38.8009 19.6695H42.6865V22.6147H38.5913Z" fill="#14424C"/>
</g>
<defs>
<clipPath id="clip0_2153_83">
<rect width="140" height="30" fill="white"/>
</clipPath>
</defs>
</svg>
