<svg width="48" height="48" viewBox="0 0 48 48" fill="none" xmlns="http://www.w3.org/2000/svg">
<rect width="48" height="48" fill="#AD2430"/>
<path d="M29.0613 32.9388C29.3431 33.2206 29.5014 33.6027 29.5014 34.0013C29.5014 34.3998 29.3431 34.782 29.0613 35.0638C28.7795 35.3456 28.3973 35.5039 27.9988 35.5039C27.6003 35.5039 27.2181 35.3456 26.9363 35.0638L16.9363 25.0638C16.7965 24.9244 16.6855 24.7588 16.6098 24.5765C16.5341 24.3942 16.4951 24.1987 16.4951 24.0013C16.4951 23.8038 16.5341 23.6084 16.6098 23.426C16.6855 23.2437 16.7965 23.0781 16.9363 22.9388L26.9363 12.9388C27.2181 12.657 27.6003 12.4987 27.9988 12.4987C28.3973 12.4987 28.7795 12.657 29.0613 12.9388C29.3431 13.2206 29.5014 13.6027 29.5014 14.0013C29.5014 14.3998 29.3431 14.782 29.0613 15.0638L20.125 24L29.0613 32.9388Z" fill="white"/>
</svg>
