<svg width="121" height="22" viewBox="0 0 121 22" fill="none" xmlns="http://www.w3.org/2000/svg">
<g clip-path="url(#clip0_2153_112)">
<path d="M29.1652 0.934753H32.1862V16.9134H37.157V19.5766H29.1652V0.934753Z" fill="#726BEA"/>
<path d="M42.8652 19.8428C41.3822 19.8428 40.247 19.4345 39.4597 18.6178C38.6724 17.8011 38.2788 16.6471 38.2788 15.1558V5.35554C38.2788 3.86419 38.6724 2.71018 39.4597 1.89349C40.247 1.0768 41.3822 0.668457 42.8652 0.668457C44.3482 0.668457 45.4833 1.0768 46.2706 1.89349C47.0579 2.71018 47.4515 3.86419 47.4515 5.35554V15.1558C47.4515 16.6471 47.0579 17.8011 46.2706 18.6178C45.4833 19.4345 44.3482 19.8428 42.8652 19.8428ZM42.8652 17.1798C43.9088 17.1798 44.4306 16.5672 44.4306 15.3422V5.16911C44.4306 3.94408 43.9088 3.33157 42.8652 3.33157C41.8215 3.33157 41.2997 3.94408 41.2997 5.16911V15.3422C41.2997 16.5672 41.8215 17.1798 42.8652 17.1798Z" fill="#726BEA"/>
<path d="M53.7788 19.8428C52.3141 19.8428 51.1973 19.4434 50.4283 18.6444C49.6593 17.8278 49.2748 16.6649 49.2748 15.1558V5.35554C49.2748 3.84644 49.6593 2.69242 50.4283 1.89349C51.1973 1.0768 52.3141 0.668457 53.7788 0.668457C55.2435 0.668457 56.3604 1.0768 57.1293 1.89349C57.8984 2.69242 58.2828 3.84644 58.2828 5.35554V6.9534H55.4266V5.16911C55.4266 3.94408 54.9048 3.33157 53.8612 3.33157C52.8176 3.33157 52.2958 3.94408 52.2958 5.16911V15.3689C52.2958 16.5761 52.8176 17.1798 53.8612 17.1798C54.9048 17.1798 55.4266 16.5761 55.4266 15.3689V11.7204H53.9162V9.05728H58.2828V15.1558C58.2828 16.6649 57.8984 17.8278 57.1293 18.6444C56.3604 19.4434 55.2435 19.8428 53.7788 19.8428Z" fill="#726BEA"/>
<path d="M64.589 19.8428C63.106 19.8428 61.9709 19.4345 61.1836 18.6178C60.3963 17.8011 60.0027 16.6471 60.0027 15.1558V5.35554C60.0027 3.86419 60.3963 2.71018 61.1836 1.89349C61.9709 1.0768 63.106 0.668457 64.589 0.668457C66.0721 0.668457 67.2073 1.0768 67.9945 1.89349C68.7818 2.71018 69.1755 3.86419 69.1755 5.35554V15.1558C69.1755 16.6471 68.7818 17.8011 67.9945 18.6178C67.2073 19.4345 66.0721 19.8428 64.589 19.8428ZM64.589 17.1798C65.6327 17.1798 66.1545 16.5672 66.1545 15.3422V5.16911C66.1545 3.94408 65.6327 3.33157 64.589 3.33157C63.5455 3.33157 63.0237 3.94408 63.0237 5.16911V15.3422C63.0237 16.5672 63.5455 17.1798 64.589 17.1798Z" fill="#726BEA"/>
<path d="M71.2242 0.934753H74.2452V19.5766H71.2242V0.934753Z" fill="#4F46E5"/>
<path d="M76.5076 0.934753H80.9566C82.4577 0.934753 83.5838 1.32534 84.3348 2.10652C85.0857 2.8877 85.4608 4.03284 85.4608 5.54193V7.37947C85.4608 8.8886 85.0857 10.0337 84.3348 10.8149C83.5838 11.5961 82.4577 11.9866 80.9566 11.9866H79.5288V19.5766H76.5076V0.934753ZM80.9566 9.32354C81.4512 9.32354 81.8172 9.19036 82.0554 8.92409C82.3118 8.65774 82.4396 8.20506 82.4396 7.56588V5.35552C82.4396 4.71637 82.3118 4.26364 82.0554 3.99733C81.8172 3.73102 81.4512 3.59787 80.9566 3.59787H79.5288V9.32354H80.9566Z" fill="#4F46E5"/>
<path d="M91.1357 19.8428C89.6716 19.8428 88.5637 19.4434 87.8127 18.6444C87.0625 17.8278 86.6866 16.6649 86.6866 15.1558V14.0905H89.543V15.3689C89.543 16.5761 90.0648 17.1798 91.1084 17.1798C91.6212 17.1798 92.0054 17.0377 92.2617 16.7537C92.5362 16.4518 92.6739 15.9725 92.6739 15.3155C92.6739 14.5344 92.4909 13.8509 92.1248 13.265C91.7588 12.6613 91.0812 11.9423 90.092 11.1078C88.8473 10.0426 87.9776 9.0839 87.483 8.23169C86.9891 7.36174 86.7419 6.38527 86.7419 5.30227C86.7419 3.82868 87.126 2.69242 87.8951 1.89349C88.6642 1.0768 89.7812 0.668457 91.2461 0.668457C92.692 0.668457 93.7818 1.0768 94.5138 1.89349C95.2648 2.69242 95.6399 3.84644 95.6399 5.35554V6.12784H92.7835V5.16911C92.7835 4.52997 92.6557 4.06836 92.3994 3.7843C92.143 3.48248 91.7679 3.33157 91.2733 3.33157C90.266 3.33157 89.7631 3.92633 89.7631 5.11585C89.7631 5.7905 89.9461 6.42077 90.3121 7.00666C90.6963 7.59252 91.383 8.30268 92.3721 9.13714C93.6351 10.2024 94.5048 11.17 94.9812 12.04C95.4569 12.9099 95.6951 13.9307 95.6951 15.1025C95.6951 16.6294 95.3011 17.8011 94.5138 18.6178C93.7447 19.4345 92.6187 19.8428 91.1357 19.8428Z" fill="#4F46E5"/>
<path d="M101.821 19.8428C100.357 19.8428 99.2396 19.4434 98.4705 18.6444C97.7014 17.8278 97.3173 16.6649 97.3173 15.1557V0.934753H100.338V15.3688C100.338 16.0079 100.466 16.4696 100.723 16.7537C100.997 17.0377 101.382 17.1797 101.876 17.1797C102.371 17.1797 102.746 17.0377 103.002 16.7537C103.277 16.4696 103.414 16.0079 103.414 15.3688V0.934753H106.325V15.1557C106.325 16.6649 105.941 17.8278 105.172 18.6444C104.403 19.4434 103.286 19.8428 101.821 19.8428Z" fill="#4F46E5"/>
<path d="M108.477 0.934753H112.789L114.711 14.2769H114.765L116.689 0.934753H121V19.5766H118.144V5.46205H118.089L115.892 19.5766H113.365L111.168 5.46205H111.114V19.5766H108.477V0.934753Z" fill="#4F46E5"/>
<path d="M0 19.5765C3.71658 19.5765 6.72942 16.6549 6.72942 13.051C6.72942 9.44708 3.71658 6.52551 0 6.52551V11.0933C1.11496 11.0933 2.01882 11.9698 2.01882 13.051C2.01882 14.1322 1.11496 15.0087 0 15.0087V19.5765Z" fill="#726BEA"/>
<path d="M22.4314 8.7007C21.2815 8.34745 20.0569 8.15686 18.7863 8.15686C12.1274 8.15686 6.72943 13.3914 6.72943 19.8484C6.72943 20.4965 6.78382 21.1323 6.88838 21.7517H14.3797C14.1123 21.1703 13.9636 20.5262 13.9636 19.8484C13.9636 17.2656 16.1228 15.1718 18.7863 15.1718C20.2421 15.1718 21.5471 15.7972 22.4314 16.7861V8.7007Z" fill="#A5B4FC"/>
<path d="M1.18317 0C1.74108 4.89408 6.01998 8.70071 11.2157 8.70071C16.4114 8.70071 20.6903 4.89408 21.2482 0H14.0294C13.5838 1.08335 12.4919 1.84889 11.2157 1.84889C9.93948 1.84889 8.84768 1.08335 8.40194 0H1.18317Z" fill="#4F46E5"/>
</g>
<defs>
<clipPath id="clip0_2153_112">
<rect width="121" height="22" fill="white"/>
</clipPath>
</defs>
</svg>
