<svg width="58" height="22" viewBox="0 0 58 22" fill="none" xmlns="http://www.w3.org/2000/svg">
<g clip-path="url(#clip0_2153_109)">
<path d="M13.7673 0C11.5023 0 9.33004 0.88737 7.72843 2.4669L2.50141 7.62183C0.899781 9.20135 0 11.3436 0 13.5774C0 18.2291 3.82364 22 8.54035 22C10.8054 22 12.9776 21.1126 14.5793 19.5331L18.1948 15.9674C18.1948 15.9673 18.1949 15.9675 18.1948 15.9674L28.7293 5.57817C29.4943 4.8238 30.5317 4.4 31.6135 4.4C33.4246 4.4 34.96 5.5641 35.4924 7.17498L38.817 3.89617C37.3003 1.55345 34.6409 0 31.6135 0C29.3484 0 27.1762 0.88737 25.5746 2.4669L11.4245 16.4218C10.6596 17.1762 9.62212 17.6 8.54035 17.6C6.28768 17.6 4.46154 15.7991 4.46154 13.5774C4.46154 12.5106 4.89127 11.4874 5.65619 10.7331L10.8832 5.57817C11.6481 4.8238 12.6856 4.4 13.7673 4.4C15.5785 4.4 17.1139 5.56415 17.6462 7.17509L20.9709 3.89625C19.4542 1.55349 16.7948 0 13.7673 0Z" fill="#394149"/>
<path d="M29.2707 16.4218C28.5057 17.1762 27.4683 17.6 26.3865 17.6C24.5757 17.6 23.0404 16.4362 22.5079 14.8256L19.1833 18.1043C20.7001 20.4467 23.3594 22 26.3865 22C28.6516 22 30.8238 21.1126 32.4254 19.5331L46.5755 5.57817C47.3404 4.8238 48.3779 4.4 49.4597 4.4C51.7124 4.4 53.5385 6.20095 53.5385 8.42255C53.5385 9.48941 53.1088 10.5126 52.3438 11.2669L47.1168 16.4218C46.3519 17.1762 45.3144 17.6 44.2327 17.6C42.4217 17.6 40.8863 16.436 40.3539 14.8252L37.0293 18.104C38.546 20.4467 41.2054 22 44.2327 22C46.4977 22 48.67 21.1126 50.2716 19.5331L55.4986 14.3782C57.1002 12.7986 58 10.6564 58 8.42255C58 3.7709 54.1764 0 49.4597 0C47.1946 0 45.0224 0.88737 43.4207 2.4669L29.2707 16.4218Z" fill="#394149"/>
</g>
<defs>
<clipPath id="clip0_2153_109">
<rect width="58" height="22" fill="white"/>
</clipPath>
</defs>
</svg>
