<svg width="117" height="45" viewBox="0 0 117 45" fill="none" xmlns="http://www.w3.org/2000/svg">
<g clip-path="url(#clip0_2160_499)">
<path d="M40.9819 0H3.06098C1.37045 0 0 1.36069 0 3.03919V40.6902C0 42.3687 1.37045 43.7294 3.06098 43.7294H40.9819C42.6725 43.7294 44.0429 42.3687 44.0429 40.6902V3.03919C44.0429 1.36069 42.6725 0 40.9819 0Z" fill="white"/>
<path d="M16.1589 32.5784L40.7177 0H3.06098C1.37022 0 0 1.36047 0 3.03919V15.2033L16.1589 32.5784Z" fill="#AD2430"/>
<path d="M44.043 14.2339L20.1155 43.7294H40.982C42.6728 43.7294 44.043 42.3689 44.043 40.6902V14.2339Z" fill="#EFA947"/>
<path d="M0 31.8035V40.6903C0 42.369 1.37022 43.7294 3.06098 43.7294H12.4177L0 31.8035Z" fill="#292C78"/>
<path d="M11.3949 17.3849H9.25638C9.19032 17.1225 9.14627 16.5856 9.12425 16.2673C8.65691 17.3266 7.70754 17.6108 6.79242 17.6108C4.48996 17.6108 3.84399 15.8641 3.84399 13.4006V6.30433C3.84399 3.99153 4.78358 2.07715 7.60232 2.07715C11.0083 2.07715 11.3509 4.60374 11.3509 6.12455V6.80236H8.48807V5.9715C8.48807 5.24024 8.39999 4.56244 7.61211 4.56244C6.96125 4.56244 6.72146 5.04832 6.72146 6.0298V13.7602C6.72146 14.7878 7.04689 15.162 7.61211 15.162C8.30456 15.162 8.53946 14.6129 8.53946 13.3739V11.2117H7.24509V8.76532H11.3925V17.3824L11.3949 17.3849Z" fill="white"/>
<path d="M14.9429 11.4523V13.7821C14.9429 14.7733 15.19 15.2349 15.858 15.2349C16.5259 15.2349 16.6899 14.5522 16.6899 13.8404C16.6899 12.4168 16.4207 12.0038 14.8694 10.7162C13.1591 9.27798 12.2783 8.42525 12.2783 6.20234C12.2783 3.97943 12.9976 2.06262 15.8751 2.06262C18.9312 2.06262 19.3814 4.13248 19.3814 5.85736V7.36846H16.6238V5.82335C16.6238 4.90746 16.4721 4.45559 15.8947 4.45559C15.3564 4.45559 15.1826 4.91718 15.1826 5.76991C15.1826 6.67851 15.349 7.12552 16.6042 8.09971C18.8382 9.8416 19.6408 10.8207 19.6408 13.3035C19.6408 15.7864 18.8284 17.6109 15.8115 17.6109C12.7945 17.6109 12.0874 15.8763 12.0874 13.6412V11.4523H14.9477H14.9429Z" fill="white"/>
<path d="M23.1691 14.8486V2.3031H20.2451V17.3849H25.9658V14.8486H23.1691Z" fill="white"/>
<path d="M51.2978 13.6485C52.1004 13.6485 52.8198 13.3618 53.1648 12.5431C53.1819 12.8055 53.2186 13.2525 53.27 13.4687H54.7625V6.56918H51.7578V8.20418H52.8442V10.0044C52.8442 11.2725 52.6411 11.9625 51.8117 11.9625C51.1192 11.9625 50.8305 11.4474 50.8305 10.4587V4.14949C50.8305 3.16558 51.129 2.68455 51.8264 2.68455C52.7023 2.68455 52.7977 3.43524 52.7977 4.08632V4.57949H54.7136V4.17864C54.7136 2.85461 54.4396 0.949951 51.8288 0.949951C49.6707 0.949951 48.8804 2.43189 48.8804 4.4483V10.2425C48.8804 12.3317 49.4701 13.6461 51.2978 13.6461V13.6485Z" fill="black"/>
<path d="M58.9073 13.6144C61.3713 13.6144 61.5866 11.6466 61.5866 10.6433V10.5995H59.7197V10.6457C59.7197 11.3332 59.6267 12.011 58.8633 12.011C58.0999 12.011 57.9653 11.3356 57.9653 10.5971V9.19291H61.6233V7.0283C61.6233 5.13822 60.9553 3.76074 58.9 3.76074C56.5143 3.76074 56.0984 5.73342 56.0984 7.04045V10.172C56.0984 12.1033 56.4581 13.612 58.9098 13.612L58.9073 13.6144ZM57.98 6.72948C57.98 5.80145 58.2785 5.36658 58.8951 5.36658C59.5827 5.36658 59.7882 5.84518 59.7882 6.72705V7.70611H57.98V6.72948Z" fill="black"/>
<path d="M61.643 0.425171H59.5093L57.8259 2.90074H59.4629L61.643 0.425171Z" fill="black"/>
<path d="M62.9031 13.4687H64.819V7.12549C64.819 5.82818 65.1102 5.46863 65.7904 5.46863C66.3189 5.46863 66.6174 5.77231 66.6174 6.63475V13.4687H68.5333V6.2752C68.5333 4.47014 67.7258 3.76318 66.5562 3.76318C65.5775 3.76318 65.0612 4.22477 64.7823 4.78111C64.7823 4.50658 64.748 4.13002 64.7113 3.91138H62.8811C62.9007 4.34381 62.9007 4.91715 62.9007 6.86068V13.4687H62.9031Z" fill="black"/>
<path d="M72.6854 13.6144C75.1494 13.6144 75.3647 11.6466 75.3647 10.6433V10.5995H73.4978V10.6457C73.4978 11.3332 73.4023 12.011 72.6414 12.011C71.8804 12.011 71.741 11.3356 71.741 10.5971V9.19291H75.399V7.0283C75.399 5.13822 74.731 3.76074 72.6756 3.76074C70.29 3.76074 69.874 5.73342 69.874 7.04045V10.172C69.874 12.1033 70.2337 13.612 72.6854 13.612V13.6144ZM71.7581 6.72948C71.7581 5.80145 72.0566 5.36658 72.6732 5.36658C73.3608 5.36658 73.5663 5.84518 73.5663 6.72705V7.70611H71.7581V6.72948Z" fill="black"/>
<path d="M75.4235 0.425171H73.2874L71.6064 2.90074H73.2409L75.4235 0.425171Z" fill="black"/>
<path d="M76.6836 7.14981V13.4687H78.5995V8.34994C78.5995 6.39183 79.5562 6.11488 80.6548 6.11245V3.76807C79.7617 3.77293 78.9151 4.16649 78.5334 5.45894C78.5334 4.94633 78.4992 4.09604 78.4796 3.9114H76.6641C76.6983 4.88803 76.6836 5.5634 76.6836 7.14981Z" fill="black"/>
<path d="M83.1947 13.6145C83.9361 13.6145 84.4548 13.3496 84.7827 12.7666C84.7998 12.9026 84.8659 13.2889 84.905 13.4663H86.6545C86.6202 13.1018 86.6178 12.1106 86.6178 11.5106V6.32378C86.6178 4.78111 85.9669 3.76318 84.1098 3.76318C81.9957 3.76318 81.4599 4.98761 81.4599 6.37237V6.49627H83.3439V6.34079C83.3439 5.74801 83.4761 5.30829 84.0437 5.30829C84.6114 5.30829 84.7166 5.72858 84.7166 6.47684V7.6964H84.4964C82.7616 7.6964 81.1638 8.32319 81.1638 10.6773V10.8425C81.1638 12.2856 81.7486 13.6169 83.1947 13.6169V13.6145ZM82.9843 10.6554C82.9843 9.46501 83.5593 9.13461 84.4328 9.13461H84.7509V10.2303C84.7509 11.5179 84.467 11.96 83.826 11.96C83.2289 11.96 82.9818 11.4814 82.9818 10.806V10.6554H82.9843Z" fill="black"/>
<path d="M90.1656 0.595215H88.2498V13.4662H90.1656V0.595215Z" fill="black"/>
<path d="M51.4079 27.739C53.7251 27.739 54.3441 26.0797 54.3441 24.3305C54.3441 22.2679 53.774 21.4735 51.9144 20.1082C50.8232 19.3162 50.6568 18.8886 50.6568 18.0165C50.6568 17.1978 50.8207 16.6609 51.4446 16.6609C52.0686 16.6609 52.2276 17.1808 52.2276 18.0383V18.6457H54.1264V17.9873C54.1264 16.6487 53.7716 15.0259 51.4789 15.0234C49.2376 15.0234 48.7409 16.6609 48.7409 18.2861C48.7409 20.1131 49.4554 20.7811 50.7913 21.8306C52.1224 22.8753 52.4111 23.2859 52.4111 24.6123C52.4111 25.414 52.2178 26.1161 51.4716 26.1161C50.7253 26.1161 50.4659 25.606 50.4659 24.6876V23.9248H48.55V24.6561C48.55 26.2813 49.1104 27.7341 51.4079 27.7341V27.739Z" fill="black"/>
<path d="M60.9357 24.6926H59.0688V24.7387C59.0688 25.4262 58.9758 26.104 58.2124 26.104C57.449 26.104 57.3144 25.4287 57.3144 24.6901V23.2859H60.9724V21.1213C60.9724 19.2312 60.3045 17.8538 58.2491 17.8538C55.8635 17.8538 55.4475 19.8264 55.4475 21.1335V24.265C55.4475 26.1964 55.8072 27.705 58.2589 27.705C60.7106 27.705 60.9382 25.7372 60.9382 24.7339V24.6901L60.9357 24.6926ZM57.3267 20.8201C57.3267 19.892 57.6252 19.4572 58.2418 19.4572C58.9293 19.4572 59.1349 19.9358 59.1349 20.8176V21.7967H57.3267V20.8201Z" fill="black"/>
<path d="M62.2522 21.2404V27.5593H64.1681V22.4405C64.1681 20.4824 65.1248 20.2055 66.2234 20.203V17.8586C65.3304 17.8635 64.4838 18.2571 64.102 19.5495C64.102 19.0369 64.0678 18.1866 64.0482 18.002H62.2327C62.2669 18.9786 62.2522 19.654 62.2522 21.2404Z" fill="black"/>
<path d="M68.9076 27.5593H71.0681L73.1357 18.002H71.2174C70.9091 19.9771 70.2338 23.4171 70.0551 25.4432H70.0356C69.786 23.3394 69.2403 19.8775 68.9296 18.002H66.8792L68.9076 27.5593Z" fill="black"/>
<path d="M75.9032 18.002H73.9873V27.5593H75.9032V18.002Z" fill="black"/>
<path d="M75.9203 14.6858H74.0044V16.7192H75.9203V14.6858Z" fill="black"/>
<path d="M79.9721 17.8538C77.7773 17.8538 77.2585 19.4183 77.2585 20.978V24.2577C77.2585 26.2328 77.6623 27.7075 79.8815 27.7075C82.1008 27.7075 82.5608 26.2401 82.5608 24.5152V24.3864H80.6743V24.8407C80.6743 25.6206 80.5446 26.104 79.9305 26.104C79.3163 26.104 79.1744 25.5064 79.1744 24.8432V20.701C79.1744 19.8945 79.3677 19.4572 79.9354 19.4572C80.5569 19.4572 80.6743 19.9503 80.6743 20.684V21.0873H82.5608V20.7302C82.5608 19.5471 82.3284 17.8538 79.9721 17.8538Z" fill="black"/>
<path d="M89.1233 23.2859V21.1213C89.1233 19.2312 88.4553 17.8538 86.4 17.8538C84.0143 17.8538 83.5984 19.8264 83.5984 21.1335V24.265C83.5984 26.1964 83.9581 27.705 86.4098 27.705C88.8615 27.705 89.0891 25.7372 89.0891 24.7339V24.6901H87.2221V24.7363C87.2221 25.4238 87.1267 26.1016 86.3658 26.1016C85.6048 26.1016 85.4653 25.4262 85.4653 24.6877V23.2835H89.1233V23.2859ZM85.4824 20.8201C85.4824 19.892 85.781 19.4572 86.3976 19.4572C87.0851 19.4572 87.2907 19.9358 87.2907 20.8176V21.7967H85.4824V20.8201Z" fill="black"/>
<path d="M92.1402 23.3612C93.3049 24.1071 93.4811 24.5346 93.4811 25.1517C93.4811 25.7688 93.2584 26.104 92.7372 26.104C92.1255 26.104 91.9567 25.5939 91.9567 25.0035V24.5662H90.0212V24.9914C90.0212 26.3567 90.5155 27.705 92.6809 27.705C94.4891 27.705 95.4141 26.7697 95.4141 24.9404C95.4141 23.3758 94.8195 22.698 93.1361 21.6339C92.2601 21.0776 92.079 20.8346 92.079 20.3002C92.079 19.7949 92.2674 19.4547 92.7397 19.4547C93.2119 19.4547 93.4199 19.7268 93.4199 20.3925V20.9828H95.2697V20.6014C95.2697 18.8498 94.5454 17.8538 92.7274 17.8538C91.0514 17.8538 90.1778 18.8401 90.1778 20.4581C90.1778 21.8258 90.8165 22.5182 92.1377 23.3637L92.1402 23.3612Z" fill="black"/>
<path d="M54.897 34.2304L53.7078 37.0193L52.5627 35.2264C53.9231 34.1308 54.3464 33.4335 54.3464 31.9443C54.3464 30.1077 53.5292 29.1675 51.9192 29.1675C50.3092 29.1675 49.4821 30.1805 49.4821 32.0974C49.4821 33.453 49.6681 34.1016 50.2945 35.1293C49.2423 36.0379 48.7358 36.7788 48.7358 38.3847C48.7358 40.4375 49.5873 41.7931 51.4225 41.7931C52.4354 41.7931 53.1622 41.3656 53.7885 40.5177L54.5226 41.6498H56.6636L54.7771 38.6932L56.7149 34.2304H54.897ZM51.9485 30.7053C52.5089 30.7053 52.641 31.1693 52.641 31.9103C52.641 32.8796 52.4306 33.3242 51.7454 33.934C51.3197 33.2246 51.2512 32.7873 51.2512 31.9006C51.2512 31.2495 51.4176 30.7053 51.9485 30.7053ZM51.6892 39.9225C51.0016 39.9225 50.6052 39.3953 50.6052 38.2195C50.6052 37.3522 50.7251 36.893 51.1337 36.4314L52.8269 39.0382C52.5309 39.631 52.2544 39.9225 51.6892 39.9225Z" fill="black"/>
<path d="M62.1078 29.3157H60.1919V41.6498H65.0684L65.2324 39.9492H62.1078V29.3157Z" fill="black"/>
<path d="M68.8074 31.9443C67.1337 31.9443 65.9495 32.8797 65.9495 34.9471V38.7102C65.9495 40.7218 66.8744 41.7956 68.7511 41.7956C70.6278 41.7956 71.5918 40.7461 71.5918 38.6981V35.0248C71.5918 33.0035 70.5495 31.9419 68.8074 31.9419V31.9443ZM69.6735 38.7467C69.6735 39.6431 69.4264 40.1144 68.7853 40.1144C68.1027 40.1144 67.8678 39.5532 67.8678 38.7807V34.9204C67.8678 34.0749 68.1467 33.6328 68.7707 33.6328C69.4729 33.6328 69.6711 34.1697 69.6711 34.9058V38.7515L69.6735 38.7467Z" fill="black"/>
<path d="M76.5932 32.9355C76.4317 32.4132 76.0157 31.9443 75.0052 31.9443C73.1578 31.9443 72.6636 33.5502 72.6636 34.8499V38.46C72.6636 40.0999 73.0477 41.4555 74.8021 41.4555C75.6096 41.4555 76.143 41.1056 76.3876 40.5785V41.6207C76.3876 42.8257 76.2531 43.4306 75.4579 43.4306C74.6626 43.4306 74.5966 42.7771 74.5966 42.5147V42.4734H72.6783V42.5123C72.6783 43.5715 73.0649 45 75.3551 45C78.0955 45 78.3035 43.2338 78.3035 41.1154V34.4782C78.3035 33.47 78.3231 32.6804 78.3402 32.0901H76.6813C76.647 32.248 76.5932 32.644 76.5932 32.9331V32.9355ZM76.3901 37.9717C76.3901 39.1427 76.2506 39.7816 75.4334 39.7816C74.8119 39.7816 74.5819 39.2909 74.5819 38.3191V34.9641C74.5819 34.0385 74.9196 33.6474 75.5313 33.6474C76.3045 33.6474 76.3876 34.3567 76.3876 35.1706V37.9717H76.3901Z" fill="black"/>
<path d="M81.8316 28.7764H79.9158V30.8098H81.8316V28.7764Z" fill="black"/>
<path d="M81.817 32.0925H79.9011V41.6498H81.817V32.0925Z" fill="black"/>
<path d="M86.0892 35.7269C85.2132 35.1706 85.0321 34.9277 85.0321 34.3932C85.0321 33.8879 85.2206 33.5478 85.6928 33.5478C86.165 33.5478 86.373 33.8199 86.373 34.4855V35.0759H88.2228V34.6944C88.2228 32.9428 87.4986 31.9468 85.6806 31.9468C84.0045 31.9468 83.131 32.9331 83.131 34.5511C83.131 35.9189 83.7696 36.6112 85.0909 37.4567C86.2556 38.2025 86.4317 38.6301 86.4317 39.2472C86.4317 39.8642 86.2091 40.1995 85.6879 40.1995C85.0762 40.1995 84.9074 39.6893 84.9074 39.099V38.6617H82.9719V39.0868C82.9719 40.4521 83.4686 41.8005 85.6316 41.8005C87.4398 41.8005 88.3647 40.8651 88.3647 39.0358C88.3647 37.4713 87.7701 36.7935 86.0867 35.7294L86.0892 35.7269Z" fill="black"/>
<path d="M91.7755 29.7968H89.8621V32.0901H88.8394V33.7591H89.8621V39.7501C89.8621 41.4045 90.5693 41.7908 91.7731 41.7908C92.1328 41.7908 92.6173 41.7567 92.9427 41.6013V40.1679C92.8399 40.2044 92.5903 40.2238 92.4215 40.2238C91.8392 40.2238 91.778 39.8618 91.778 39.4099V33.7591H92.9843V32.0901H91.778V29.7968H91.7755Z" fill="black"/>
<path d="M95.8937 32.0925H93.9778V41.6498H95.8937V32.0925Z" fill="black"/>
<path d="M95.9107 28.7764H93.9949V30.8098H95.9107V28.7764Z" fill="black"/>
<path d="M101.012 32.7849C100.851 32.3598 100.455 31.9419 99.5224 31.9419C97.7802 31.9419 97.2468 33.4991 97.2468 35.0928V38.5232C97.2468 40.2092 97.5331 41.7932 99.2899 41.7932C100.119 41.7932 100.672 41.4506 100.964 40.8287V44.8494H102.894V35.1973C102.894 33.7324 102.894 32.6877 102.914 32.0901H101.083C101.049 32.3452 101.03 32.5298 101.012 32.7849ZM100.981 38.2414C100.981 39.4609 100.782 40.0901 100.026 40.0901C99.3854 40.0901 99.1676 39.4925 99.1676 38.6981V34.9082C99.1676 34.1478 99.4 33.6498 100.088 33.6498C100.929 33.6498 100.981 34.3713 100.981 35.2508V38.2414Z" fill="black"/>
<path d="M110.129 32.0925H108.213V38.46C108.213 39.7039 107.91 40.095 107.284 40.095C106.709 40.095 106.454 39.6966 106.454 38.8171V32.0925H104.538V39.3103C104.538 41.3705 105.556 41.798 106.452 41.798C107.24 41.798 107.908 41.5794 108.248 40.7437C108.248 41.0036 108.282 41.4531 108.319 41.6498H110.149C110.129 41.1494 110.129 40.2651 110.129 38.8584V32.0925Z" fill="black"/>
<path d="M117 37.3765V35.2119C117 33.3218 116.332 31.9443 114.277 31.9443C111.891 31.9443 111.475 33.917 111.475 35.224V38.3556C111.475 40.2869 111.835 41.7956 114.287 41.7956C116.738 41.7956 116.966 39.8278 116.966 38.8244V38.7807H115.099V38.8269C115.099 39.5144 115.003 40.1922 114.242 40.1922C113.481 40.1922 113.342 39.5168 113.342 38.7783V37.3741H117V37.3765ZM113.357 34.9106C113.357 33.9826 113.655 33.5477 114.272 33.5477C114.959 33.5477 115.165 34.0263 115.165 34.9082V35.8873H113.357V34.9106Z" fill="black"/>
</g>
<defs>
<clipPath id="clip0_2160_499">
<rect width="117" height="45" fill="white"/>
</clipPath>
</defs>
</svg>
