<svg width="147" height="57" viewBox="0 0 147 57" fill="none" xmlns="http://www.w3.org/2000/svg">
<g clip-path="url(#clip0_2160_24)">
<path d="M51.4901 0H3.84585C1.72185 0 0 1.72355 0 3.84965V51.541C0 53.6671 1.72185 55.3906 3.84585 55.3906H51.4901C53.6141 55.3906 55.336 53.6671 55.336 51.541V3.84965C55.336 1.72355 53.6141 0 51.4901 0Z" fill="white"/>
<path d="M20.3022 41.266L51.1581 0H3.84585C1.72156 0 0 1.72326 0 3.84965V19.2575L20.3022 41.266Z" fill="#AD2430"/>
<path d="M55.3358 18.0297L25.2729 55.3906H51.4899C53.6142 55.3906 55.3358 53.6674 55.3358 51.541V18.0297Z" fill="#EFA947"/>
<path d="M0 40.2843V51.5409C0 53.6673 1.72156 55.3905 3.84585 55.3905H15.6017L0 40.2843Z" fill="#292C78"/>
<path d="M14.3166 22.0209H11.6298C11.5468 21.6885 11.4914 21.0085 11.4638 20.6054C10.8766 21.947 9.68378 22.3071 8.53403 22.3071C5.64118 22.3071 4.82959 20.0945 4.82959 16.9742V7.98553C4.82959 5.05598 6.01009 2.6311 9.55159 2.6311C13.8309 2.6311 14.2613 5.83145 14.2613 7.75781V8.61636H10.6645V7.56394C10.6645 6.63769 10.5538 5.77914 9.56389 5.77914C8.74615 5.77914 8.44487 6.39459 8.44487 7.6378V17.4296C8.44487 18.7313 8.85374 19.2052 9.56389 19.2052C10.4339 19.2052 10.729 18.5097 10.729 16.9403V14.2016H9.10276V11.1028H14.3136V22.0178L14.3166 22.0209Z" fill="white"/>
<path d="M18.7741 14.5061V17.4572C18.7741 18.7127 19.0846 19.2974 19.9239 19.2974C20.7632 19.2974 20.9691 18.4327 20.9691 17.5311C20.9691 15.7278 20.631 15.2047 18.6819 13.5737C16.533 11.752 15.4263 10.6719 15.4263 7.85619C15.4263 5.0405 16.3301 2.61255 19.9454 2.61255C23.7851 2.61255 24.3508 5.23437 24.3508 7.41922V9.33327H20.8861V7.37614C20.8861 6.21601 20.6955 5.64365 19.97 5.64365C19.2937 5.64365 19.0754 6.22832 19.0754 7.30844C19.0754 8.45933 19.2845 9.02555 20.8615 10.2595C23.6683 12.4659 24.6766 13.7061 24.6766 16.851C24.6766 19.996 23.656 22.307 19.8655 22.307C16.075 22.307 15.1865 20.1098 15.1865 17.2787V14.5061H18.7803H18.7741Z" fill="white"/>
<path d="M29.1097 18.8082V2.91724H25.436V22.0208H32.6236V18.8082H29.1097Z" fill="white"/>
<path d="M64.4511 17.2881C65.4595 17.2881 66.3633 16.9249 66.7968 15.8879C66.8183 16.2203 66.8644 16.7865 66.929 17.0603H68.8042V8.32094H65.0291V10.3919H66.3941V12.6722C66.3941 14.2785 66.1389 15.1524 65.0967 15.1524C64.2267 15.1524 63.864 14.5001 63.864 13.2476V5.25599C63.864 4.0097 64.239 3.40041 65.1152 3.40041C66.2157 3.40041 66.3356 4.35128 66.3356 5.17598V5.80067H68.7428V5.29292C68.7428 3.61582 68.3984 1.20325 65.1183 1.20325C62.4068 1.20325 61.4138 3.08037 61.4138 5.63449V12.9737C61.4138 15.6202 62.1547 17.285 64.4511 17.285V17.2881Z" fill="black"/>
<path d="M74.0119 17.2449C77.1076 17.2449 77.3781 14.7523 77.3781 13.4814V13.426H75.0325V13.4845C75.0325 14.3554 74.9157 15.2139 73.9565 15.2139C72.9974 15.2139 72.8283 14.3584 72.8283 13.4229V11.6443H77.4243V8.90246C77.4243 6.50835 76.585 4.76355 74.0026 4.76355C71.0053 4.76355 70.4827 7.26228 70.4827 8.91784V12.8844C70.4827 15.3308 70.9346 17.2418 74.0149 17.2418L74.0119 17.2449ZM72.8467 8.52396C72.8467 7.34844 73.2218 6.79762 73.9965 6.79762C74.8604 6.79762 75.1186 7.40384 75.1186 8.52088V9.76101H72.8467V8.52396Z" fill="black"/>
<path d="M77.4489 0.538574H74.7681L72.6531 3.6743H74.7097L77.4489 0.538574Z" fill="black"/>
<path d="M79.0321 17.0604H81.4392V9.02565C81.4392 7.38239 81.805 6.92696 82.6596 6.92696C83.3237 6.92696 83.6987 7.31161 83.6987 8.40404V17.0604H86.1058V7.94861C86.1058 5.66221 85.0914 4.76672 83.6219 4.76672C82.3922 4.76672 81.7435 5.3514 81.3931 6.05609C81.3931 5.70836 81.35 5.23139 81.3039 4.95444H79.0044C79.029 5.50219 79.029 6.22842 79.029 8.69022V17.0604H79.0321Z" fill="black"/>
<path d="M91.3228 17.2449C94.4185 17.2449 94.6891 14.7523 94.6891 13.4814V13.426H92.3434V13.4845C92.3434 14.3554 92.2236 15.2139 91.2675 15.2139C90.3114 15.2139 90.1362 14.3584 90.1362 13.4229V11.6443H94.7321V8.90246C94.7321 6.50835 93.8928 4.76355 91.3105 4.76355C88.3131 4.76355 87.7905 7.26228 87.7905 8.91784V12.8844C87.7905 15.3308 88.2424 17.2418 91.3228 17.2418V17.2449ZM90.1577 8.52396C90.1577 7.34844 90.5327 6.79762 91.3074 6.79762C92.1713 6.79762 92.4295 7.40384 92.4295 8.52088V9.76101H90.1577V8.52396Z" fill="black"/>
<path d="M94.7628 0.538574H92.079L89.967 3.6743H92.0206L94.7628 0.538574Z" fill="black"/>
<path d="M96.3461 9.05637V17.0603H98.7532V10.5765C98.7532 8.09626 99.9553 7.74546 101.336 7.74238V4.77283C100.213 4.77898 99.1498 5.2775 98.6702 6.9146C98.6702 6.2653 98.6272 5.18826 98.6026 4.95439H96.3215C96.3646 6.19144 96.3461 7.04692 96.3461 9.05637Z" fill="black"/>
<path d="M104.526 17.245C105.458 17.245 106.11 16.9096 106.522 16.171C106.543 16.3434 106.626 16.8326 106.675 17.0573H108.873C108.83 16.5957 108.827 15.3402 108.827 14.5801V8.01015C108.827 6.05609 108.01 4.76672 105.676 4.76672C103.02 4.76672 102.347 6.31766 102.347 8.0717V8.22864H104.714V8.03169C104.714 7.28084 104.88 6.72386 105.593 6.72386C106.306 6.72386 106.439 7.25622 106.439 8.20402V9.7488H106.162C103.982 9.7488 101.975 10.5427 101.975 13.5246V13.7338C101.975 15.5617 102.71 17.2481 104.526 17.2481V17.245ZM104.262 13.4969C104.262 11.989 104.985 11.5705 106.082 11.5705H106.482V12.9584C106.482 14.5893 106.125 15.1494 105.32 15.1494C104.569 15.1494 104.259 14.5432 104.259 13.6877V13.4969H104.262Z" fill="black"/>
<path d="M113.285 0.753906H110.878V17.0572H113.285V0.753906Z" fill="black"/>
<path d="M64.5895 35.1361C67.5008 35.1361 68.2785 33.0344 68.2785 30.8188C68.2785 28.2062 67.5622 27.1999 65.2258 25.4705C63.8547 24.4673 63.6457 23.9257 63.6457 22.821C63.6457 21.7839 63.8517 21.1039 64.6356 21.1039C65.4195 21.1039 65.6193 21.7624 65.6193 22.8487V23.618H68.0049V22.784C68.0049 21.0885 67.5592 19.0329 64.6786 19.0298C61.8626 19.0298 61.2386 21.1039 61.2386 23.1625C61.2386 25.4766 62.1362 26.3229 63.8148 27.6523C65.4871 28.9755 65.8499 29.4955 65.8499 31.1757C65.8499 32.1912 65.607 33.0805 64.6694 33.0805C63.7318 33.0805 63.4059 32.4343 63.4059 31.2711V30.3048H60.9988V31.2311C60.9988 33.2898 61.7028 35.13 64.5895 35.13V35.1361Z" fill="black"/>
<path d="M76.5603 31.2772H74.2146V31.3357C74.2146 32.2066 74.0978 33.0651 73.1387 33.0651C72.1795 33.0651 72.0104 32.2096 72.0104 31.2741V29.4955H76.6064V26.7537C76.6064 24.3596 75.7671 22.6147 73.1848 22.6147C70.1874 22.6147 69.6648 25.1135 69.6648 26.769V30.7356C69.6648 33.182 70.1167 35.093 73.1971 35.093C76.2774 35.093 76.5633 32.6004 76.5633 31.3295V31.2741L76.5603 31.2772ZM72.0258 26.3721C72.0258 25.1966 72.4009 24.6457 73.1756 24.6457C74.0394 24.6457 74.2976 25.252 74.2976 26.369V27.6091H72.0258V26.3721Z" fill="black"/>
<path d="M78.2143 26.9044V34.9083H80.6214V28.4246C80.6214 25.9443 81.8234 25.5935 83.2038 25.5904V22.6208C82.0817 22.627 81.018 23.1255 80.5384 24.7626C80.5384 24.1133 80.4954 23.0363 80.4708 22.8024H78.1897C78.2327 24.0395 78.2143 24.8949 78.2143 26.9044Z" fill="black"/>
<path d="M86.5761 34.9084H89.2907L91.8884 22.8025H89.4782C89.0908 25.3043 88.2423 29.6617 88.0179 32.2281H87.9933C87.6798 29.5632 86.9942 25.1781 86.6038 22.8025H84.0276L86.5761 34.9084Z" fill="black"/>
<path d="M95.3654 22.8025H92.9583V34.9084H95.3654V22.8025Z" fill="black"/>
<path d="M95.3868 18.6021H92.9797V21.1777H95.3868V18.6021Z" fill="black"/>
<path d="M100.478 22.6147C97.7203 22.6147 97.0686 24.5965 97.0686 26.5721V30.7264C97.0686 33.2282 97.5759 35.0961 100.364 35.0961C103.152 35.0961 103.73 33.2374 103.73 31.0526V30.8895H101.36V31.4649C101.36 32.4527 101.197 33.0651 100.426 33.0651C99.654 33.0651 99.4757 32.3081 99.4757 31.468V26.2213C99.4757 25.1996 99.7186 24.6457 100.432 24.6457C101.213 24.6457 101.36 25.2704 101.36 26.1997V26.7106H103.73V26.2582C103.73 24.7596 103.438 22.6147 100.478 22.6147Z" fill="black"/>
<path d="M111.975 29.4955V26.7537C111.975 24.3596 111.136 22.6147 108.554 22.6147C105.556 22.6147 105.034 25.1135 105.034 26.769V30.7356C105.034 33.182 105.486 35.093 108.566 35.093C111.646 35.093 111.932 32.6004 111.932 31.3295V31.2741H109.587V31.3326C109.587 32.2035 109.467 33.062 108.511 33.062C107.555 33.062 107.379 32.2066 107.379 31.2711V29.4924H111.975V29.4955ZM107.401 26.3721C107.401 25.1966 107.776 24.6457 108.551 24.6457C109.414 24.6457 109.673 25.252 109.673 26.369V27.6091H107.401V26.3721Z" fill="black"/>
<path d="M115.766 29.5909C117.229 30.5356 117.451 31.0772 117.451 31.8588C117.451 32.6404 117.171 33.0651 116.516 33.0651C115.748 33.0651 115.535 32.4189 115.535 31.6711V31.1172H113.104V31.6557C113.104 33.3851 113.725 35.093 116.445 35.093C118.717 35.093 119.879 33.9083 119.879 31.5911C119.879 29.6093 119.132 28.7508 117.017 27.403C115.917 26.6983 115.689 26.3905 115.689 25.7135C115.689 25.0735 115.926 24.6427 116.519 24.6427C117.113 24.6427 117.374 24.9873 117.374 25.8305V26.5783H119.698V26.0951C119.698 23.8764 118.788 22.6147 116.504 22.6147C114.398 22.6147 113.301 23.8641 113.301 25.9136C113.301 27.6461 114.103 28.5231 115.763 29.594L115.766 29.5909Z" fill="black"/>
<path d="M68.9733 43.3586L67.4792 46.8912L66.0405 44.6202C67.7498 43.2324 68.2816 42.3492 68.2816 40.4629C68.2816 38.1365 67.2548 36.9456 65.232 36.9456C63.2091 36.9456 62.1701 38.2288 62.1701 40.6567C62.1701 42.3738 62.4037 43.1955 63.1907 44.4971C61.8688 45.648 61.2324 46.5866 61.2324 48.6207C61.2324 51.2209 62.3023 52.9381 64.6079 52.9381C65.8806 52.9381 66.7937 52.3965 67.5807 51.3225L68.503 52.7565H71.1929L68.8227 49.0115L71.2575 43.3586H68.9733ZM65.2689 38.8935C65.9729 38.8935 66.1389 39.4812 66.1389 40.4198C66.1389 41.6476 65.8745 42.2107 65.0137 42.9831C64.4788 42.0846 64.3927 41.5307 64.3927 40.4075C64.3927 39.5828 64.6018 38.8935 65.2689 38.8935ZM64.943 50.5686C64.0792 50.5686 63.5811 49.9008 63.5811 48.4114C63.5811 47.3128 63.7318 46.7312 64.2452 46.1466L66.3725 49.4484C66.0005 50.1993 65.6532 50.5686 64.943 50.5686Z" fill="black"/>
<path d="M78.0328 37.1333H75.6257V52.7565H81.7527L81.9586 50.6024H78.0328V37.1333Z" fill="black"/>
<path d="M86.4501 40.4628C84.3473 40.4628 82.8594 41.6475 82.8594 44.2663V49.033C82.8594 51.5809 84.0214 52.9411 86.3794 52.9411C88.7373 52.9411 89.9485 51.6117 89.9485 49.0176V44.3648C89.9485 41.8045 88.6389 40.4597 86.4501 40.4597V40.4628ZM87.5383 49.0791C87.5383 50.2146 87.2278 50.8116 86.4224 50.8116C85.5647 50.8116 85.2696 50.1008 85.2696 49.1222V44.2324C85.2696 43.1616 85.62 42.6015 86.404 42.6015C87.2863 42.6015 87.5353 43.2816 87.5353 44.214V49.0853L87.5383 49.0791Z" fill="black"/>
<path d="M96.2324 41.7184C96.0295 41.0568 95.5069 40.4629 94.2372 40.4629C91.9162 40.4629 91.2952 42.497 91.2952 44.1433V48.7161C91.2952 50.7932 91.7778 52.5103 93.982 52.5103C94.9965 52.5103 95.6667 52.0672 95.9741 51.3995V52.7196C95.9741 54.2459 95.8051 55.0122 94.8059 55.0122C93.8068 55.0122 93.7238 54.1844 93.7238 53.852V53.7997H91.3136V53.849C91.3136 55.1906 91.7993 57.0001 94.6768 57.0001C98.1199 57.0001 98.3812 54.7629 98.3812 52.0795V43.6725C98.3812 42.3954 98.4058 41.3953 98.4274 40.6475H96.343C96.3 40.8475 96.2324 41.3491 96.2324 41.7153V41.7184ZM95.9772 48.0976C95.9772 49.5808 95.802 50.3901 94.7752 50.3901C93.9943 50.3901 93.7054 49.7685 93.7054 48.5376V44.2879C93.7054 43.1155 94.1296 42.62 94.8982 42.62C95.8696 42.62 95.9741 43.5186 95.9741 44.5495V48.0976H95.9772Z" fill="black"/>
<path d="M102.814 36.4501H100.407V39.0257H102.814V36.4501Z" fill="black"/>
<path d="M102.796 40.6505H100.389V52.7564H102.796V40.6505Z" fill="black"/>
<path d="M108.163 45.2542C107.063 44.5495 106.835 44.2417 106.835 43.5647C106.835 42.9247 107.072 42.4939 107.665 42.4939C108.259 42.4939 108.52 42.8385 108.52 43.6817V44.4294H110.844V43.9463C110.844 41.7276 109.934 40.4659 107.65 40.4659C105.544 40.4659 104.447 41.7153 104.447 43.7648C104.447 45.4973 105.249 46.3743 106.909 47.4452C108.372 48.3899 108.594 48.9315 108.594 49.7131C108.594 50.4947 108.314 50.9194 107.659 50.9194C106.891 50.9194 106.679 50.2732 106.679 49.5254V48.9715H104.247V49.51C104.247 51.2394 104.871 52.9473 107.589 52.9473C109.86 52.9473 111.022 51.7625 111.022 49.4454C111.022 47.4636 110.275 46.6051 108.16 45.2572L108.163 45.2542Z" fill="black"/>
<path d="M115.308 37.7426H112.904V40.6475H111.619V42.7616H112.904V50.3501C112.904 52.4457 113.792 52.935 115.305 52.935C115.757 52.935 116.365 52.8919 116.774 52.6949V50.8794C116.645 50.9255 116.332 50.9501 116.12 50.9501C115.388 50.9501 115.311 50.4916 115.311 49.9193V42.7616H116.827V40.6475H115.311V37.7426H115.308Z" fill="black"/>
<path d="M120.482 40.6505H118.075V52.7564H120.482V40.6505Z" fill="black"/>
<path d="M120.503 36.4501H118.096V39.0257H120.503V36.4501Z" fill="black"/>
<path d="M126.913 41.5275C126.71 40.989 126.212 40.4597 125.041 40.4597C122.852 40.4597 122.182 42.4322 122.182 44.4509V48.796C122.182 50.9316 122.542 52.938 124.749 52.938C125.791 52.938 126.486 52.5041 126.852 51.7163V56.8092H129.277V44.5832C129.277 42.7277 129.277 41.4044 129.302 40.6474H127.002C126.959 40.9705 126.935 41.2044 126.913 41.5275ZM126.873 48.439C126.873 49.9838 126.624 50.7808 125.674 50.7808C124.869 50.7808 124.595 50.0238 124.595 49.0176V44.217C124.595 43.2539 124.887 42.623 125.751 42.623C126.809 42.623 126.873 43.537 126.873 44.6509V48.439Z" fill="black"/>
<path d="M138.368 40.6505H135.961V48.716C135.961 50.2916 135.579 50.787 134.792 50.787C134.07 50.787 133.75 50.2823 133.75 49.1684V40.6505H131.343V49.793C131.343 52.4025 132.622 52.9441 133.747 52.9441C134.737 52.9441 135.576 52.6672 136.004 51.6086C136.004 51.9379 136.047 52.5072 136.093 52.7564H138.392C138.368 52.1225 138.368 51.0024 138.368 49.2207V40.6505Z" fill="black"/>
<path d="M147 47.3436V44.6018C147 42.2077 146.161 40.4629 143.578 40.4629C140.581 40.4629 140.058 42.9616 140.058 44.6172V48.5838C140.058 51.0302 140.51 52.9412 143.591 52.9412C146.671 52.9412 146.957 50.4486 146.957 49.1777V49.1223H144.611V49.1808C144.611 50.0516 144.491 50.9102 143.535 50.9102C142.579 50.9102 142.404 50.0547 142.404 49.1192V47.3406H147V47.3436ZM142.422 44.2202C142.422 43.0447 142.797 42.4939 143.572 42.4939C144.436 42.4939 144.694 43.1001 144.694 44.2171V45.4573H142.422V44.2202Z" fill="black"/>
</g>
<defs>
<clipPath id="clip0_2160_24">
<rect width="147" height="57" fill="white"/>
</clipPath>
</defs>
</svg>
