<svg width="215" height="83" viewBox="0 0 215 83" fill="none" xmlns="http://www.w3.org/2000/svg">
<g clip-path="url(#clip0_2153_171)">
<path d="M75.3087 0H5.62488C2.51835 0 0 2.50972 0 5.60563V75.0509C0 78.1468 2.51835 80.6565 5.62488 80.6565H75.3087C78.4152 80.6565 80.9336 78.1468 80.9336 75.0509V5.60563C80.9336 2.50972 78.4152 0 75.3087 0Z" fill="white"/>
<path d="M29.6936 60.0891L74.8231 0H5.62488C2.51793 0 0 2.50931 0 5.60563V28.0416L29.6936 60.0891Z" fill="#AD2430"/>
<path d="M80.9335 26.2537L36.9641 80.6565H75.3086C78.4156 80.6565 80.9335 78.1472 80.9335 75.0508V26.2537Z" fill="#EFA947"/>
<path d="M0 58.6597V75.0509C0 78.1472 2.51793 80.6565 5.62488 80.6565H22.8188L0 58.6597Z" fill="#292C78"/>
<path d="M20.9393 32.0655H17.0096C16.8882 31.5816 16.8072 30.5913 16.7668 30.0043C15.908 31.958 14.1634 32.4823 12.4818 32.4823C8.25075 32.4823 7.06372 29.2605 7.06372 24.7168V11.6281C7.06372 7.36226 8.7903 3.8313 13.9701 3.8313C20.2289 3.8313 20.8584 8.49145 20.8584 11.2965V12.5467H15.5977V11.0142C15.5977 9.66545 15.4358 8.41528 13.988 8.41528C12.792 8.41528 12.3514 9.31146 12.3514 11.1217V25.38C12.3514 27.2754 12.9494 27.9655 13.988 27.9655C15.2605 27.9655 15.6921 26.9528 15.6921 24.6676V20.6795H13.3136V16.1673H20.9348V32.0611L20.9393 32.0655Z" fill="white"/>
<path d="M27.459 21.1229V25.4201C27.459 27.2484 27.9131 28.0997 29.1406 28.0997C30.3681 28.0997 30.6693 26.8406 30.6693 25.5277C30.6693 22.9019 30.1748 22.1401 27.3241 19.7652C24.1812 17.1125 22.5625 15.5397 22.5625 11.4397C22.5625 7.33964 23.8844 3.8042 29.1721 3.8042C34.788 3.8042 35.6153 7.62194 35.6153 10.8034V13.5905H30.5479V10.7407C30.5479 9.05135 30.2692 8.2179 29.208 8.2179C28.2189 8.2179 27.8996 9.06928 27.8996 10.6421C27.8996 12.3179 28.2054 13.1424 30.512 14.9393C34.6171 18.1521 36.0919 19.9579 36.0919 24.5374C36.0919 29.1169 34.5991 32.4821 29.0552 32.4821C23.5112 32.4821 22.2118 29.2827 22.2118 25.1602V21.1229H27.468H27.459Z" fill="white"/>
<path d="M42.5756 27.3873V4.2478H37.2025V32.0653H47.7149V27.3873H42.5756Z" fill="white"/>
<path d="M94.2651 25.1737C95.7399 25.1737 97.0618 24.645 97.6958 23.1349C97.7273 23.6188 97.7947 24.4433 97.8891 24.8421H100.632V12.1163H95.1104V15.132H97.1068V18.4523C97.1068 20.7914 96.7336 22.0639 95.2093 22.0639C93.9369 22.0639 93.4063 21.114 93.4063 19.2903V7.65332C93.4063 5.83855 93.9549 4.95133 95.2363 4.95133C96.846 4.95133 97.0213 6.33593 97.0213 7.53682V8.44644H100.542V7.70709C100.542 5.26499 100.038 1.75195 95.2408 1.75195C91.2751 1.75195 89.8228 4.48531 89.8228 8.20447V18.8915C89.8228 22.745 90.9064 25.1692 94.2651 25.1692V25.1737Z" fill="white"/>
<path d="M108.249 25.1111C112.776 25.1111 113.172 21.4816 113.172 19.631V19.5503H109.741V19.6354C109.741 20.9035 109.571 22.1537 108.168 22.1537C106.765 22.1537 106.518 20.908 106.518 19.5458V16.9559H113.24V12.9634C113.24 9.4772 112.012 6.93652 108.235 6.93652C103.851 6.93652 103.087 10.575 103.087 12.9858V18.7617C103.087 22.324 103.748 25.1066 108.253 25.1066L108.249 25.1111ZM106.545 12.4122C106.545 10.7005 107.093 9.89841 108.226 9.89841C109.49 9.89841 109.867 10.7811 109.867 12.4077V14.2135H106.545V12.4122Z" fill="white"/>
<path d="M113.275 0.78418H109.355L106.261 5.35023H109.269L113.275 0.78418Z" fill="white"/>
<path d="M115.591 24.8422H119.112V13.1425C119.112 10.7497 119.647 10.0865 120.897 10.0865C121.868 10.0865 122.417 10.6466 122.417 12.2374V24.8422H125.937V11.5742C125.937 8.24486 124.453 6.94092 122.304 6.94092C120.506 6.94092 119.557 7.79229 119.044 8.81842C119.044 8.31208 118.981 7.61754 118.914 7.21425H115.551C115.587 8.01186 115.587 9.06935 115.587 12.6541V24.8422H115.591Z" fill="white"/>
<path d="M133.567 25.1111C138.095 25.1111 138.491 21.4816 138.491 19.631V19.5503H135.06V19.6354C135.06 20.9035 134.885 22.1537 133.486 22.1537C132.088 22.1537 131.832 20.908 131.832 19.5458V16.9559H138.554V12.9634C138.554 9.4772 137.326 6.93652 133.549 6.93652C129.165 6.93652 128.401 10.575 128.401 12.9858V18.7617C128.401 22.324 129.062 25.1066 133.567 25.1066V25.1111ZM131.863 12.4122C131.863 10.7005 132.412 9.89841 133.545 9.89841C134.808 9.89841 135.186 10.7811 135.186 12.4077V14.2135H131.863V12.4122Z" fill="white"/>
<path d="M138.599 0.78418H134.673L131.584 5.35023H134.588L138.599 0.78418Z" fill="white"/>
<path d="M140.914 13.1874V24.8422H144.435V15.401C144.435 11.7893 146.193 11.2785 148.212 11.274V6.94995C146.571 6.95891 145.015 7.68482 144.313 10.0687C144.313 9.12319 144.251 7.55487 144.215 7.21433H140.878C140.941 9.01565 140.914 10.2613 140.914 13.1874Z" fill="white"/>
<path d="M152.879 25.111C154.241 25.111 155.195 24.6226 155.797 23.5472C155.829 23.7981 155.95 24.5106 156.022 24.8377H159.237C159.174 24.1656 159.169 22.3373 159.169 21.2306V11.6638C159.169 8.81842 157.973 6.94092 154.561 6.94092C150.676 6.94092 149.691 9.1993 149.691 11.7534V11.9819H153.153V11.6952C153.153 10.6018 153.396 9.79078 154.439 9.79078C155.482 9.79078 155.676 10.566 155.676 11.9461V14.1955H155.271C152.083 14.1955 149.147 15.3516 149.147 19.6936V19.9983C149.147 22.66 150.222 25.1155 152.879 25.1155V25.111ZM152.492 19.6533C152.492 17.4576 153.549 16.8482 155.154 16.8482H155.739V18.8691C155.739 21.244 155.217 22.0595 154.039 22.0595C152.942 22.0595 152.488 21.1768 152.488 19.9311V19.6533H152.492Z" fill="white"/>
<path d="M165.689 1.0979H162.168V24.8378H165.689V1.0979Z" fill="white"/>
<path d="M94.4675 51.1631C98.7255 51.1631 99.8631 48.1026 99.8631 44.8763C99.8631 41.0721 98.8154 39.6068 95.3982 37.0885C93.3929 35.6277 93.0871 34.8391 93.0871 33.2305C93.0871 31.7204 93.3884 30.7301 94.535 30.7301C95.6815 30.7301 95.9738 31.689 95.9738 33.2708V34.391H99.4629V33.1767C99.4629 30.7077 98.8109 27.7144 94.5979 27.71C90.4793 27.71 89.5665 30.7301 89.5665 33.7278C89.5665 37.0975 90.8795 38.3297 93.3344 40.2655C95.7804 42.1923 96.311 42.9496 96.311 45.3961C96.311 46.8748 95.9558 48.1698 94.5844 48.1698C93.213 48.1698 92.7364 47.2288 92.7364 45.535V44.128H89.2158V45.4768C89.2158 48.4745 90.2455 51.1541 94.4675 51.1541V51.1631Z" fill="white"/>
<path d="M111.976 45.544H108.545V45.6291C108.545 46.8972 108.375 48.1474 106.972 48.1474C105.569 48.1474 105.322 46.9017 105.322 45.5395V42.9495H112.044V38.957C112.044 35.4709 110.816 32.9302 107.039 32.9302C102.655 32.9302 101.891 36.5687 101.891 38.9794V44.7553C101.891 48.3176 102.552 51.1003 107.057 51.1003C111.562 51.1003 111.981 47.4707 111.981 45.6201V45.5395L111.976 45.544ZM105.344 38.4014C105.344 36.6897 105.893 35.8876 107.026 35.8876C108.289 35.8876 108.667 36.7703 108.667 38.3969V40.2027H105.344V38.4014Z" fill="white"/>
<path d="M114.395 39.1766V50.8315H117.916V41.3902C117.916 37.7786 119.674 37.2678 121.693 37.2633V32.9392C120.051 32.9482 118.496 33.6741 117.794 36.0579C117.794 35.1125 117.731 33.5441 117.695 33.2036H114.359C114.422 35.0049 114.395 36.2506 114.395 39.1766Z" fill="white"/>
<path d="M126.625 50.8315H130.595L134.395 33.2036H130.87C130.303 36.8466 129.062 43.1916 128.734 46.9287H128.698C128.239 43.0482 127.237 36.6629 126.665 33.2036H122.898L126.625 50.8315Z" fill="white"/>
<path d="M139.48 33.2036H135.959V50.8315H139.48V33.2036Z" fill="white"/>
<path d="M139.511 27.0872H135.991V30.8377H139.511V27.0872Z" fill="white"/>
<path d="M146.957 32.9302C142.924 32.9302 141.971 35.8159 141.971 38.6926V44.7419C141.971 48.3849 142.713 51.1048 146.791 51.1048C150.869 51.1048 151.714 48.3983 151.714 45.2168V44.9794H148.248V45.8173C148.248 47.2557 148.009 48.1474 146.881 48.1474C145.752 48.1474 145.492 47.0451 145.492 45.8218V38.1818C145.492 36.6941 145.847 35.8876 146.89 35.8876C148.032 35.8876 148.248 36.7972 148.248 38.1504V38.8943H151.714V38.2356C151.714 36.0534 151.287 32.9302 146.957 32.9302Z" fill="white"/>
<path d="M163.774 42.9495V38.957C163.774 35.4709 162.546 32.9302 158.769 32.9302C154.385 32.9302 153.621 36.5687 153.621 38.9794V44.7553C153.621 48.3176 154.282 51.1003 158.787 51.1003C163.292 51.1003 163.711 47.4707 163.711 45.6201V45.5395H160.28V45.6246C160.28 46.8927 160.105 48.1429 158.706 48.1429C157.308 48.1429 157.052 46.8972 157.052 45.535V42.945H163.774V42.9495ZM157.083 38.4014C157.083 36.6897 157.632 35.8876 158.765 35.8876C160.028 35.8876 160.406 36.7703 160.406 38.3969V40.2027H157.083V38.4014Z" fill="white"/>
<path d="M169.318 43.0884C171.458 44.4641 171.781 45.2527 171.781 46.3908C171.781 47.529 171.372 48.1474 170.415 48.1474C169.291 48.1474 168.98 47.2064 168.98 46.1175V45.3109H165.424V46.0951C165.424 48.6134 166.332 51.1003 170.311 51.1003C173.634 51.1003 175.334 49.3751 175.334 46.001C175.334 43.1153 174.241 41.8651 171.148 39.9025C169.538 38.8764 169.205 38.4283 169.205 37.4425C169.205 36.5104 169.551 35.8831 170.419 35.8831C171.287 35.8831 171.669 36.385 171.669 37.6127V38.7016H175.068V37.9981C175.068 34.7674 173.737 32.9302 170.397 32.9302C167.317 32.9302 165.711 34.7494 165.711 37.7337C165.711 40.2565 166.885 41.5335 169.313 43.0929L169.318 43.0884Z" fill="white"/>
<path d="M100.879 63.1361L98.694 68.2802L96.5897 64.9733C99.0897 62.9524 99.8675 61.6663 99.8675 58.9195C99.8675 55.532 98.3658 53.7979 95.4072 53.7979C92.4486 53.7979 90.9289 55.6664 90.9289 59.2018C90.9289 61.7022 91.2706 62.8986 92.4216 64.794C90.4882 66.4699 89.5575 67.8366 89.5575 70.7984C89.5575 74.5848 91.1222 77.0852 94.4944 77.0852C96.3559 77.0852 97.6913 76.2965 98.8424 74.7327L100.191 76.8208H104.126L100.659 71.3675L104.22 63.1361H100.879ZM95.4612 56.6343C96.4908 56.6343 96.7336 57.4901 96.7336 58.8568C96.7336 60.6447 96.3469 61.4647 95.088 62.5894C94.3056 61.281 94.1797 60.4744 94.1797 58.8389C94.1797 57.638 94.4855 56.6343 95.4612 56.6343ZM94.9845 73.6349C93.7211 73.6349 92.9927 72.6625 92.9927 70.4937C92.9927 68.8941 93.213 68.0472 93.9639 67.1958L97.0753 72.0038C96.5313 73.0972 96.0232 73.6349 94.9845 73.6349Z" fill="white"/>
<path d="M114.13 54.0713H110.609V76.8209H119.57L119.872 73.6843H114.13V54.0713Z" fill="white"/>
<path d="M126.441 58.9195C123.365 58.9195 121.189 60.6447 121.189 64.4579V71.3989C121.189 75.1091 122.889 77.0896 126.337 77.0896C129.786 77.0896 131.557 75.1539 131.557 71.3765V64.6013C131.557 60.8732 129.642 58.915 126.441 58.915V58.9195ZM128.032 71.4661C128.032 73.1195 127.578 73.9888 126.4 73.9888C125.146 73.9888 124.714 72.9538 124.714 71.5288V64.4086C124.714 62.8493 125.227 62.0338 126.373 62.0338C127.664 62.0338 128.028 63.024 128.028 64.3818V71.475L128.032 71.4661Z" fill="white"/>
<path d="M140.748 60.7479C140.451 59.7845 139.687 58.9197 137.83 58.9197C134.435 58.9197 133.527 61.8816 133.527 64.2788V70.9375C133.527 73.9621 134.233 76.4625 137.457 76.4625C138.94 76.4625 139.921 75.8172 140.37 74.8448V76.7672C140.37 78.9897 140.123 80.1054 138.662 80.1054C137.2 80.1054 137.079 78.9001 137.079 78.4161V78.34H133.554V78.4117C133.554 80.3653 134.264 83.0001 138.473 83.0001C143.509 83.0001 143.891 79.7425 143.891 75.8351V63.5933C143.891 61.7337 143.927 60.2774 143.958 59.1885H140.91C140.847 59.4798 140.748 60.2102 140.748 60.7434V60.7479ZM140.375 70.0368C140.375 72.1966 140.118 73.3751 138.617 73.3751C137.475 73.3751 137.052 72.47 137.052 70.6776V64.4895C137.052 62.7822 137.672 62.0608 138.797 62.0608C140.217 62.0608 140.37 63.3692 140.37 64.8703V70.0368H140.375Z" fill="white"/>
<path d="M150.374 53.0764H146.854V56.8269H150.374V53.0764Z" fill="white"/>
<path d="M150.348 59.1929H146.827V76.8208H150.348V59.1929Z" fill="white"/>
<path d="M158.198 65.8964C156.588 64.8702 156.256 64.4222 156.256 63.4364C156.256 62.5043 156.602 61.877 157.47 61.877C158.338 61.877 158.72 62.3789 158.72 63.6066V64.6955H162.119V63.992C162.119 60.7612 160.788 58.9241 157.447 58.9241C154.367 58.9241 152.762 60.7433 152.762 63.7276C152.762 66.2504 153.936 67.5274 156.364 69.0868C158.504 70.4624 158.828 71.2511 158.828 72.3892C158.828 73.5274 158.418 74.1457 157.461 74.1457C156.337 74.1457 156.026 73.2048 156.026 72.1159V71.3093H152.47V72.0935C152.47 74.6118 153.383 77.0987 157.357 77.0987C160.68 77.0987 162.38 75.3735 162.38 71.9994C162.38 69.1137 161.287 67.8635 158.194 65.9009L158.198 65.8964Z" fill="white"/>
<path d="M168.648 54.9585H165.131V59.1885H163.252V62.2669H165.131V73.3168C165.131 76.3683 166.431 77.0808 168.643 77.0808C169.304 77.0808 170.194 77.018 170.792 76.7313V74.0875C170.603 74.1547 170.145 74.1906 169.835 74.1906C168.764 74.1906 168.652 73.5229 168.652 72.6895V62.2669H170.869V59.1885H168.652V54.9585H168.648Z" fill="white"/>
<path d="M176.215 59.1929H172.694V76.8208H176.215V59.1929Z" fill="white"/>
<path d="M176.246 53.0764H172.726V56.8269H176.246V53.0764Z" fill="white"/>
<path d="M185.621 60.4699C185.324 59.6858 184.596 58.915 182.883 58.915C179.681 58.915 178.701 61.7873 178.701 64.7268V71.0538C178.701 74.1636 179.227 77.0852 182.456 77.0852C183.98 77.0852 184.996 76.4533 185.531 75.3062V82.7221H189.079V64.9195C189.079 62.2175 189.079 60.2907 189.115 59.1884H185.752C185.689 59.6589 185.653 59.9994 185.621 60.4699ZM185.563 70.5341C185.563 72.7835 185.198 73.944 183.809 73.944C182.631 73.944 182.231 72.8417 182.231 71.3765V64.3862C182.231 62.9837 182.658 62.0651 183.922 62.0651C185.468 62.0651 185.563 63.396 185.563 65.0181V70.5341Z" fill="white"/>
<path d="M202.374 59.1929H198.854V70.9373C198.854 73.2316 198.296 73.953 197.145 73.953C196.089 73.953 195.621 73.2181 195.621 71.596V59.1929H192.1V72.5057C192.1 76.3055 193.971 77.0941 195.616 77.0941C197.064 77.0941 198.292 76.6908 198.917 75.1494C198.917 75.6289 198.98 76.4578 199.047 76.8208H202.41C202.374 75.8977 202.374 74.2667 202.374 71.6722V59.1929Z" fill="white"/>
<path d="M215 68.939V64.9465C215 61.4604 213.772 58.9197 209.996 58.9197C205.612 58.9197 204.847 62.5582 204.847 64.9689V70.7448C204.847 74.3071 205.508 77.0898 210.014 77.0898C214.519 77.0898 214.937 73.4602 214.937 71.6096V71.529H211.506V71.6141C211.506 72.8822 211.331 74.1324 209.933 74.1324C208.534 74.1324 208.278 72.8867 208.278 71.5245V68.9345H215V68.939ZM208.305 64.3909C208.305 62.6792 208.853 61.8771 209.987 61.8771C211.25 61.8771 211.628 62.7598 211.628 64.3864V66.1922H208.305V64.3909Z" fill="white"/>
</g>
<defs>
<clipPath id="clip0_2153_171">
<rect width="215" height="83" fill="white"/>
</clipPath>
</defs>
</svg>
