<svg width="62" height="47" viewBox="0 0 62 47" fill="none" xmlns="http://www.w3.org/2000/svg">
<path d="M49.4501 47C45.0796 47 41.4582 45.5587 38.5861 42.676C35.8389 39.7933 34.4653 35.6573 34.4653 30.268C34.4653 24.5027 36.0886 18.8 39.3353 13.16C42.7069 7.52001 47.3897 3.13334 53.3837 0L57.6918 6.58C51.1984 11.092 47.3273 16.7947 46.0785 23.688C47.2024 23.1867 48.5136 22.936 50.0121 22.936C53.5086 22.936 56.3807 24.064 58.6284 26.32C60.8761 28.576 62 31.4587 62 34.968C62 38.4773 60.8137 41.36 58.4411 43.616C56.0685 45.872 53.0715 47 49.4501 47ZM14.9849 47C10.6143 47 6.99295 45.5587 4.12085 42.676C1.37362 39.7933 0 35.6573 0 30.268C0 24.5027 1.62336 18.8 4.87009 13.16C8.24169 7.52001 12.9245 3.13334 18.9184 0L23.2266 6.58C16.7331 11.092 12.862 16.7947 11.6133 23.688C12.7372 23.1867 14.0483 22.936 15.5468 22.936C19.0433 22.936 21.9154 24.064 24.1631 26.32C26.4109 28.576 27.5347 31.4587 27.5347 34.968C27.5347 38.4773 26.3484 41.36 23.9758 43.616C21.6032 45.872 18.6062 47 14.9849 47Z" fill="#292C78"/>
</svg>
