<svg width="375" height="637" viewBox="0 0 375 637" fill="none" xmlns="http://www.w3.org/2000/svg">
<path d="M417.889 121.108L417.122 120.62L409.735 115.593L385.274 98.8385L378.382 94.3706L377.462 93.7353L376.284 93.0442L371.684 89.9725L363.809 84.8763L348.059 74.5442L338.721 68.4707L329.452 62.3273L320.114 56.2537L310.845 50.1104L301.507 44.0368L282.969 31.75L273.631 25.6067L264.362 19.4633L255.024 13.3199L237.106 1.44505L236.409 1.02618C236.354 0.991274 236.291 0.991274 236.235 1.02618C236.179 1.0541 236.145 1.11693 236.145 1.17976V16.1891L236.214 21.7042V68.1635L235.984 68.6801L235.113 68.9314H79.6631C79.5656 68.9314 79.4889 69.0082 79.4889 69.106V198.731L79.3565 200.421L78.8129 201.105L78.7781 201.175L74.0183 202.494L63.7251 207.444L63.293 207.52L62.9585 207.653L62.0804 207.925L54.1009 209.049L52.7002 209.538L51.2018 210.117L43.1875 215.702L32.5947 223.032C32.5947 223.032 32.5668 223.053 32.5528 223.067L31.6399 224.261L27.584 230.014L26.1065 233.267L25.4793 236.687C25.4793 236.687 25.4793 236.722 25.4793 236.743L25.9741 240.059L28.2669 246.594L28.8244 249.854L29.591 262.629L30.4273 275.335L31.7514 296.278L32.518 308.621V308.656H-152.195C-152.258 308.656 -152.32 308.691 -152.348 308.753L-152.425 308.914L-152.704 309.759L-152.92 310.478L-153.059 311.274V311.309L-153.198 311.972V312.209L-153.407 313.061L-153.547 313.954L-153.756 314.806L-154.035 316.537L-154.244 317.452L-154.516 319.176L-154.648 319.504L-154.773 319.693C-154.773 319.693 -154.794 319.728 -154.794 319.749L-154.857 320L-154.982 320.182C-154.982 320.182 -154.996 320.209 -155.003 320.223L-155.066 320.412L-155.205 320.691C-155.205 320.691 -155.226 320.74 -155.226 320.768V320.998L-155.756 321.794C-155.756 321.794 -155.77 321.822 -155.777 321.836L-155.833 322.011L-156.035 322.213L-156.314 322.632C-156.314 322.632 -156.327 322.66 -156.334 322.674L-156.55 323.498V324.51L-156.488 324.824L-156.55 325.103V325.41L-156.808 326.423L-156.955 326.723L-157.017 326.911L-157.143 327.1C-157.143 327.1 -157.164 327.135 -157.164 327.156L-157.289 327.609L-157.429 327.889C-157.429 327.889 -157.449 327.938 -157.449 327.966L-157.638 328.587L-157.777 328.866C-157.777 328.866 -157.791 328.901 -157.791 328.922L-157.93 329.913L-158 331.47L-157.93 332.433V333.236L-157.575 335.058L-157.324 336.203C-157.324 336.203 -157.324 336.203 -157.331 336.203C-157.366 336.14 -157.422 336.092 -157.491 336.105C-157.582 336.112 -157.652 336.189 -157.652 336.28V336.35C-157.652 336.35 -157.638 336.371 -157.638 336.385L-157.442 337.425C-157.429 337.488 -157.387 337.544 -157.324 337.558C-157.31 337.558 -157.289 337.565 -157.275 337.565C-157.226 337.565 -157.185 337.544 -157.15 337.516L-156.871 337.236C-156.871 337.236 -156.857 337.208 -156.85 337.201C-156.822 337.188 -156.794 337.167 -156.78 337.139L-156.627 336.894L-156.202 335.819L-155.784 333.641L-155.714 333.013C-155.714 333.013 -155.714 332.971 -155.714 332.95L-155.791 332.657L-156.07 331.819C-156.07 331.819 -156.09 331.77 -156.111 331.749L-156.578 331.282L-156.76 330.925V330.618L-156.425 330.276L-155.387 329.927L-154.899 329.648C-154.899 329.648 -154.843 329.606 -154.829 329.571L-154.62 329.152C-154.62 329.152 -154.606 329.103 -154.599 329.082L-154.529 327.428L-154.251 325.585V324.747C-154.251 324.691 -154.279 324.636 -154.327 324.601C-154.376 324.566 -154.432 324.559 -154.488 324.58L-154.885 324.733L-155.143 324.119L-154.913 323.595L-154.425 323.169L-152.46 320.433L-151.226 318.164L-150.766 317.857L-149.979 318.834L-149.372 320.251L-149.17 320.991L-149.101 321.689C-149.101 321.689 -149.101 321.724 -149.087 321.738L-148.787 322.471L-147.679 324.063L-147.414 324.524L-147.282 325.194C-147.282 325.194 -147.261 325.25 -147.24 325.271L-146.801 325.78L-146.411 326.102L-146.153 326.423L-145.888 327.26L-145.818 328.028C-145.818 328.028 -145.818 328.056 -145.811 328.07L-145.532 328.838C-145.532 328.838 -145.512 328.887 -145.491 328.901L-144.794 329.599C-144.759 329.634 -144.71 329.655 -144.654 329.648C-144.606 329.648 -144.557 329.613 -144.529 329.571L-144.404 329.39L-144.146 329.201L-143.923 330.395L-143.553 331.198L-143.086 331.798L-142.822 332.322L-142.264 334.695C-142.264 334.695 -142.243 334.751 -142.222 334.772L-141.47 335.589L-141.288 335.945V336.88C-141.288 336.88 -141.288 336.922 -141.274 336.943L-141.135 337.292C-141.135 337.292 -141.107 337.348 -141.079 337.362L-139.783 338.381L-139.309 338.989L-139.044 339.708L-138.975 340.057C-138.975 340.057 -138.968 340.085 -138.961 340.099L-138.766 340.497L-138.717 340.776L-138.807 340.839L-139.058 340.901C-139.1 340.908 -139.128 340.936 -139.156 340.964L-139.365 341.244C-139.365 341.244 -139.4 341.313 -139.4 341.348V341.907C-139.4 341.956 -139.379 342.005 -139.337 342.039L-138.891 342.409L-137.448 343.163L-136.912 343.561L-136.522 344.148L-135.894 345.335C-135.894 345.335 -135.873 345.362 -135.867 345.376L-135.421 345.816L-134.264 346.563L-133.727 347.094L-133.239 347.862C-133.204 347.918 -133.142 347.952 -133.072 347.945C-133.009 347.938 -132.947 347.897 -132.926 347.834L-132.229 345.949C-132.229 345.949 -132.215 345.9 -132.222 345.872L-132.64 341.027L-132.326 339.031L-131.574 339.408L-131.267 339.589L-130.647 340.825L-130.905 341.083C-130.967 341.146 -130.974 341.244 -130.919 341.313L-130.291 342.151C-130.291 342.151 -130.229 342.207 -130.18 342.221L-129.413 342.361C-129.413 342.361 -129.371 342.361 -129.351 342.361L-127.706 342.088L-127.364 342.144L-129.567 342.793C-129.643 342.814 -129.692 342.884 -129.692 342.961V343.31C-129.692 343.366 -129.664 343.422 -129.615 343.457L-128.64 344.085C-128.591 344.12 -128.528 344.12 -128.472 344.099L-127.901 343.841L-127.748 344.511L-127.678 345.767C-127.678 345.767 -127.664 345.83 -127.65 345.851L-127.232 346.479C-127.232 346.479 -127.183 346.528 -127.148 346.542L-126.507 346.801L-126.131 347.422L-124.326 352.078L-124.11 353.021L-123.817 353.677L-123.692 353.858L-123.657 353.991L-123.747 354.047L-123.936 354.11C-123.97 354.124 -124.005 354.145 -124.026 354.18L-124.166 354.389C-124.187 354.424 -124.2 354.466 -124.193 354.508L-124.124 354.996C-124.124 355.031 -124.103 355.066 -124.075 355.094L-123.699 355.464L-123.308 355.722L-122.918 356.113L-121.608 359.429C-121.594 359.464 -121.566 359.499 -121.531 359.52L-120.786 359.925L-120.625 360.086L-120.493 360.553L-120.284 361.042C-120.27 361.077 -120.235 361.112 -120.2 361.126L-119.782 361.335C-119.782 361.335 -119.74 361.349 -119.719 361.356L-119.057 361.419L-118.848 361.524L-117.559 363.555L-117.224 364.295L-117.155 365.133L-117.294 366.089L-117.691 367.018L-118.716 368.596L-118.974 368.854L-119.19 368.966H-119.845C-119.901 368.966 -119.956 368.993 -119.991 369.042C-120.026 369.091 -120.026 369.154 -120.005 369.21L-119.441 370.557L-117.991 373.112L-117.796 374.229L-118.2 375.702L-118.932 376.84L-121.74 379.73L-122.033 380.17L-122.326 380.771L-122.472 381.441V382.069C-122.472 382.132 -122.437 382.188 -122.389 382.216L-122.04 382.425C-121.984 382.46 -121.915 382.46 -121.859 382.425L-121.092 381.936C-121.092 381.936 -121.037 381.888 -121.023 381.853L-120.556 380.785L-120.131 380.463L-119.385 380.924L-119.218 381.49L-119.88 382.683C-119.88 382.683 -119.908 382.76 -119.901 382.802L-119.761 383.57C-119.747 383.633 -119.705 383.689 -119.643 383.703C-119.58 383.724 -119.51 383.703 -119.469 383.661L-119.225 383.409L-118.758 383.13L-118.723 383.382L-118.841 383.738L-119.036 384.129L-119.364 384.457C-119.399 384.492 -119.42 384.54 -119.413 384.589C-119.413 384.638 -119.385 384.687 -119.35 384.715L-119.029 384.973L-118.848 385.336L-118.723 385.72L-118.779 386.195L-118.946 386.425L-119.782 387.333C-119.782 387.333 -119.81 387.375 -119.817 387.396L-119.866 387.535L-120.082 387.64C-120.124 387.661 -120.151 387.696 -120.172 387.738L-120.312 388.157C-120.312 388.157 -120.319 388.185 -120.319 388.199L-120.381 389.141L-120.514 389.602L-120.674 389.818L-120.981 389.937C-120.981 389.937 -121.023 389.958 -121.037 389.979L-121.336 390.286L-125.782 397.106L-126.444 397.707L-127.1 398.147L-127.587 398.635C-127.587 398.635 -127.629 398.698 -127.636 398.733L-127.769 399.745L-128.033 400.548L-129.26 401.847C-129.26 401.847 -129.281 401.868 -129.288 401.881L-129.706 402.649C-129.706 402.649 -129.72 402.684 -129.727 402.705L-129.797 403.152V404.444L-129.657 405.107V405.316C-129.657 405.379 -129.622 405.442 -129.56 405.47L-129.26 405.616L-129.051 405.686C-129.051 405.686 -129.016 405.693 -128.995 405.693H-128.605L-128.326 405.616C-128.27 405.602 -128.222 405.561 -128.201 405.505L-127.999 404.89L-127.58 403.913C-127.58 403.913 -127.566 403.871 -127.566 403.843V403.564C-127.566 403.564 -127.566 403.515 -127.58 403.494L-127.838 402.922L-127.727 402.454L-127.455 401.902L-127.197 401.442L-126.514 400.688L-124.667 399.103L-124.423 398.977L-126.159 402.642C-126.194 402.719 -126.173 402.803 -126.11 402.852C-126.047 402.901 -125.957 402.901 -125.894 402.852L-124.549 401.784L-121.949 398.908H-121.817C-121.768 398.908 -121.726 398.887 -121.692 398.859L-121.601 398.768H-121.385L-121.19 398.914L-121.092 399.166L-121.141 399.368L-121.545 400.045C-121.545 400.045 -121.559 400.073 -121.566 400.087L-121.838 401.044L-122.939 402.901L-124.584 405.03L-126.821 406.321L-129.399 406.664L-132.082 405.91C-132.152 405.889 -132.229 405.91 -132.271 405.972L-132.898 406.81C-132.947 406.873 -132.947 406.964 -132.898 407.027L-132.319 407.746L-131.434 408.562L-130.974 409.421L-130.828 410.329L-130.047 412.458L-129.699 413.016C-129.699 413.016 -129.664 413.058 -129.643 413.072L-128.877 413.561C-128.877 413.561 -128.849 413.575 -128.835 413.582L-127.058 414.126L-125.873 414.824C-125.873 414.824 -125.831 414.845 -125.81 414.845L-125.002 414.971L-124.897 415.229C-124.897 415.229 -124.862 415.292 -124.835 415.313L-124.646 415.439L-123.754 416.263L-121.05 419.453L-118.974 422.923L-117.65 426.134L-117.378 426.811L-115.573 433.694L-115.44 434.979L-115.914 436.124C-115.935 436.166 -115.935 436.215 -115.914 436.256L-115.085 438.246L-113.956 444.431L-111.524 449.856L-111.043 451.573L-110.555 456.181L-109.44 468.537L-109.161 472.516L-108.883 477.515L-109.301 481.145L-109.719 485.41L-110.06 492.015L-111.447 498.004L-115.831 511.939L-116.507 512.818C-116.507 512.818 -116.535 512.86 -116.535 512.881L-116.799 514.033L-120.758 522.801L-123.071 526.041L-123.852 527.751L-124.542 531.004L-125.587 532.68L-129.357 542.418L-129.706 544.54V549.818L-130.166 551.082L-130.584 551.78C-130.584 551.78 -130.605 551.822 -130.605 551.843L-130.946 554.258L-132.264 556.764L-132.619 557.707L-133.107 560.953L-132.619 570.789L-132.549 575.097L-133.246 583.334C-133.246 583.418 -133.204 583.488 -133.128 583.516C-133.051 583.544 -132.967 583.516 -132.926 583.439L-131.811 581.624C-131.811 581.624 -131.79 581.582 -131.79 581.561L-131.372 578.818L-131.232 573.547L-130.96 572.995L-130.34 570.852L-129.504 568.898C-129.504 568.898 -129.49 568.863 -129.49 568.842L-129.281 565.512L-128.953 564.597L-128.319 564.025L-126.688 563.62C-126.688 563.62 -126.654 563.606 -126.64 563.599L-125.873 563.11C-125.873 563.11 -125.831 563.075 -125.817 563.047L-125.525 562.531L-125.309 561.951L-123.35 553.623L-123.141 551.689L-122.807 550.83L-122.138 549.958L-121.329 549.141L-120.381 548.534L-119.329 548.338L-117.796 548.617H-117.211L-116.723 548.548C-116.709 548.548 -116.695 548.548 -116.681 548.534L-116.158 548.31L-114.785 547.347L-114.263 547.082L-113.747 546.956L-113.252 547.082L-112.806 547.34L-112.5 547.647L-111.928 548.499L-111.161 549.406C-111.161 549.406 -111.12 549.441 -111.099 549.455L-110.123 549.874C-110.123 549.874 -110.095 549.888 -110.081 549.888L-109.036 550.028C-109.036 550.028 -109.008 550.028 -108.994 550.028L-107.879 549.888C-107.879 549.888 -107.816 549.874 -107.795 549.853L-107.468 549.588L-107.175 549.469L-106.862 549.406L-106.583 549.455L-105.956 549.734C-105.956 549.734 -105.907 549.748 -105.886 549.748H-105.572L-105.189 549.665L-103.335 548.841L-102.694 548.778L-101.119 549.19C-101.119 549.19 -101.091 549.19 -101.077 549.19H-100.624L-99.5442 548.98H-98.8055L-96.6312 549.679L-95.1189 549.818L-94.7913 549.881L-93.6624 550.44L-92.8958 550.649C-92.8958 550.649 -92.854 550.656 -92.8331 550.649L-92.1013 550.572L-91.4044 550.363C-91.4044 550.363 -91.3696 550.349 -91.3556 550.342L-90.7075 549.902L-89.6901 548.946L-89.1604 548.617L-88.4565 548.492L-86.4704 548.904C-86.4704 548.904 -86.4355 548.904 -86.4146 548.904L-85.7177 548.834C-85.7177 548.834 -85.6759 548.827 -85.655 548.813L-85.0975 548.534C-85.0975 548.534 -85.0626 548.513 -85.0557 548.499L-84.6166 548.059L-83.5295 546.481L-82.9232 545.944L-82.296 545.692L-81.6966 545.755L-81.3412 546.048L-81.0694 546.523L-80.721 547.012C-80.721 547.012 -80.6722 547.061 -80.6373 547.075L-80.0798 547.284C-80.0798 547.284 -80.038 547.298 -80.0171 547.298H-79.2854L-78.6303 547.144L-76.6232 546.314L-75.9542 546.111H-74.4768L-72.2049 546.46L-71.4313 546.39L-66.4137 545.623C-66.4137 545.623 -66.3858 545.623 -66.3718 545.609L-65.4032 545.19L-65.0547 545.05C-65.0547 545.05 -64.999 545.015 -64.9781 544.994L-64.769 544.715C-64.769 544.715 -64.7341 544.645 -64.7341 544.61V544.191C-64.7341 544.191 -64.7341 544.136 -64.755 544.115L-64.8944 543.835C-64.8944 543.835 -64.9153 543.8 -64.9293 543.793L-65.675 543.046L-65.9189 542.488L-65.8631 541.957L-65.5147 541.546L-64.9223 541.364L-64.3927 541.539L-64.0163 541.978L-63.5843 542.558L-63.0964 543.046C-63.0964 543.046 -63.0407 543.088 -63.0058 543.095L-62.6225 543.165H-62.2741C-62.2741 543.165 -62.2183 543.165 -62.1974 543.144L-61.9047 542.998L-61.5563 542.788C-61.5563 542.788 -61.5145 542.753 -61.4936 542.732L-61.2845 542.383C-61.2845 542.383 -61.2706 542.355 -61.2636 542.334L-61.0615 541.385L-60.7549 540.959L-60.3158 540.708L-59.3541 540.261L-58.9708 540.484L-58.3575 541.169L-58.3087 541.217L-57.9533 541.916L-57.4655 542.544C-57.4376 542.579 -57.3958 542.6 -57.354 542.607L-56.448 542.746C-56.448 542.746 -56.3992 542.746 -56.3783 542.746L-55.0124 542.404L-47.012 542.963H-46.4545C-46.4545 542.963 -46.4266 542.963 -46.4127 542.963L-44.8307 542.551L-44.3917 542.488L-42.7749 543.235C-42.7749 543.235 -42.74 543.249 -42.7191 543.249L-42.1407 543.319H-41.6529C-41.6529 543.319 -41.625 543.319 -41.6041 543.319L-39.604 542.767H-39.1789L-37.2624 543.186H-36.7537L-36.1683 543.109L-35.6526 542.956L-35.2205 542.739L-34.0009 541.985L-33.6037 541.853L-32.6908 541.79L-29.8126 542.956L-29.4572 543.13L-29.3457 543.451V543.877L-29.5547 544.855C-29.5547 544.876 -29.5547 544.903 -29.5547 544.924L-29.485 545.273C-29.4711 545.329 -29.4432 545.371 -29.3944 545.392L-28.9763 545.602C-28.9763 545.602 -28.9136 545.623 -28.8857 545.623L-27.1225 545.49L-26.795 545.657L-26.6347 545.93L-26.565 546.795C-26.565 546.795 -26.5581 546.851 -26.5441 546.872L-26.3351 547.221C-26.3351 547.221 -26.3002 547.27 -26.2723 547.284L-25.7845 547.563C-25.7845 547.563 -25.7357 547.584 -25.7078 547.584L-24.6068 547.654L-24.0841 547.717L-23.7983 547.891L-22.983 548.98C-22.983 548.98 -22.9621 549.001 -22.9551 549.008L-22.5997 549.295L-21.5055 550.049L-19.9027 551.933L-17.0872 554.537L-15.575 555.431L-15.2544 555.682L-14.4878 556.66C-14.4878 556.66 -14.4599 556.688 -14.446 556.695L-13.993 556.995L-13.0522 557.323L-12.6549 557.588L-12.4319 557.867V558.119L-12.7107 558.824L-12.7804 559.243C-12.7804 559.243 -12.7804 559.285 -12.7804 559.305L-12.7107 559.655C-12.7107 559.655 -12.6968 559.703 -12.6759 559.724L-12.2089 560.325L-12.0208 560.709V561.044L-12.2229 561.951C-12.2229 561.972 -12.2229 562 -12.2229 562.021L-12.0835 562.789C-12.0765 562.845 -12.0417 562.887 -11.9929 562.915L-11.1287 563.348L-9.34468 563.892L-8.95442 564.081L-8.27146 564.625L-7.94392 564.953L-7.75575 565.323L-7.33065 566.678L-7.11461 567.103L-6.83585 567.592C-6.83585 567.592 -6.81494 567.627 -6.79403 567.641L-6.36196 568.004L-5.94381 568.283C-5.94381 568.283 -5.902 568.304 -5.8811 568.311L-5.4978 568.388H-5.07967C-5.07967 568.388 -5.03786 568.388 -5.01695 568.374L-4.64062 568.22L-3.86706 567.725L-3.07956 567.145L-2.71021 566.768L-1.89484 565.54L-1.58124 565.219L-1.26763 565.023L-0.877373 564.89H-0.445289L-0.18744 564.932L-0.229252 565.358L-0.508018 566.119C-0.508018 566.119 -0.508018 566.126 -0.508018 566.133L-0.717079 566.831C-0.717079 566.831 -0.724048 566.894 -0.717079 566.929L-0.577701 567.418C-0.563763 567.459 -0.542863 567.494 -0.508018 567.515L-0.271065 567.669L0.18888 567.864L0.37008 567.983L0.411892 568.025L0.467646 568.192C0.467646 568.192 0.488551 568.241 0.509458 568.262L0.579152 568.332C0.579152 568.332 0.607026 568.353 0.620964 568.367L0.795189 568.451L1.0391 568.507L1.1506 568.562L1.47815 568.891C1.47815 568.891 1.5339 568.932 1.56875 568.939L1.91719 569.009C1.91719 569.009 1.96597 569.009 1.98688 569.009L2.33533 568.939C2.33533 568.939 2.37018 568.932 2.38412 568.918L3.61762 568.227L3.82669 568.172H4.87204C4.87204 568.172 4.91386 568.171 4.93476 568.158L6.71882 567.397L9.1928 566.894L9.79213 566.622L10.0291 566.559H10.4403L10.5378 567.055L9.72942 568.535C9.72942 568.535 9.70851 568.576 9.70851 568.604L9.63883 569.302C9.63883 569.365 9.65973 569.428 9.70851 569.463L10.1963 569.812C10.2451 569.847 10.3078 569.854 10.3566 569.833L12.0013 569.219H12.6494L12.7958 569.407L13.1442 570.035C13.1442 570.035 13.1582 570.063 13.1721 570.077L13.4718 570.378L14.7053 571.271L14.9562 571.578L15.0746 571.878L15.1443 572.702L15.221 573.156L15.8552 574.776L16.1548 575.369L16.9493 576.305L18.1061 577.184L18.364 577.505L18.4825 577.854L18.2804 579.097V579.481L18.3501 579.83C18.3501 579.858 18.364 579.879 18.3849 579.9L19.4163 581.205L19.8205 581.952L20.0923 582.692V583.614L19.6811 584.842C19.6811 584.842 19.6672 584.898 19.6811 584.926L19.7508 585.345C19.7508 585.345 19.7648 585.401 19.7857 585.429L20.0644 585.778C20.0644 585.778 20.0923 585.806 20.1132 585.82L21.1237 586.42L21.7997 587.09L22.2806 587.844L22.4827 588.242L22.5384 588.535L22.4827 588.822L21.7927 589.925L21.5837 590.344C21.5837 590.344 21.5628 590.392 21.5628 590.42V590.867L21.6394 591.314L22.0576 592.501C22.0854 592.571 22.1482 592.619 22.2248 592.619H22.9565L24.3225 592.34L24.9706 592.403L25.2772 592.522L26.0926 593.136C26.0926 593.136 26.1205 593.15 26.1344 593.157L26.5038 593.303L27.5909 593.576L28.0997 593.897L28.6293 594.365L28.8802 594.874L29.0056 595.516L28.7269 597.325V597.743C28.7269 597.743 28.7269 597.778 28.7338 597.799L29.0126 598.7C29.0196 598.735 29.0474 598.77 29.0753 598.791L29.3541 599C29.3541 599 29.3959 599.021 29.4168 599.028L30.8106 599.377C30.8106 599.377 30.8524 599.384 30.8733 599.377L31.5702 599.307C31.5702 599.307 31.626 599.293 31.6538 599.279L32.3577 598.784L32.957 598.316L33.633 597.981L34.316 597.855L34.9362 598.162L35.2359 598.463L35.3544 598.805L35.4938 600.201C35.4938 600.201 35.5077 600.25 35.5147 600.271L36.1419 601.248L36.337 601.569L36.4624 601.89V603.566L36.6018 604.334C36.6018 604.355 36.6088 604.369 36.6227 604.39L37.0618 605.192L37.6193 605.821C37.6193 605.821 37.6402 605.842 37.6541 605.849L40.4139 607.713L41.0132 608.313L41.2571 609.06L41.0968 609.535L40.386 609.653L38.804 609.514C38.7552 609.514 38.7134 609.521 38.6786 609.556L38.2604 609.905C38.1977 609.953 38.1838 610.037 38.2117 610.107L38.4904 610.735C38.4904 610.735 38.5113 610.77 38.5252 610.791L39.5845 611.852L40.0027 612.201C40.0027 612.201 40.0375 612.229 40.0584 612.229L40.4766 612.369C40.4766 612.369 40.5114 612.376 40.5323 612.376H40.9853L41.9958 612.166H42.4627L42.8948 612.292L43.2572 612.585L43.4523 612.844L43.5708 613.207V613.5L43.3617 614.784V615.203C43.3617 615.203 43.3617 615.238 43.3687 615.259L43.515 615.699L43.5847 615.839C43.6056 615.88 43.6475 615.915 43.6893 615.929L44.8252 616.264L45.1249 616.627C45.1249 616.627 45.1458 616.648 45.1528 616.662L46.5466 617.989C46.5466 617.989 46.5744 618.017 46.5953 618.024L47.8497 618.582C47.8497 618.582 47.8985 618.596 47.9194 618.596L48.5327 618.519L49.9753 618.038L50.6164 617.912L51.0206 618.086L51.3342 618.401L51.9614 619.169C51.9614 619.169 51.9893 619.196 52.0102 619.21L54.5748 620.739L55.432 621.382L55.9198 621.661C55.9198 621.661 55.9477 621.675 55.9617 621.682L57.0558 621.954L57.4948 622.205L57.8781 622.652L58.0663 623.092L59.1046 626.911L59.1743 627.469C59.1743 627.525 59.2162 627.574 59.2649 627.602L59.8643 627.937L61.4671 629.892L62.3383 630.611L65.2374 631.986L67.9065 634.024L68.6731 634.443C68.6731 634.443 68.7149 634.457 68.7358 634.464L69.7811 634.604C69.7811 634.604 69.809 634.604 69.8299 634.604L70.9101 634.457L72.9102 633.766L73.8162 633.571L74.4294 633.934L76.4504 635.749C76.4504 635.749 76.4783 635.77 76.4992 635.777L76.9871 635.986C76.9871 635.986 77.0289 636 77.0567 636C77.1125 636 77.1613 635.972 77.1961 635.93L77.6143 635.372C77.6143 635.372 77.6352 635.337 77.6421 635.316L77.8303 634.618L78.0673 634.478L78.4505 634.541H78.6178L78.8617 634.66C78.8617 634.66 78.9105 634.681 78.9384 634.681H79.8443C79.8443 634.681 79.8792 634.681 79.8931 634.674L80.7991 634.394C80.7991 634.394 80.8339 634.38 80.8479 634.373L81.6842 633.815C81.6842 633.815 81.719 633.787 81.726 633.773L82.8201 632.265L83.4821 631.665L85.3568 631.239L86.1931 630.82C86.1931 630.82 86.221 630.806 86.2349 630.792L86.9597 630.129L87.3778 629.501C87.3778 629.501 87.3987 629.473 87.3987 629.452L87.5241 629.005L87.789 628.74L87.9841 628.481L88.1723 628.293L88.6322 628.097L88.911 627.958C88.9667 627.93 89.0085 627.867 89.0085 627.804V627.455C89.0085 627.413 88.9946 627.371 88.9667 627.343L88.6322 626.938L88.5207 626.771V626.499L88.7228 624.788L88.9946 623.972L89.3431 623.204C89.3431 623.204 89.357 623.162 89.357 623.148L89.4267 622.24C89.4267 622.24 89.4267 622.205 89.4267 622.191L89.2873 621.493C89.2873 621.493 89.2803 621.458 89.2664 621.437L88.9876 620.949C88.9528 620.893 88.904 620.858 88.8343 620.858C88.7716 620.858 88.7089 620.9 88.681 620.956L88.6113 621.095C88.6113 621.095 88.5904 621.144 88.5904 621.172V621.207L88.3116 621.27L88.1653 621.172C88.1653 621.172 88.1026 621.144 88.0677 621.144H87.9144L87.8935 620.97C87.8935 620.97 87.8935 620.914 87.8726 620.893L87.8587 620.865C87.9005 620.809 87.9005 620.725 87.8587 620.669C87.8099 620.6 87.7263 620.572 87.6496 620.607L87.3987 620.704L87.1409 620.488L87.1897 620.286L87.2524 618.861L87.8169 616.886L87.8865 616.397C87.8865 616.397 87.8865 616.355 87.8865 616.341L87.7472 615.65L87.6844 615.259L87.8099 614.275L88.7228 611.65L88.9249 609.304L89.127 608.564L90.7438 605.102L91.4338 601.709L92.047 600.131L93.2108 598.826C93.2108 598.826 93.2387 598.784 93.2457 598.756L93.3851 598.267C93.3851 598.267 93.3851 598.239 93.3851 598.218V596.752L94.0192 596.857C94.0541 596.857 94.0959 596.857 94.1238 596.843L94.2283 596.794H94.3816H94.3956L94.967 596.996C94.967 596.996 95.0019 597.003 95.0228 597.003H95.5803C95.5803 597.003 95.6151 597.003 95.6361 596.996L95.8173 596.934L95.9218 596.983C95.9218 596.983 95.9706 597.003 95.9984 597.003H96.0681L96.103 597.038V597.178C96.103 597.276 96.1796 597.353 96.2772 597.353H96.4166C96.4654 597.353 96.5072 597.332 96.542 597.304L96.6117 597.234C96.6117 597.234 96.6326 597.206 96.6466 597.192L96.6675 597.15L96.7232 597.178L96.8347 597.346C96.8696 597.394 96.9183 597.422 96.9811 597.422H97.1204C97.1204 597.422 97.1762 597.422 97.2041 597.401L98.5282 596.703C98.5282 596.703 98.556 596.682 98.57 596.668L100.291 594.874L101.002 594.483L101.699 594.274C101.741 594.26 101.783 594.232 101.804 594.19L101.901 594.141H101.999C102.048 594.141 102.089 594.12 102.124 594.092L102.173 594.043L102.25 594.009H102.347C102.347 594.009 102.403 594.009 102.424 593.988L102.842 593.778C102.842 593.778 102.877 593.757 102.884 593.743L103.302 593.324C103.302 593.324 103.337 593.276 103.351 593.241L103.49 592.682C103.49 592.682 103.49 592.619 103.49 592.584L103.358 592.11C103.344 592.054 103.302 592.005 103.246 591.984L103.058 591.921L102.905 591.817L102.842 591.691H103.156L105.455 592.18C105.518 592.194 105.588 592.166 105.63 592.117L105.65 592.138C105.699 592.187 105.769 592.2 105.825 592.18L106.034 592.11C106.076 592.096 106.117 592.061 106.138 592.026L106.173 591.949L106.271 591.914L106.926 592.047C106.961 592.047 107.002 592.047 107.037 592.033L107.135 591.984L107.421 592.159C107.421 592.159 107.483 592.187 107.518 592.187H107.755L107.985 592.242L108.041 592.34V592.48L108.117 592.773L108.18 592.961L108.25 593.31C108.257 593.359 108.285 593.394 108.327 593.422L108.508 593.541L108.745 593.771L108.877 593.862C108.877 593.862 108.891 593.911 108.905 593.932L109.414 594.728L109.943 595.258L109.999 595.426C109.999 595.426 110.013 595.454 110.02 595.468L110.32 595.914L110.41 596.04V596.326L110.341 596.906V597.045C110.341 597.045 110.348 597.115 110.368 597.143L110.508 597.353C110.529 597.387 110.571 597.415 110.612 597.422L110.863 597.485L111.219 597.723L111.267 597.82C111.267 597.82 111.288 597.855 111.302 597.862L111.344 597.904L111.4 598.072C111.421 598.141 111.49 598.19 111.567 598.19H111.602L111.762 598.511C111.783 598.553 111.825 598.588 111.874 598.602L112.173 598.672L112.801 599.426L112.87 599.698L112.94 599.838C112.94 599.838 112.961 599.873 112.975 599.887L113.093 600.005L113.219 600.257C113.219 600.257 113.24 600.292 113.254 600.306L113.344 600.396C113.344 600.445 113.365 600.487 113.4 600.522L114.222 601.276L114.571 601.695C114.571 601.695 114.627 601.744 114.661 601.751L114.884 601.806L115.24 602.218L115.303 602.526C115.309 602.567 115.33 602.602 115.365 602.63L115.992 603.119C115.992 603.119 116.02 603.14 116.034 603.147L117.135 603.629L117.797 603.957L118.188 604.285L118.383 604.669C118.383 604.669 118.425 604.725 118.452 604.739L118.947 605.025L119.477 605.29L119.63 605.576C119.63 605.576 119.672 605.639 119.707 605.653L120.216 605.939L120.404 606.002L120.515 606.058L120.634 606.177C120.634 606.177 120.71 606.226 120.759 606.226L121.693 607.098L122.801 607.999L123.874 608.927L124.474 609.262L124.801 609.653C124.801 609.653 124.829 609.681 124.843 609.688L125.171 609.884L126.021 610.798L126.62 611.168L126.808 611.231L127.15 611.461L127.206 611.678C127.219 611.72 127.24 611.755 127.275 611.783L127.484 611.922C127.484 611.922 127.547 611.95 127.582 611.95L127.652 611.971L127.756 612.292V612.334C127.756 612.383 127.777 612.425 127.805 612.46L127.993 612.641L128.105 612.809V613.032C128.105 613.032 128.105 613.088 128.125 613.109L128.335 613.528C128.335 613.528 128.369 613.577 128.39 613.598L128.564 613.709L128.669 613.996C128.669 613.996 128.69 614.044 128.711 614.065L128.753 614.107L128.801 614.254V614.365C128.801 614.414 128.822 614.456 128.85 614.491L128.962 614.603L129.017 614.77C129.017 614.77 129.031 614.798 129.038 614.812L129.457 615.441C129.491 615.489 129.54 615.517 129.603 615.517H129.714L129.868 615.566L130.126 615.762C130.126 615.762 130.16 615.783 130.174 615.79L130.356 615.852L130.962 616.278V616.537C130.962 616.537 130.962 616.592 130.983 616.613L131.052 616.753C131.052 616.753 131.073 616.788 131.087 616.795L131.108 616.816C131.108 616.914 131.185 616.99 131.282 616.99L131.324 617.032L131.394 617.409C131.394 617.409 131.415 617.472 131.443 617.5L131.512 617.57C131.554 617.612 131.617 617.626 131.673 617.619C131.728 617.605 131.777 617.57 131.798 617.514L131.944 617.144L132.697 614.456L133.101 613.646L134.335 612.481C134.335 612.481 134.356 612.453 134.363 612.439L134.85 611.601C134.85 611.601 134.864 611.573 134.871 611.559L135.352 609.835L135.687 609.032L136.398 608.32L136.823 608.201H137.318L137.666 608.131C137.708 608.124 137.743 608.096 137.771 608.062L137.98 607.782C137.98 607.782 138.014 607.713 138.014 607.678V607.608L138.196 607.426L138.314 607.252L138.767 606.993C138.767 606.993 138.795 606.979 138.802 606.966L138.851 606.917L138.927 606.882H138.955C139.004 606.882 139.046 606.861 139.081 606.833L139.429 606.484C139.429 606.484 139.464 606.442 139.471 606.414L139.819 605.367C139.819 605.367 139.826 605.325 139.826 605.304L139.757 603.3L139.952 602.463L140.335 602.079C140.335 602.079 140.384 602.002 140.384 601.953V601.848L140.544 601.765L140.837 601.702H141.213L141.596 601.89C141.631 601.911 141.68 601.911 141.715 601.904L141.952 601.848L142.154 601.897L142.405 602.086C142.405 602.086 142.447 602.107 142.468 602.114L142.788 602.19H142.886L142.99 602.239C142.99 602.239 143.025 602.253 143.039 602.253L143.903 602.393H145.868L146.774 602.323C146.795 602.323 146.816 602.316 146.837 602.302L148.531 601.688L149.262 601.555L150.133 601.758C150.133 601.758 150.182 601.758 150.21 601.758L150.865 601.625L155.653 601.765L156.949 601.974L159.04 601.834C159.04 601.834 159.096 601.827 159.116 601.806L161.193 600.557L162.287 600.04L162.699 600.333L163.256 600.683C163.291 600.703 163.34 600.71 163.382 600.704L163.695 600.641L164.845 600.913C164.845 600.913 164.894 600.913 164.915 600.913L167.458 600.424H168.051L169.87 601.192L170.776 601.332C170.776 601.332 170.81 601.332 170.831 601.332L171.64 601.192H172.371L173.312 601.597L174.079 601.946C174.149 601.981 174.232 601.96 174.288 601.897L174.581 601.541H175.152L175.57 601.772L176.476 602.609C176.518 602.651 176.581 602.665 176.643 602.651L177.11 602.519H177.64C177.64 602.519 177.703 602.512 177.724 602.498L178.964 601.779L179.438 602.016C179.438 602.016 179.487 602.037 179.515 602.037H180.016L183.431 601.827C183.431 601.827 183.459 601.827 183.473 601.82L183.661 601.758L185.41 601.688L186.073 601.82L186.532 602.149C186.532 602.149 186.56 602.17 186.581 602.17L187.236 602.386L187.696 602.449L187.905 602.519C187.905 602.519 187.968 602.533 187.996 602.519L189.85 602.107L201.488 601.618C201.537 601.618 201.585 601.59 201.62 601.548C201.655 601.506 201.662 601.457 201.655 601.409L201.098 598.679L200.338 595.649V594.295L200.589 593.792L200.742 593.562L201 593.038L203.836 589.576L204.708 589.08L205.391 589.394C205.453 589.422 205.537 589.408 205.586 589.359L205.92 589.024L206.729 589.401L206.547 590.253L206.408 591.084L206.199 592.166V592.2L205.641 595.363L205.502 597.541V597.96C205.502 597.96 205.502 597.995 205.509 598.016L205.711 598.616V598.658C205.711 598.707 205.732 598.749 205.76 598.784L205.83 598.853C205.83 598.853 205.906 598.902 205.955 598.902H207.635L208.952 598.833H210.269L212.854 598.902H215.029L215.851 598.833L219.482 598.902L221.12 598.84C221.12 598.84 221.133 598.874 221.14 598.888C221.175 598.937 221.231 598.972 221.287 598.972H358.297L361.928 599.042H385.413C385.511 599.042 385.587 598.965 385.587 598.867V598.798L385.65 598.574C385.65 598.574 385.657 598.539 385.657 598.518V598.449C385.657 598.449 385.657 598.428 385.657 598.414C385.657 598.4 385.657 598.393 385.657 598.379L385.797 597.848L386.633 593.101L388.445 583.607L389.281 578.867L390.187 574.189L391.86 564.904L392.765 560.29L392.975 558.796V558.482L392.898 558.133C392.898 558.098 392.877 558.07 392.849 558.042L392.34 557.532L386.695 553.553L384.612 552.164L382.911 550.893L382.647 550.761L380.988 549.693V549.511C380.988 549.511 380.981 549.448 380.967 549.427L380.695 548.946L380.291 548.136L380.089 546.216L379.671 541.818L378.695 532.882L378.277 528.484L376.813 515.15L376.395 510.682L375.42 501.816L375.002 497.348L374.026 488.412L373.608 483.944L372.632 475.009L372.214 470.471L368.799 438.218L368.381 433.611L366.918 419.788L366.639 416.849L366.29 413.917L365.733 408.123L364.966 401.281L364.339 394.998L362.945 382.502L362.318 376.219L360.924 363.723L360.297 357.44L359.6 351.157L358.973 345.718L358.694 342.786L357.997 336.294L357.231 329.809L356.952 326.876L356.255 320.803L355.628 314.66L354.931 308.586L354.304 302.512L353.607 296.369L352.98 290.295L352.283 284.152L351.655 278.009L350.959 271.865L350.331 265.792L349.634 259.648L349.007 253.505L348.31 247.362L347.683 241.148L346.986 235.005L346.359 228.862L345.662 222.718L345.174 217.832C345.174 217.832 345.174 217.825 345.174 217.818L344.965 216.505L344.338 210.362L343.641 204.149L343.014 197.935L342.317 191.722L341.69 185.509L340.644 176.154L339.948 169.103L338.833 158.932V158.653C338.833 158.653 338.833 158.639 338.833 158.625L338.345 154.443L337.927 150.324L337.439 146.205L337.021 142.086L336.533 137.968L336.115 133.849L335.627 129.66L335.209 125.541L334.742 121.618H335.592C335.662 121.618 335.724 121.576 335.752 121.513C335.752 121.499 335.759 121.485 335.766 121.464L335.906 121.408H417.059C417.059 121.408 417.115 121.408 417.136 121.387L417.22 121.346L417.443 121.513C417.443 121.513 417.512 121.548 417.547 121.548H417.826C417.903 121.548 417.972 121.499 417.993 121.422C418.014 121.346 417.986 121.269 417.917 121.227L417.889 121.108Z" fill="#F7F7F7" stroke="#DEDEDE" stroke-miterlimit="10"/>
</svg>
