<svg width="736" height="811" viewBox="0 0 736 811" fill="none" xmlns="http://www.w3.org/2000/svg">
<path d="M734.858 154.02L733.881 153.397L724.468 146.994L693.297 125.648L684.514 119.956L683.342 119.146L681.841 118.266L675.98 114.352L665.945 107.86L645.874 94.6965L633.974 86.9587L622.163 79.1319L610.263 71.3941L598.452 63.5674L586.552 55.8296L562.93 40.176L551.029 32.3493L539.218 24.5225L527.318 16.6958L504.486 1.567L503.598 1.03335C503.527 0.988882 503.447 0.988882 503.376 1.03335C503.305 1.06893 503.261 1.14898 503.261 1.22902V20.3512L503.349 27.3775V86.5674L503.056 87.2255L501.946 87.5457H303.855C303.731 87.5457 303.633 87.6436 303.633 87.7681V252.913L303.465 255.065L302.772 255.937L302.728 256.026L296.662 257.707L283.546 264.012L282.995 264.11L282.569 264.279L281.45 264.626L271.281 266.058L269.496 266.681L267.587 267.419L257.374 274.534L243.876 283.873C243.876 283.873 243.84 283.9 243.823 283.917L242.659 285.438L237.491 292.767L235.608 296.912L234.809 301.27C234.809 301.27 234.809 301.314 234.809 301.341L235.439 305.565L238.361 313.89L239.071 318.044L240.048 334.32L241.114 350.507L242.801 377.189L243.778 392.914V392.958H8.39755C8.31762 392.958 8.2377 393.003 8.20218 393.083L8.10449 393.287L7.74926 394.364L7.47397 395.28L7.29635 396.294V396.338L7.11874 397.183V397.485L6.85232 398.57L6.67471 399.709L6.40829 400.794L6.05307 403L5.78665 404.165L5.44031 406.362L5.27157 406.78L5.11172 407.02C5.11172 407.02 5.08508 407.064 5.08508 407.091L5.00516 407.411L4.8453 407.642C4.8453 407.642 4.82754 407.678 4.81866 407.696L4.73874 407.936L4.56113 408.292C4.56113 408.292 4.53448 408.354 4.53448 408.389V408.683L3.85956 409.697C3.85956 409.697 3.8418 409.732 3.83291 409.75L3.76187 409.973L3.50433 410.23L3.14911 410.764C3.14911 410.764 3.13135 410.8 3.12247 410.818L2.84717 411.867V413.157L2.92709 413.557L2.84717 413.913V414.304L2.51858 415.594L2.33209 415.976L2.25217 416.216L2.09232 416.456C2.09232 416.456 2.06567 416.501 2.06567 416.527L1.90582 417.106L1.72821 417.461C1.72821 417.461 1.70157 417.524 1.70157 417.559L1.46179 418.351L1.28418 418.707C1.28418 418.707 1.26642 418.751 1.26642 418.778L1.08881 420.041L1 422.024L1.08881 423.251V424.274L1.54172 426.596L1.86142 428.054C1.86142 428.054 1.86142 428.054 1.85254 428.054C1.80814 427.974 1.73709 427.912 1.64828 427.93C1.53284 427.939 1.44403 428.036 1.44403 428.152V428.241C1.44403 428.241 1.46179 428.268 1.46179 428.285L1.71045 429.611C1.72821 429.691 1.78149 429.762 1.86142 429.78C1.87918 429.78 1.90582 429.789 1.92358 429.789C1.98575 429.789 2.03903 429.762 2.08343 429.726L2.43866 429.371C2.43866 429.371 2.45642 429.335 2.4653 429.326C2.50082 429.308 2.53635 429.282 2.55411 429.246L2.74948 428.935L3.2912 427.565L3.82403 424.79L3.91284 423.99C3.91284 423.99 3.91284 423.936 3.91284 423.91L3.81515 423.536L3.45993 422.469C3.45993 422.469 3.43329 422.406 3.40665 422.38L2.81164 421.784L2.58075 421.33V420.939L3.00702 420.503L4.33023 420.058L4.95187 419.703C4.95187 419.703 5.02292 419.649 5.04068 419.605L5.3071 419.071C5.3071 419.071 5.32486 419.009 5.33374 418.982L5.42254 416.874L5.77777 414.526V413.459C5.77777 413.388 5.74225 413.317 5.68008 413.272C5.61792 413.228 5.54687 413.219 5.47583 413.246L4.96963 413.441L4.64105 412.659L4.93411 411.992L5.55575 411.449L8.06009 407.963L9.63195 405.072L10.2181 404.681L11.2216 405.926L11.9942 407.731L12.2517 408.674L12.3405 409.563C12.3405 409.563 12.3405 409.608 12.3583 409.626L12.7402 410.56L14.1522 412.587L14.4896 413.174L14.6584 414.028C14.6584 414.028 14.685 414.099 14.7117 414.126L15.2711 414.775L15.7685 415.184L16.097 415.594L16.4345 416.661L16.5233 417.639C16.5233 417.639 16.5233 417.675 16.5322 417.693L16.8874 418.671C16.8874 418.671 16.9141 418.733 16.9407 418.751L17.8288 419.64C17.8732 419.685 17.9353 419.712 18.0064 419.703C18.0685 419.703 18.1307 419.658 18.1662 419.605L18.3261 419.374L18.6547 419.133L18.9388 420.654L19.4095 421.677L20.0045 422.442L20.342 423.109L21.0524 426.133C21.0524 426.133 21.0791 426.204 21.1057 426.231L22.0648 427.271L22.2957 427.725V428.917C22.2957 428.917 22.2957 428.97 22.3135 428.997L22.4911 429.442C22.4911 429.442 22.5266 429.513 22.5621 429.531L24.2139 430.829L24.8178 431.603L25.1553 432.519L25.2441 432.964C25.2441 432.964 25.2529 432.999 25.2618 433.017L25.5105 433.524L25.5726 433.88L25.4572 433.96L25.1375 434.04C25.0842 434.049 25.0487 434.084 25.0132 434.12L24.7468 434.476C24.7468 434.476 24.7023 434.565 24.7023 434.609V435.321C24.7023 435.383 24.729 435.445 24.7823 435.49L25.3506 435.961L27.1889 436.922L27.8727 437.428L28.37 438.176L29.1693 439.688C29.1693 439.688 29.1959 439.723 29.2048 439.741L29.7732 440.301L31.2474 441.253L31.9312 441.929L32.5528 442.907C32.5972 442.978 32.6771 443.023 32.7659 443.014C32.8459 443.005 32.9258 442.952 32.9524 442.872L33.8405 440.47C33.8405 440.47 33.8583 440.408 33.8494 440.372L33.3165 434.2L33.7162 431.656L34.6753 432.137L35.066 432.368L35.8564 433.942L35.5278 434.271C35.4479 434.351 35.439 434.476 35.5101 434.565L36.3093 435.632C36.3093 435.632 36.3892 435.703 36.4514 435.721L37.4283 435.899C37.4283 435.899 37.4815 435.899 37.5082 435.899L39.604 435.552L40.0392 435.623L37.2329 436.45C37.1352 436.477 37.073 436.566 37.073 436.664V437.108C37.073 437.179 37.1086 437.251 37.1707 437.295L38.414 438.096C38.4762 438.14 38.5561 438.14 38.6271 438.113L39.3554 437.784L39.5507 438.638L39.6395 440.239C39.6395 440.239 39.6573 440.319 39.6751 440.346L40.2079 441.146C40.2079 441.146 40.2701 441.208 40.3145 441.226L41.1315 441.555L41.611 442.347L43.9111 448.279L44.1864 449.48L44.5594 450.316L44.7192 450.547L44.7636 450.716L44.6482 450.787L44.4084 450.867C44.364 450.885 44.3196 450.912 44.293 450.956L44.1154 451.223C44.0887 451.268 44.071 451.321 44.0798 451.374L44.1686 451.997C44.1686 452.041 44.1953 452.086 44.2308 452.121L44.7104 452.593L45.2077 452.922L45.705 453.42L47.3745 457.645C47.3923 457.689 47.4278 457.734 47.4722 457.76L48.4225 458.276L48.6267 458.481L48.7954 459.077L49.0619 459.699C49.0796 459.744 49.124 459.788 49.1684 459.806L49.7013 460.073C49.7013 460.073 49.7546 460.091 49.7812 460.099L50.6249 460.179L50.8913 460.313L52.5342 462.901L52.9604 463.844L53.0493 464.911L52.8716 466.13L52.3655 467.312L51.06 469.323L50.7314 469.652L50.4561 469.794H49.6213C49.5503 469.794 49.4793 469.829 49.4348 469.892C49.3904 469.954 49.3904 470.034 49.4171 470.105L50.1364 471.822L51.9836 475.077L52.2322 476.5L51.7172 478.377L50.7847 479.826L47.2058 483.509L46.8328 484.069L46.4598 484.834L46.2734 485.688V486.488C46.2734 486.568 46.3178 486.639 46.3799 486.675L46.8239 486.942C46.895 486.986 46.9838 486.986 47.0548 486.942L48.0317 486.319C48.0317 486.319 48.1028 486.257 48.1205 486.212L48.7155 484.852L49.2572 484.442L50.2075 485.029L50.4206 485.75L49.5769 487.271C49.5769 487.271 49.5414 487.369 49.5503 487.422L49.7279 488.4C49.7457 488.48 49.799 488.551 49.8789 488.569C49.9588 488.596 50.0476 488.569 50.1009 488.516L50.4117 488.196L51.0067 487.84L51.0511 488.16L50.9002 488.614L50.6515 489.112L50.2341 489.53C50.1897 489.574 50.1631 489.637 50.1719 489.699C50.1719 489.761 50.2075 489.823 50.2519 489.859L50.6604 490.188L50.8913 490.65L51.0511 491.14L50.9801 491.744L50.7669 492.038L49.7013 493.194C49.7013 493.194 49.6657 493.247 49.6569 493.274L49.5947 493.452L49.3194 493.586C49.2661 493.612 49.2306 493.657 49.204 493.71L49.0263 494.244C49.0263 494.244 49.0175 494.279 49.0175 494.297L48.9375 495.498L48.7688 496.085L48.5646 496.36L48.1738 496.512C48.1738 496.512 48.1205 496.538 48.1028 496.565L47.7209 496.956L42.0551 505.646L41.2114 506.411L40.3766 506.971L39.755 507.594C39.755 507.594 39.7017 507.674 39.6928 507.718L39.5241 509.008L39.1866 510.031L37.6236 511.685C37.6236 511.685 37.597 511.712 37.5881 511.729L37.0553 512.708C37.0553 512.708 37.0375 512.752 37.0286 512.779L36.9398 513.348V514.993L37.1174 515.838V516.105C37.1174 516.185 37.1618 516.265 37.2418 516.301L37.6236 516.488L37.8901 516.577C37.8901 516.577 37.9345 516.586 37.9611 516.586H38.4584L38.8136 516.488C38.8847 516.47 38.9468 516.417 38.9735 516.345L39.231 515.563L39.7639 514.318C39.7639 514.318 39.7816 514.264 39.7816 514.229V513.873C39.7816 513.873 39.7816 513.811 39.7639 513.784L39.4353 513.055L39.5774 512.459L39.9237 511.756L40.2523 511.169L41.1226 510.208L43.476 508.19L43.7868 508.029L41.5755 512.699C41.5311 512.797 41.5577 512.903 41.6377 512.966C41.7176 513.028 41.833 513.028 41.913 512.966L43.6269 511.605L46.9394 507.94H47.1081C47.1703 507.94 47.2236 507.914 47.268 507.878L47.3834 507.763H47.6587L47.9074 507.949L48.0317 508.27L47.9695 508.527L47.4545 509.39C47.4545 509.39 47.4367 509.426 47.4278 509.444L47.0815 510.662L45.6784 513.028L43.5825 515.741L40.7318 517.386L37.446 517.822L34.027 516.861C33.9382 516.835 33.8405 516.861 33.7872 516.941L32.988 518.009C32.9258 518.089 32.9258 518.204 32.988 518.284L33.725 519.2L34.8529 520.241L35.439 521.335L35.6255 522.491L36.6201 525.204L37.0642 525.915C37.0642 525.915 37.1086 525.969 37.1352 525.987L38.1121 526.609C38.1121 526.609 38.1476 526.627 38.1654 526.636L40.4299 527.33L41.9396 528.219C41.9396 528.219 41.9929 528.246 42.0195 528.246L43.0497 528.406L43.1829 528.735C43.1829 528.735 43.2273 528.815 43.2628 528.841L43.5026 529.002L44.6393 530.051L48.085 534.116L50.7314 538.536L52.4187 542.627L52.7651 543.49L55.0652 552.259L55.2339 553.896L54.63 555.355C54.6034 555.408 54.6034 555.47 54.63 555.524L55.6868 558.058L57.1255 565.939L60.2248 572.849L60.8376 575.037L61.4592 580.907L62.8801 596.65L63.2353 601.719L63.5905 608.087L63.0577 612.712L62.5249 618.147L62.0897 626.56L60.3225 634.191L54.7366 651.944L53.8752 653.065C53.8752 653.065 53.8396 653.118 53.8396 653.145L53.5022 654.612L48.458 665.783L45.5096 669.91L44.515 672.089L43.6358 676.234L42.3037 678.368L37.4993 690.775L37.0553 693.479V700.203L36.4692 701.813L35.9363 702.702C35.9363 702.702 35.9097 702.756 35.9097 702.782L35.4745 705.86L33.7961 709.053L33.3432 710.253L32.7215 714.389L33.3432 726.921L33.432 732.408L32.5439 742.903C32.5439 743.01 32.5972 743.099 32.6949 743.135C32.7926 743.17 32.8992 743.135 32.9524 743.037L34.3733 740.724C34.3733 740.724 34.4 740.671 34.4 740.644L34.9328 737.149L35.1104 730.434L35.4568 729.731L36.2471 727.001L37.3128 724.51C37.3128 724.51 37.3306 724.466 37.3306 724.439L37.597 720.197L38.0144 719.032L38.8225 718.302L40.9006 717.786C40.9006 717.786 40.945 717.769 40.9627 717.76L41.9396 717.137C41.9396 717.137 41.9929 717.093 42.0107 717.057L42.3836 716.399L42.6589 715.661L45.1544 705.05L45.4208 702.587L45.8471 701.493L46.6996 700.381L47.7298 699.34L48.9375 698.567L50.2785 698.318L52.2322 698.673H52.9782L53.5999 698.584C53.6176 698.584 53.6354 698.584 53.6531 698.567L54.3192 698.282L56.0687 697.055L56.7347 696.717L57.3919 696.556L58.0224 696.717L58.5908 697.046L58.9815 697.437L59.7097 698.522L60.6866 699.678C60.6866 699.678 60.7399 699.723 60.7665 699.741L62.0098 700.274C62.0098 700.274 62.0453 700.292 62.0631 700.292L63.3952 700.47C63.3952 700.47 63.4307 700.47 63.4485 700.47L64.8694 700.292C64.8694 700.292 64.9493 700.274 64.9759 700.247L65.3933 699.909L65.7663 699.758L66.1659 699.678L66.5211 699.741L67.3204 700.096C67.3204 700.096 67.3826 700.114 67.4092 700.114H67.8088L68.2973 700.007L70.6595 698.958L71.4765 698.878L73.4835 699.403C73.4835 699.403 73.5191 699.403 73.5368 699.403H74.1141L75.4906 699.136H76.4319L79.2027 700.025L81.1298 700.203L81.5471 700.283L82.9858 700.995L83.9627 701.261C83.9627 701.261 84.0159 701.27 84.0426 701.261L84.9751 701.164L85.8631 700.897C85.8631 700.897 85.9075 700.879 85.9253 700.87L86.7512 700.31L88.0477 699.091L88.7227 698.673L89.6196 698.513L92.1506 699.038C92.1506 699.038 92.195 699.038 92.2216 699.038L93.1097 698.949C93.1097 698.949 93.163 698.94 93.1896 698.922L93.9001 698.567C93.9001 698.567 93.9445 698.54 93.9534 698.522L94.5128 697.962L95.8982 695.952L96.6708 695.267L97.4701 694.947L98.2338 695.027L98.6867 695.4L99.0331 696.005L99.4771 696.628C99.4771 696.628 99.5393 696.69 99.5837 696.708L100.294 696.974C100.294 696.974 100.347 696.992 100.374 696.992H101.306L102.141 696.797L104.699 695.738L105.551 695.48H107.434L110.329 695.925L111.315 695.836L117.709 694.858C117.709 694.858 117.744 694.858 117.762 694.84L118.997 694.306L119.441 694.128C119.441 694.128 119.512 694.084 119.538 694.057L119.805 693.701C119.805 693.701 119.849 693.613 119.849 693.568V693.034C119.849 693.034 119.849 692.963 119.823 692.937L119.645 692.581C119.645 692.581 119.618 692.536 119.601 692.527L118.65 691.576L118.34 690.864L118.411 690.188L118.855 689.664L119.609 689.432L120.284 689.655L120.764 690.215L121.315 690.953L121.936 691.576C121.936 691.576 122.007 691.629 122.052 691.638L122.54 691.727H122.984C122.984 691.727 123.055 691.727 123.082 691.7L123.455 691.514L123.899 691.247C123.899 691.247 123.952 691.202 123.979 691.176L124.245 690.731C124.245 690.731 124.263 690.695 124.272 690.669L124.529 689.459L124.92 688.917L125.48 688.596L126.705 688.027L127.193 688.312L127.975 689.183L128.037 689.246L128.49 690.135L129.112 690.935C129.147 690.98 129.2 691.007 129.254 691.015L130.408 691.193C130.408 691.193 130.47 691.193 130.497 691.193L132.238 690.758L142.433 691.469H143.143C143.143 691.469 143.179 691.469 143.196 691.469L145.212 690.944L145.772 690.864L147.832 691.816C147.832 691.816 147.876 691.834 147.903 691.834L148.64 691.923H149.262C149.262 691.923 149.297 691.923 149.324 691.923L151.873 691.22H152.414L154.857 691.754H155.505L156.251 691.656L156.908 691.46L157.459 691.184L159.013 690.224L159.519 690.055L160.682 689.975L164.35 691.46L164.803 691.682L164.945 692.092V692.634L164.679 693.879C164.679 693.906 164.679 693.942 164.679 693.968L164.767 694.413C164.785 694.484 164.821 694.537 164.883 694.564L165.416 694.831C165.416 694.831 165.496 694.858 165.531 694.858L167.778 694.689L168.195 694.902L168.4 695.249L168.488 696.352C168.488 696.352 168.497 696.423 168.515 696.45L168.781 696.894C168.781 696.894 168.826 696.957 168.861 696.974L169.483 697.33C169.483 697.33 169.545 697.357 169.581 697.357L170.984 697.446L171.65 697.526L172.014 697.748L173.053 699.136C173.053 699.136 173.08 699.162 173.088 699.171L173.541 699.536L174.936 700.497L176.978 702.898L180.566 706.215L182.493 707.354L182.902 707.674L183.878 708.919C183.878 708.919 183.914 708.955 183.932 708.964L184.509 709.346L185.708 709.764L186.214 710.102L186.498 710.458V710.778L186.143 711.676L186.054 712.21C186.054 712.21 186.054 712.263 186.054 712.29L186.143 712.735C186.143 712.735 186.161 712.797 186.187 712.824L186.782 713.589L187.022 714.078V714.505L186.765 715.661C186.765 715.688 186.765 715.723 186.765 715.75L186.942 716.728C186.951 716.799 186.995 716.853 187.058 716.888L188.159 717.44L190.432 718.133L190.93 718.374L191.8 719.067L192.217 719.485L192.457 719.957L192.999 721.682L193.274 722.225L193.629 722.847C193.629 722.847 193.656 722.892 193.683 722.909L194.233 723.372L194.766 723.728C194.766 723.728 194.819 723.754 194.846 723.763L195.334 723.861H195.867C195.867 723.861 195.921 723.861 195.947 723.843L196.427 723.648L197.412 723.016L198.416 722.278L198.887 721.798L199.926 720.232L200.325 719.823L200.725 719.574L201.222 719.405H201.773L202.101 719.459L202.048 720.001L201.693 720.971C201.693 720.971 201.693 720.979 201.693 720.988L201.426 721.878C201.426 721.878 201.418 721.958 201.426 722.002L201.604 722.625C201.622 722.678 201.648 722.723 201.693 722.749L201.995 722.945L202.581 723.194L202.812 723.345L202.865 723.399L202.936 723.612C202.936 723.612 202.963 723.674 202.989 723.701L203.078 723.79C203.078 723.79 203.114 723.817 203.132 723.835L203.354 723.941L203.664 724.012L203.807 724.083L204.224 724.502C204.224 724.502 204.295 724.555 204.339 724.564L204.783 724.653C204.783 724.653 204.846 724.653 204.872 724.653L205.316 724.564C205.316 724.564 205.361 724.555 205.378 724.537L206.95 723.657L207.217 723.585H208.549C208.549 723.585 208.602 723.585 208.629 723.568L210.902 722.598L214.055 721.958L214.818 721.611L215.12 721.531H215.644L215.769 722.162L214.739 724.048C214.739 724.048 214.712 724.101 214.712 724.137L214.623 725.026C214.623 725.106 214.65 725.186 214.712 725.231L215.334 725.676C215.396 725.72 215.476 725.729 215.538 725.702L217.634 724.92H218.46L218.646 725.16L219.09 725.96C219.09 725.96 219.108 725.996 219.126 726.013L219.507 726.396L221.079 727.534L221.399 727.926L221.55 728.308L221.639 729.358L221.736 729.936L222.545 731.999L222.926 732.755L223.939 733.947L225.413 735.068L225.742 735.477L225.893 735.922L225.635 737.505V737.994L225.724 738.439C225.724 738.474 225.742 738.501 225.768 738.527L227.083 740.191L227.598 741.142L227.944 742.085V743.259L227.42 744.824C227.42 744.824 227.402 744.896 227.42 744.931L227.509 745.465C227.509 745.465 227.527 745.536 227.553 745.572L227.908 746.016C227.908 746.016 227.944 746.052 227.971 746.07L229.258 746.834L230.12 747.688L230.733 748.649L230.99 749.156L231.061 749.529L230.99 749.894L230.111 751.299L229.844 751.833C229.844 751.833 229.818 751.895 229.818 751.931V752.5L229.916 753.069L230.448 754.581C230.484 754.67 230.564 754.732 230.661 754.732H231.594L233.335 754.377L234.16 754.457L234.551 754.608L235.59 755.391C235.59 755.391 235.626 755.408 235.643 755.417L236.114 755.604L237.5 755.951L238.148 756.36L238.823 756.956L239.142 757.605L239.302 758.423L238.947 760.727V761.261C238.947 761.261 238.947 761.305 238.956 761.332L239.311 762.479C239.32 762.524 239.356 762.568 239.391 762.595L239.746 762.862C239.746 762.862 239.8 762.888 239.826 762.897L241.602 763.342C241.602 763.342 241.656 763.351 241.682 763.342L242.57 763.253C242.57 763.253 242.641 763.235 242.677 763.217L243.574 762.586L244.338 761.99L245.199 761.563L246.069 761.403L246.86 761.794L247.242 762.177L247.393 762.613L247.57 764.391C247.57 764.391 247.588 764.454 247.597 764.48L248.396 765.725L248.645 766.135L248.805 766.544V768.678L248.982 769.657C248.982 769.683 248.991 769.701 249.009 769.728L249.568 770.751L250.279 771.551C250.279 771.551 250.305 771.578 250.323 771.587L253.84 773.961L254.604 774.726L254.914 775.678L254.71 776.283L253.804 776.434L251.788 776.256C251.726 776.256 251.673 776.265 251.629 776.309L251.096 776.754C251.016 776.816 250.998 776.923 251.034 777.012L251.389 777.812C251.389 777.812 251.415 777.857 251.433 777.884L252.783 779.235L253.316 779.68C253.316 779.68 253.36 779.716 253.387 779.716L253.92 779.894C253.92 779.894 253.964 779.903 253.991 779.903H254.568L255.856 779.636H256.451L257.001 779.796L257.463 780.169L257.712 780.498L257.863 780.961V781.334L257.596 782.971V783.505C257.596 783.505 257.596 783.549 257.605 783.576L257.792 784.136L257.881 784.314C257.907 784.367 257.96 784.412 258.014 784.43L259.461 784.857L259.843 785.319C259.843 785.319 259.87 785.346 259.879 785.364L261.655 787.053C261.655 787.053 261.69 787.089 261.717 787.098L263.315 787.809C263.315 787.809 263.378 787.827 263.404 787.827L264.186 787.729L266.024 787.116L266.841 786.956L267.356 787.178L267.756 787.578L268.555 788.556C268.555 788.556 268.591 788.592 268.617 788.61L271.885 790.558L272.978 791.376L273.599 791.732C273.599 791.732 273.635 791.749 273.653 791.758L275.047 792.105L275.606 792.425L276.095 792.995L276.334 793.555L277.658 798.42L277.746 799.131C277.746 799.203 277.8 799.265 277.862 799.3L278.626 799.727L280.668 802.218L281.778 803.134L285.473 804.886L288.874 807.483L289.851 808.017C289.851 808.017 289.904 808.034 289.931 808.043L291.263 808.221C291.263 808.221 291.298 808.221 291.325 808.221L292.701 808.034L295.25 807.154L296.405 806.905L297.186 807.367L299.762 809.68C299.762 809.68 299.797 809.706 299.824 809.715L300.445 809.982C300.445 809.982 300.499 810 300.534 810C300.605 810 300.667 809.964 300.712 809.911L301.245 809.2C301.245 809.2 301.271 809.155 301.28 809.128L301.52 808.239L301.822 808.061L302.31 808.141H302.523L302.834 808.292C302.834 808.292 302.896 808.319 302.932 808.319H304.086C304.086 808.319 304.131 808.319 304.149 808.31L305.303 807.954C305.303 807.954 305.347 807.937 305.365 807.928L306.431 807.216C306.431 807.216 306.475 807.181 306.484 807.163L307.878 805.242L308.722 804.477L311.111 803.934L312.177 803.401C312.177 803.401 312.212 803.383 312.23 803.365L313.153 802.52L313.686 801.72C313.686 801.72 313.713 801.684 313.713 801.657L313.873 801.088L314.21 800.75L314.459 800.421L314.699 800.181L315.285 799.932L315.64 799.754C315.711 799.719 315.764 799.638 315.764 799.558V799.114C315.764 799.06 315.747 799.007 315.711 798.971L315.285 798.456L315.143 798.242V797.895L315.4 795.716L315.747 794.676L316.191 793.697C316.191 793.697 316.208 793.644 316.208 793.626L316.297 792.47C316.297 792.47 316.297 792.425 316.297 792.408L316.12 791.518C316.12 791.518 316.111 791.474 316.093 791.447L315.738 790.824C315.693 790.753 315.631 790.709 315.542 790.709C315.462 790.709 315.383 790.762 315.347 790.833L315.258 791.011C315.258 791.011 315.232 791.073 315.232 791.109V791.154L314.876 791.234L314.69 791.109C314.69 791.109 314.61 791.073 314.565 791.073H314.37L314.343 790.851C314.343 790.851 314.343 790.78 314.317 790.753L314.299 790.718C314.352 790.647 314.352 790.54 314.299 790.469C314.237 790.38 314.13 790.344 314.033 790.389L313.713 790.513L313.384 790.237L313.447 789.979L313.526 788.165L314.246 785.648L314.335 785.026C314.335 785.026 314.335 784.972 314.335 784.954L314.157 784.074L314.077 783.576L314.237 782.322L315.4 778.978L315.658 775.989L315.915 775.046L317.976 770.635L318.855 766.312L319.636 764.302L321.119 762.639C321.119 762.639 321.155 762.586 321.164 762.55L321.341 761.928C321.341 761.928 321.341 761.892 321.341 761.865V759.998L322.15 760.131C322.194 760.131 322.247 760.131 322.283 760.113L322.416 760.051H322.611H322.629L323.357 760.309C323.357 760.309 323.402 760.318 323.428 760.318H324.139C324.139 760.318 324.183 760.318 324.21 760.309L324.441 760.229L324.574 760.291C324.574 760.291 324.636 760.318 324.672 760.318H324.76L324.805 760.362V760.54C324.805 760.665 324.903 760.763 325.027 760.763H325.204C325.267 760.763 325.32 760.736 325.364 760.7L325.453 760.611C325.453 760.611 325.48 760.576 325.498 760.558L325.524 760.505L325.595 760.54L325.737 760.754C325.782 760.816 325.844 760.852 325.924 760.852H326.101C326.101 760.852 326.172 760.852 326.208 760.825L327.895 759.935C327.895 759.935 327.931 759.909 327.949 759.891L330.142 757.605L331.048 757.107L331.936 756.84C331.989 756.823 332.043 756.787 332.069 756.734L332.193 756.671H332.318C332.38 756.671 332.433 756.645 332.478 756.609L332.54 756.547L332.638 756.502H332.762C332.762 756.502 332.833 756.502 332.86 756.476L333.392 756.209C333.392 756.209 333.437 756.182 333.446 756.164L333.978 755.631C333.978 755.631 334.023 755.568 334.041 755.524L334.218 754.812C334.218 754.812 334.218 754.732 334.218 754.688L334.05 754.083C334.032 754.012 333.979 753.95 333.907 753.923L333.668 753.843L333.472 753.71L333.392 753.549H333.792L336.723 754.172C336.803 754.19 336.891 754.154 336.945 754.092L336.971 754.119C337.033 754.181 337.122 754.199 337.193 754.172L337.46 754.083C337.513 754.065 337.566 754.021 337.593 753.976L337.637 753.879L337.762 753.834L338.596 754.003C338.641 754.003 338.694 754.003 338.738 753.985L338.863 753.923L339.227 754.145C339.227 754.145 339.307 754.181 339.351 754.181H339.653L339.946 754.252L340.017 754.377V754.555L340.115 754.928L340.195 755.168L340.284 755.613C340.293 755.675 340.328 755.72 340.381 755.755L340.612 755.906L340.914 756.2L341.083 756.316C341.083 756.316 341.101 756.378 341.119 756.404L341.767 757.418L342.442 758.094L342.513 758.308C342.513 758.308 342.531 758.343 342.539 758.361L342.921 758.93L343.037 759.09V759.455L342.948 760.193V760.371C342.948 760.371 342.957 760.46 342.983 760.496L343.161 760.763C343.188 760.807 343.241 760.843 343.294 760.852L343.614 760.932L344.067 761.234L344.129 761.358C344.129 761.358 344.156 761.403 344.173 761.412L344.227 761.465L344.298 761.679C344.324 761.768 344.413 761.83 344.511 761.83H344.555L344.76 762.239C344.786 762.292 344.839 762.337 344.902 762.355L345.284 762.444L346.083 763.404L346.172 763.751L346.26 763.929C346.26 763.929 346.287 763.973 346.305 763.991L346.456 764.142L346.616 764.463C346.616 764.463 346.642 764.507 346.66 764.525L346.775 764.64C346.775 764.703 346.802 764.756 346.846 764.8L347.894 765.761L348.338 766.295C348.338 766.295 348.409 766.357 348.454 766.366L348.738 766.437L349.191 766.962L349.271 767.353C349.28 767.406 349.306 767.451 349.351 767.486L350.15 768.109C350.15 768.109 350.186 768.136 350.203 768.145L351.607 768.758L352.45 769.176L352.947 769.594L353.196 770.084C353.196 770.084 353.249 770.155 353.285 770.172L353.915 770.537L354.59 770.875L354.786 771.24C354.786 771.24 354.839 771.32 354.883 771.338L355.532 771.702L355.772 771.782L355.914 771.853L356.065 772.005C356.065 772.005 356.162 772.067 356.224 772.067L357.414 773.179L358.826 774.326L360.194 775.509L360.958 775.936L361.375 776.434C361.375 776.434 361.411 776.469 361.428 776.478L361.846 776.727L362.929 777.892L363.693 778.364L363.933 778.444L364.368 778.737L364.439 779.013C364.457 779.067 364.483 779.111 364.528 779.147L364.794 779.324C364.794 779.324 364.874 779.36 364.919 779.36L365.007 779.387L365.141 779.796V779.849C365.141 779.911 365.167 779.965 365.203 780.009L365.443 780.241L365.585 780.454V780.739C365.585 780.739 365.585 780.81 365.611 780.836L365.878 781.37C365.878 781.37 365.922 781.432 365.949 781.459L366.171 781.601L366.304 781.966C366.304 781.966 366.331 782.028 366.357 782.055L366.41 782.108L366.473 782.295V782.437C366.473 782.5 366.499 782.553 366.535 782.597L366.677 782.74L366.748 782.953C366.748 782.953 366.766 782.989 366.775 783.007L367.307 783.807C367.352 783.869 367.414 783.905 367.494 783.905H367.636L367.831 783.967L368.16 784.216C368.16 784.216 368.204 784.243 368.222 784.252L368.453 784.332L369.226 784.874V785.203C369.226 785.203 369.226 785.275 369.252 785.301L369.341 785.479C369.341 785.479 369.368 785.524 369.385 785.532L369.412 785.559C369.412 785.684 369.51 785.781 369.634 785.781L369.687 785.835L369.776 786.315C369.776 786.315 369.803 786.395 369.838 786.431L369.927 786.52C369.98 786.573 370.06 786.591 370.131 786.582C370.203 786.564 370.265 786.52 370.291 786.449L370.478 785.977L371.437 782.553L371.952 781.521L373.524 780.036C373.524 780.036 373.551 780 373.559 779.983L374.181 778.915C374.181 778.915 374.199 778.88 374.208 778.862L374.82 776.665L375.247 775.642L376.152 774.735L376.694 774.584H377.325L377.769 774.495C377.822 774.486 377.866 774.451 377.902 774.406L378.168 774.05C378.168 774.05 378.213 773.961 378.213 773.917V773.828L378.444 773.597L378.595 773.374L379.172 773.045C379.172 773.045 379.207 773.027 379.216 773.01L379.279 772.947L379.376 772.903H379.412C379.474 772.903 379.527 772.876 379.572 772.841L380.016 772.396C380.016 772.396 380.06 772.343 380.069 772.307L380.513 770.973C380.513 770.973 380.522 770.92 380.522 770.893L380.433 768.34L380.682 767.273L381.17 766.784C381.17 766.784 381.232 766.686 381.232 766.624V766.49L381.436 766.384L381.809 766.304H382.289L382.777 766.544C382.822 766.57 382.884 766.57 382.928 766.561L383.23 766.49L383.488 766.553L383.808 766.793C383.808 766.793 383.861 766.819 383.888 766.828L384.296 766.926H384.42L384.554 766.988C384.554 766.988 384.598 767.006 384.616 767.006L385.717 767.184H388.221L389.376 767.095C389.402 767.095 389.429 767.086 389.456 767.068L391.614 766.286L392.546 766.117L393.656 766.375C393.656 766.375 393.718 766.375 393.754 766.375L394.589 766.206L400.69 766.384L402.341 766.65L405.006 766.473C405.006 766.473 405.077 766.464 405.103 766.437L407.75 764.845L409.144 764.187L409.668 764.56L410.378 765.005C410.423 765.032 410.485 765.041 410.538 765.032L410.938 764.952L412.403 765.299C412.403 765.299 412.465 765.299 412.492 765.299L415.733 764.676H416.488L418.806 765.654L419.961 765.832C419.961 765.832 420.005 765.832 420.032 765.832L421.062 765.654H421.994L423.193 766.17L424.17 766.615C424.259 766.659 424.365 766.633 424.436 766.553L424.809 766.099H425.538L426.07 766.393L427.225 767.46C427.278 767.513 427.358 767.531 427.438 767.513L428.033 767.344H428.708C428.708 767.344 428.788 767.335 428.815 767.317L430.395 766.401L430.999 766.704C430.999 766.704 431.061 766.73 431.097 766.73H431.736L436.088 766.464C436.088 766.464 436.123 766.464 436.141 766.455L436.381 766.375L438.61 766.286L439.453 766.455L440.04 766.873C440.04 766.873 440.075 766.899 440.102 766.899L440.937 767.175L441.523 767.255L441.789 767.344C441.789 767.344 441.869 767.362 441.905 767.344L444.267 766.819L459.097 766.197C459.16 766.197 459.222 766.161 459.266 766.108C459.311 766.055 459.319 765.992 459.311 765.93L458.6 762.452L457.632 758.592V756.867L457.952 756.227L458.147 755.933L458.476 755.266L462.09 750.855L463.2 750.223L464.071 750.623C464.15 750.659 464.257 750.641 464.319 750.579L464.745 750.152L465.776 750.632L465.545 751.717L465.367 752.776L465.101 754.154V754.199L464.39 758.228L464.213 761.003V761.536C464.213 761.536 464.213 761.581 464.221 761.607L464.479 762.372V762.426C464.479 762.488 464.506 762.541 464.541 762.586L464.63 762.675C464.63 762.675 464.728 762.737 464.79 762.737H466.93L468.609 762.648H470.287L473.582 762.737H476.352L477.4 762.648L482.027 762.737L484.114 762.657C484.114 762.657 484.132 762.701 484.141 762.719C484.185 762.781 484.256 762.826 484.327 762.826H658.92L663.547 762.915H693.474C693.599 762.915 693.697 762.817 693.697 762.693V762.604L693.776 762.319C693.776 762.319 693.785 762.275 693.785 762.248V762.159C693.785 762.159 693.785 762.132 693.785 762.114C693.785 762.097 693.785 762.088 693.785 762.07L693.963 761.394L695.029 755.346L697.338 743.25L698.403 737.211L699.558 731.252L701.689 719.423L702.844 713.544L703.11 711.641V711.241L703.012 710.796C703.012 710.751 702.986 710.716 702.95 710.68L702.302 710.031L695.109 704.961L692.453 703.191L690.286 701.573L689.949 701.404L687.835 700.043V699.812C687.835 699.812 687.826 699.732 687.809 699.705L687.462 699.091L686.947 698.06L686.69 695.614L686.157 690.01L684.914 678.626L684.381 673.023L682.516 656.035L681.983 650.343L680.74 639.048L680.207 633.355L678.964 621.971L678.431 616.279L677.187 604.894L676.655 599.113L672.303 558.023L671.77 552.153L669.905 534.543L669.55 530.798L669.106 527.063L668.396 519.681L667.419 510.964L666.62 502.96L664.843 487.039L664.044 479.035L662.268 463.115L661.469 455.11L660.581 447.105L659.781 440.177L659.426 436.441L658.538 428.17L657.561 419.907L657.206 416.172L656.318 408.434L655.519 400.607L654.631 392.869L653.831 385.132L652.943 377.305L652.144 369.567L651.256 361.74L650.457 353.913L649.569 346.087L648.769 338.349L647.881 330.522L647.082 322.695L646.194 314.869L645.395 306.953L644.507 299.126L643.708 291.299L642.819 283.473L642.198 277.247C642.198 277.247 642.198 277.238 642.198 277.229L641.931 275.557L641.132 267.73L640.244 259.814L639.445 251.899L638.557 243.983L637.758 236.067L636.425 224.149L635.537 215.166L634.116 202.208V201.852C634.116 201.852 634.116 201.834 634.116 201.816L633.495 196.489L632.962 191.241L632.34 185.994L631.808 180.746L631.186 175.499L630.653 170.251L630.031 164.915L629.499 159.668L628.904 154.669H629.987C630.076 154.669 630.156 154.616 630.191 154.536C630.191 154.518 630.2 154.5 630.209 154.473L630.387 154.402H733.801C733.801 154.402 733.872 154.402 733.899 154.376L734.006 154.322L734.29 154.536C734.29 154.536 734.379 154.58 734.423 154.58H734.778C734.876 154.58 734.965 154.518 734.991 154.42C735.018 154.322 734.982 154.224 734.894 154.171L734.858 154.02Z" fill="#F7F7F7" stroke="#DEDEDE" stroke-miterlimit="10"/>
</svg>
